STARTFONT 2.1
COMMENT This font image translated from Metafont
COMMENT Input file was ``bnsl10''
COMMENT DPI was ``100'', usermag ``1000'', blackness ``3''
COMMENT shrink was 1
FONT -*-bengali2-medium-o-*-*-*-100-*-*-*-*-iso10646-1
SIZE 10 100 100
FONTBOUNDINGBOX 28 19 -8 -5
STARTPROPERTIES 5
FONT_ASCENT 14
FONT_DESCENT 3
COPYRIGHT "GNU General Public License"
DEFAULT_CHAR 319
_XMBDFED_INFO "Edited with xmbdfed 4.5."
ENDPROPERTIES
CHARS 249
STARTCHAR C257
ENCODING 257
SWIDTH 504 0
DWIDTH 7 0
BBX 8 13 2 -1
BITMAP
80
7C
02
FF
30
6C
04
04
B8
40
20
10
08
ENDCHAR
STARTCHAR C258
ENCODING 258
SWIDTH 576 0
DWIDTH 8 0
BBX 10 12 1 0
BITMAP
4000
3F00
0080
7FC0
2000
7900
6B00
0E00
1200
E400
0400
0400
ENDCHAR
STARTCHAR C259
ENCODING 259
SWIDTH 576 0
DWIDTH 8 0
BBX 10 12 1 0
BITMAP
C000
3F00
0080
7FC0
4800
4800
4B00
4D00
4100
4100
2200
1C00
ENDCHAR
STARTCHAR C260
ENCODING 260
SWIDTH 648 0
DWIDTH 9 0
BBX 10 12 2 0
BITMAP
8000
7F00
0080
FFC0
8800
C800
CB00
CD00
C100
C100
6200
3C00
ENDCHAR
STARTCHAR C261
ENCODING 261
SWIDTH 720 0
DWIDTH 10 0
BBX 9 9 2 0
BITMAP
4A00
D680
7C80
2480
4500
6500
1B00
1B00
0800
ENDCHAR
STARTCHAR C262
ENCODING 262
SWIDTH 648 0
DWIDTH 9 0
BBX 8 9 2 0
BITMAP
07
09
11
9A
9A
82
82
7E
04
ENDCHAR
STARTCHAR C263
ENCODING 263
SWIDTH 792 0
DWIDTH 11 0
BBX 11 13 2 0
BITMAP
0400
0800
0800
07C0
0720
0920
1140
9980
9A00
8200
8200
7E00
0200
ENDCHAR
STARTCHAR C264
ENCODING 264
SWIDTH 576 0
DWIDTH 8 0
BBX 7 9 2 0
BITMAP
1C
A2
A2
9C
9C
84
84
48
30
ENDCHAR
STARTCHAR C270
ENCODING 270
SWIDTH 288 0
DWIDTH 4 0
BBX 6 9 1 0
BITMAP
7C
10
20
20
20
40
40
40
80
ENDCHAR
STARTCHAR C271
ENCODING 271
SWIDTH 0 0
DWIDTH 0 0
BBX 7 3 -8 -1
BITMAP
80
82
7E
ENDCHAR
STARTCHAR C272
ENCODING 272
SWIDTH 576 0
DWIDTH 8 0
BBX 9 10 2 -1
BITMAP
FF80
3200
3200
CC00
3800
2400
4400
3800
1000
0800
ENDCHAR
STARTCHAR C273
ENCODING 273
SWIDTH 648 0
DWIDTH 9 0
BBX 10 9 2 0
BITMAP
FFC0
1900
2900
C600
0200
3A00
C600
C600
0400
ENDCHAR
STARTCHAR C274
ENCODING 274
SWIDTH 1152 0
DWIDTH 16 0
BBX 17 9 2 0
BITMAP
FE7B80
118600
315E00
CE6200
00C400
000400
000400
000400
000800
ENDCHAR
STARTCHAR C275
ENCODING 275
SWIDTH 1152 0
DWIDTH 16 0
BBX 17 9 2 0
BITMAP
FE7B80
118600
315E00
CE6200
00C400
00EC00
011400
018400
000800
ENDCHAR
STARTCHAR C276
ENCODING 276
SWIDTH 1008 0
DWIDTH 14 0
BBX 15 9 2 0
BITMAP
FFFE
1200
3230
CE28
0128
0250
0640
0140
00C0
ENDCHAR
STARTCHAR C277
ENCODING 277
SWIDTH 648 0
DWIDTH 9 0
BBX 10 9 2 0
BITMAP
FFC0
1900
2900
C600
0600
3A00
7200
0A00
0400
ENDCHAR
STARTCHAR C278
ENCODING 278
SWIDTH 792 0
DWIDTH 11 0
BBX 12 9 2 0
BITMAP
FFF0
1140
2940
C640
0280
0E80
0D80
0180
0100
ENDCHAR
STARTCHAR C279
ENCODING 279
SWIDTH 648 0
DWIDTH 9 0
BBX 10 9 2 0
BITMAP
FFC0
1900
2900
C600
0200
6E00
9200
C200
0400
ENDCHAR
STARTCHAR C280
ENCODING 280
SWIDTH 504 0
DWIDTH 7 0
BBX 9 10 1 -1
BITMAP
7F80
1C00
3200
0200
7C00
3000
7800
9C00
C800
0800
ENDCHAR
STARTCHAR C281
ENCODING 281
SWIDTH 720 0
DWIDTH 10 0
BBX 11 9 2 0
BITMAP
FFE0
0400
0F80
2780
8480
4F00
2800
5800
4800
ENDCHAR
STARTCHAR C282
ENCODING 282
SWIDTH 720 0
DWIDTH 10 0
BBX 11 9 2 0
BITMAP
FFE0
0200
0B00
2680
8480
4500
3500
5900
4800
ENDCHAR
STARTCHAR C283
ENCODING 283
SWIDTH 576 0
DWIDTH 8 0
BBX 9 10 2 -1
BITMAP
FF80
3000
4E00
CA00
0200
8400
7800
3000
0800
0400
ENDCHAR
STARTCHAR C284
ENCODING 284
SWIDTH 648 0
DWIDTH 9 0
BBX 10 10 2 -1
BITMAP
FFC0
3000
6F00
0500
0500
BA00
4200
2200
1400
0800
ENDCHAR
STARTCHAR C285
ENCODING 285
SWIDTH 720 0
DWIDTH 10 0
BBX 8 9 2 0
BITMAP
1D
23
BB
89
B6
87
81
42
3C
ENDCHAR
STARTCHAR C286
ENCODING 286
SWIDTH 720 0
DWIDTH 10 0
BBX 8 9 2 0
BITMAP
6D
13
BB
F9
86
87
81
42
3C
ENDCHAR
STARTCHAR C287
ENCODING 287
SWIDTH 648 0
DWIDTH 9 0
BBX 10 9 2 0
BITMAP
FFC0
2000
7E00
0B00
1200
E000
4000
3000
1000
ENDCHAR
STARTCHAR C288
ENCODING 288
SWIDTH 432 0
DWIDTH 6 0
BBX 0 0 0 0
BITMAP
ENDCHAR
STARTCHAR C289
ENCODING 289
SWIDTH 576 0
DWIDTH 8 0
BBX 4 12 5 -2
BITMAP
10
30
30
20
20
60
60
40
40
00
C0
C0
ENDCHAR
STARTCHAR C290
ENCODING 290
SWIDTH 432 0
DWIDTH 6 0
BBX 5 5 3 6
BITMAP
F8
F8
50
90
20
ENDCHAR
STARTCHAR C291
ENCODING 291
SWIDTH 576 0
DWIDTH 8 0
BBX 8 10 1 -2
BITMAP
0A
0A
14
7F
28
FE
28
50
50
A0
ENDCHAR
STARTCHAR C292
ENCODING 292
SWIDTH 648 0
DWIDTH 9 0
BBX 9 12 1 -1
BITMAP
0200
0200
0400
0800
0800
1000
1780
2000
2000
4000
8000
8000
ENDCHAR
STARTCHAR C293
ENCODING 293
SWIDTH 720 0
DWIDTH 10 0
BBX 10 13 1 -1
BITMAP
0800
1C40
1780
2480
2900
2A00
1400
0900
0A80
1480
2480
4500
8200
ENDCHAR
STARTCHAR C294
ENCODING 294
SWIDTH 504 0
DWIDTH 7 0
BBX 8 10 2 -1
BITMAP
37
4C
0C
74
28
18
38
C8
30
10
ENDCHAR
STARTCHAR C295
ENCODING 295
SWIDTH 288 0
DWIDTH 4 0
BBX 3 5 3 6
BITMAP
E0
E0
40
40
80
ENDCHAR
STARTCHAR C296
ENCODING 296
SWIDTH 288 0
DWIDTH 4 0
BBX 5 14 1 -3
BITMAP
08
18
10
30
20
60
60
C0
C0
C0
C0
C0
40
40
ENDCHAR
STARTCHAR C297
ENCODING 297
SWIDTH 288 0
DWIDTH 4 0
BBX 5 14 0 -3
BITMAP
10
10
18
18
18
18
18
38
30
30
60
60
C0
80
ENDCHAR
STARTCHAR C298
ENCODING 298
SWIDTH 504 0
DWIDTH 7 0
BBX 6 7 3 4
BITMAP
10
AC
70
60
B0
40
40
ENDCHAR
STARTCHAR C299
ENCODING 299
SWIDTH 648 0
DWIDTH 9 0
BBX 9 9 1 0
BITMAP
0400
0400
0400
0800
FF80
0800
0800
1000
1000
ENDCHAR
STARTCHAR C300
ENCODING 300
SWIDTH 360 0
DWIDTH 5 0
BBX 3 5 2 -3
BITMAP
C0
E0
40
40
80
ENDCHAR
STARTCHAR C301
ENCODING 301
SWIDTH 360 0
DWIDTH 5 0
BBX 5 2 1 3
BITMAP
F8
F8
ENDCHAR
STARTCHAR C302
ENCODING 302
SWIDTH 504 0
DWIDTH 7 0
BBX 3 9 5 0
BITMAP
20
20
20
40
40
40
40
80
80
ENDCHAR
STARTCHAR C303
ENCODING 303
SWIDTH 288 0
DWIDTH 4 0
BBX 6 11 0 -2
BITMAP
04
04
08
08
10
20
20
40
40
80
80
ENDCHAR
STARTCHAR C304
ENCODING 304
SWIDTH 504 0
DWIDTH 7 0
BBX 8 7 1 1
BITMAP
3E
41
81
81
81
82
7C
ENDCHAR
STARTCHAR C305
ENCODING 305
SWIDTH 504 0
DWIDTH 7 0
BBX 5 8 3 0
BITMAP
80
80
60
10
08
08
F0
E0
ENDCHAR
STARTCHAR C306
ENCODING 306
SWIDTH 504 0
DWIDTH 7 0
BBX 6 9 2 -1
BITMAP
60
18
04
04
F8
40
20
10
08
ENDCHAR
STARTCHAR C307
ENCODING 307
SWIDTH 504 0
DWIDTH 7 0
BBX 7 6 2 1
BITMAP
80
9C
9A
82
44
38
ENDCHAR
STARTCHAR C308
ENCODING 308
SWIDTH 504 0
DWIDTH 7 0
BBX 8 9 1 0
BITMAP
1E
21
41
42
3C
42
82
84
78
ENDCHAR
STARTCHAR C309
ENCODING 309
SWIDTH 504 0
DWIDTH 7 0
BBX 8 8 1 0
BITMAP
1C
27
42
84
88
88
88
7C
ENDCHAR
STARTCHAR C310
ENCODING 310
SWIDTH 504 0
DWIDTH 7 0
BBX 7 8 2 0
BITMAP
30
90
96
9A
82
82
44
38
ENDCHAR
STARTCHAR C311
ENCODING 311
SWIDTH 504 0
DWIDTH 7 0
BBX 6 9 2 0
BITMAP
38
44
84
7C
04
08
08
08
08
ENDCHAR
STARTCHAR C312
ENCODING 312
SWIDTH 504 0
DWIDTH 7 0
BBX 8 9 1 0
BITMAP
40
20
40
41
7E
48
88
90
E0
ENDCHAR
STARTCHAR C313
ENCODING 313
SWIDTH 504 0
DWIDTH 7 0
BBX 7 9 1 0
BITMAP
20
20
20
18
04
02
72
CA
CC
ENDCHAR
STARTCHAR C314
ENCODING 314
SWIDTH 432 0
DWIDTH 6 0
BBX 3 6 3 1
BITMAP
60
60
00
00
C0
C0
ENDCHAR
STARTCHAR C315
ENCODING 315
SWIDTH 360 0
DWIDTH 5 0
BBX 3 8 2 -3
BITMAP
60
60
00
C0
E0
40
40
80
ENDCHAR
STARTCHAR C316
ENCODING 316
SWIDTH 720 0
DWIDTH 10 0
BBX 6 9 5 0
BITMAP
24
24
44
44
48
48
88
88
90
ENDCHAR
STARTCHAR C317
ENCODING 317
SWIDTH 720 0
DWIDTH 10 0
BBX 10 4 1 2
BITMAP
7FC0
0000
0000
FF80
ENDCHAR
STARTCHAR C318
ENCODING 318
SWIDTH 504 0
DWIDTH 7 0
BBX 8 10 2 -1
BITMAP
FF
38
64
04
F8
60
10
78
D0
30
ENDCHAR
STARTCHAR C319
ENCODING 319
SWIDTH 792 0
DWIDTH 11 0
BBX 5 11 7 -1
BITMAP
70
88
C8
10
10
20
40
40
00
C0
C0
ENDCHAR
STARTCHAR C320
ENCODING 320
SWIDTH 648 0
DWIDTH 9 0
BBX 10 10 2 -1
BITMAP
FFC0
0800
E800
D700
1A00
1200
0E00
1200
0C00
0400
ENDCHAR
STARTCHAR C321
ENCODING 321
SWIDTH 288 0
DWIDTH 4 0
BBX 5 9 2 0
BITMAP
B8
40
40
40
40
80
80
80
80
ENDCHAR
STARTCHAR C322
ENCODING 322
SWIDTH 504 0
DWIDTH 7 0
BBX 5 9 2 0
BITMAP
38
48
B0
80
80
60
10
08
08
ENDCHAR
STARTCHAR C323
ENCODING 323
SWIDTH 576 0
DWIDTH 8 0
BBX 9 10 2 -1
BITMAP
FF80
4000
F800
9400
E400
0800
F000
3000
0800
0400
ENDCHAR
STARTCHAR C324
ENCODING 324
SWIDTH 576 0
DWIDTH 8 0
BBX 9 9 2 0
BITMAP
FF80
9000
9000
9600
9A00
8200
8200
4400
3800
ENDCHAR
STARTCHAR C325
ENCODING 325
SWIDTH 288 0
DWIDTH 4 0
BBX 6 13 1 -1
BITMAP
80
70
08
7C
10
20
40
40
80
80
80
B0
60
ENDCHAR
STARTCHAR C326
ENCODING 326
SWIDTH 576 0
DWIDTH 8 0
BBX 9 9 2 0
BITMAP
FF80
C200
3200
3A00
4400
C400
3400
0C00
0800
ENDCHAR
STARTCHAR C327
ENCODING 327
SWIDTH 576 0
DWIDTH 8 0
BBX 9 9 2 0
BITMAP
FF80
8200
8200
7200
2400
E400
1400
0C00
0800
ENDCHAR
STARTCHAR C328
ENCODING 328
SWIDTH 360 0
DWIDTH 5 0
BBX 5 8 1 1
BITMAP
30
48
48
30
00
70
90
E0
ENDCHAR
STARTCHAR C329
ENCODING 329
SWIDTH 216 0
DWIDTH 3 0
BBX 9 13 -3 0
BITMAP
7C00
8200
8200
7A00
0F80
0200
0200
0200
0400
0400
0400
0400
0800
ENDCHAR
STARTCHAR C330
ENCODING 330
SWIDTH 648 0
DWIDTH 9 0
BBX 10 9 2 0
BITMAP
FDC0
0500
1D00
6500
8A00
4A00
2E00
1E00
1000
ENDCHAR
STARTCHAR C331
ENCODING 331
SWIDTH 648 0
DWIDTH 9 0
BBX 10 9 2 0
BITMAP
09C0
F500
C500
0900
7200
7200
0A00
0600
0400
ENDCHAR
STARTCHAR C332
ENCODING 332
SWIDTH 720 0
DWIDTH 10 0
BBX 11 9 2 0
BITMAP
FFE0
4200
FF00
D280
1480
7500
6D00
0D00
0800
ENDCHAR
STARTCHAR C333
ENCODING 333
SWIDTH 432 0
DWIDTH 6 0
BBX 4 9 3 0
BITMAP
60
90
90
60
00
80
40
40
20
ENDCHAR
STARTCHAR C334
ENCODING 334
SWIDTH 504 0
DWIDTH 7 0
BBX 8 9 2 0
BITMAP
37
4C
8C
E4
68
08
08
08
10
ENDCHAR
STARTCHAR C335
ENCODING 335
SWIDTH 216 0
DWIDTH 3 0
BBX 9 12 -3 0
BITMAP
8000
7E00
0100
0780
0200
0200
0200
0400
0400
0400
0400
0800
ENDCHAR
STARTCHAR C336
ENCODING 336
SWIDTH 792 0
DWIDTH 11 0
BBX 10 9 2 0
BITMAP
3200
4D80
4E40
1580
E440
2C40
1B80
1800
0800
ENDCHAR
STARTCHAR C337
ENCODING 337
SWIDTH 864 0
DWIDTH 12 0
BBX 12 9 2 0
BITMAP
0700
0960
1190
9910
9A60
8260
8320
7EC0
0600
ENDCHAR
STARTCHAR C338
ENCODING 338
SWIDTH 576 0
DWIDTH 8 0
BBX 9 11 2 -2
BITMAP
FF80
9000
9000
9600
9A00
8200
8200
4400
3800
6000
6000
ENDCHAR
STARTCHAR C339
ENCODING 339
SWIDTH 576 0
DWIDTH 8 0
BBX 9 9 2 0
BITMAP
8380
5A00
6600
F200
F400
0400
0400
0400
0800
ENDCHAR
STARTCHAR C340
ENCODING 340
SWIDTH 504 0
DWIDTH 7 0
BBX 8 12 2 0
BITMAP
80
7C
02
FF
40
40
48
88
88
90
A0
C0
ENDCHAR
STARTCHAR C341
ENCODING 341
SWIDTH 0 0
DWIDTH 0 0
BBX 5 5 -4 -4
BITMAP
60
80
80
F0
08
ENDCHAR
STARTCHAR C342
ENCODING 342
SWIDTH 504 0
DWIDTH 7 0
BBX 9 11 1 -2
BITMAP
7F80
2000
2000
2400
4400
4400
4800
5000
6000
C000
C000
ENDCHAR
STARTCHAR C343
ENCODING 343
SWIDTH 0 0
DWIDTH 0 0
BBX 3 3 -4 -3
BITMAP
60
C0
20
ENDCHAR
STARTCHAR C344
ENCODING 344
SWIDTH 504 0
DWIDTH 7 0
BBX 8 9 2 0
BITMAP
FF
40
40
48
88
88
90
A0
C0
ENDCHAR
STARTCHAR C345
ENCODING 345
SWIDTH 576 0
DWIDTH 8 0
BBX 9 9 2 0
BITMAP
FF80
C200
2200
3200
4400
C400
3400
0C00
0800
ENDCHAR
STARTCHAR C346
ENCODING 346
SWIDTH 504 0
DWIDTH 7 0
BBX 9 13 1 0
BITMAP
0800
0800
0800
0800
7F80
0400
0400
0C00
1400
2400
C400
8800
7000
ENDCHAR
STARTCHAR C347
ENCODING 347
SWIDTH 216 0
DWIDTH 3 0
BBX 6 15 0 -3
BITMAP
1C
1C
10
30
30
30
30
60
60
60
60
C0
C0
C0
E0
ENDCHAR
STARTCHAR C348
ENCODING 348
SWIDTH 432 0
DWIDTH 6 0
BBX 6 5 2 6
BITMAP
24
48
50
F8
78
ENDCHAR
STARTCHAR C349
ENCODING 349
SWIDTH 216 0
DWIDTH 3 0
BBX 6 15 -1 -3
BITMAP
1C
1C
0C
08
08
18
18
10
10
30
30
20
20
E0
E0
ENDCHAR
STARTCHAR C350
ENCODING 350
SWIDTH 0 0
DWIDTH 0 0
BBX 5 3 1 9
BITMAP
08
20
80
ENDCHAR
STARTCHAR C351
ENCODING 351
SWIDTH 0 0
DWIDTH 0 0
BBX 3 3 -2 -4
BITMAP
80
40
20
ENDCHAR
STARTCHAR C352
ENCODING 352
SWIDTH 288 0
DWIDTH 4 0
BBX 2 5 3 6
BITMAP
40
80
80
C0
C0
ENDCHAR
STARTCHAR C353
ENCODING 353
SWIDTH 792 0
DWIDTH 11 0
BBX 12 9 2 0
BITMAP
FFF0
9040
9C40
9A40
8280
4280
4680
3980
0100
ENDCHAR
STARTCHAR C354
ENCODING 354
SWIDTH 504 0
DWIDTH 7 0
BBX 8 9 2 0
BITMAP
FF
04
14
44
88
C8
28
18
10
ENDCHAR
STARTCHAR C355
ENCODING 355
SWIDTH 504 0
DWIDTH 7 0
BBX 8 9 2 0
BITMAP
FF
40
40
70
88
88
90
A0
C0
ENDCHAR
STARTCHAR C356
ENCODING 356
SWIDTH 504 0
DWIDTH 7 0
BBX 8 9 2 0
BITMAP
FF
40
84
9C
E8
88
10
10
10
ENDCHAR
STARTCHAR C357
ENCODING 357
SWIDTH 288 0
DWIDTH 4 0
BBX 6 10 1 -1
BITMAP
7C
10
20
40
40
80
80
80
B0
60
ENDCHAR
STARTCHAR C358
ENCODING 358
SWIDTH 648 0
DWIDTH 9 0
BBX 10 9 2 0
BITMAP
FFC0
C000
2600
2500
4F00
CE00
2800
1800
1000
ENDCHAR
STARTCHAR C359
ENCODING 359
SWIDTH 576 0
DWIDTH 8 0
BBX 9 9 2 0
BITMAP
0380
7A00
E600
1200
1400
2400
4400
0400
0800
ENDCHAR
STARTCHAR C360
ENCODING 360
SWIDTH 504 0
DWIDTH 7 0
BBX 8 10 2 -1
BITMAP
FF
30
6C
04
04
B8
40
20
10
08
ENDCHAR
STARTCHAR C361
ENCODING 361
SWIDTH 288 0
DWIDTH 4 0
BBX 10 13 2 0
BITMAP
1F00
2080
4040
4040
F800
2000
4000
4000
4000
4000
8000
8000
8000
ENDCHAR
STARTCHAR C362
ENCODING 362
SWIDTH 720 0
DWIDTH 10 0
BBX 11 9 2 0
BITMAP
FFE0
1000
AF80
C100
BE00
8600
8600
7A00
0200
ENDCHAR
STARTCHAR C363
ENCODING 363
SWIDTH 720 0
DWIDTH 10 0
BBX 11 9 2 0
BITMAP
FFE0
0200
0E00
2400
8400
4700
2800
1800
0800
ENDCHAR
STARTCHAR C364
ENCODING 364
SWIDTH 648 0
DWIDTH 9 0
BBX 10 9 2 0
BITMAP
FFC0
0100
7500
8B00
8A00
E200
4200
0200
0400
ENDCHAR
STARTCHAR C365
ENCODING 365
SWIDTH 576 0
DWIDTH 8 0
BBX 9 9 2 0
BITMAP
FF80
8200
8200
4200
2400
6400
7400
0C00
0800
ENDCHAR
STARTCHAR C366
ENCODING 366
SWIDTH 504 0
DWIDTH 7 0
BBX 8 9 2 0
BITMAP
FF
04
04
04
E8
D8
18
08
10
ENDCHAR
STARTCHAR C367
ENCODING 367
SWIDTH 648 0
DWIDTH 9 0
BBX 9 13 2 0
BITMAP
0800
0800
0800
0700
1C80
A280
A300
9E00
9C00
8400
8400
4800
3000
ENDCHAR
STARTCHAR C368
ENCODING 368
SWIDTH 576 0
DWIDTH 8 0
BBX 9 9 2 0
BITMAP
0380
7A00
EE00
3200
6400
0400
0400
0400
0800
ENDCHAR
STARTCHAR C369
ENCODING 369
SWIDTH 648 0
DWIDTH 9 0
BBX 8 10 2 0
BITMAP
07
09
2A
9C
92
96
9A
82
44
38
ENDCHAR
STARTCHAR C370
ENCODING 370
SWIDTH 504 0
DWIDTH 7 0
BBX 8 9 2 0
BITMAP
FF
04
14
44
88
C8
28
18
D0
ENDCHAR
STARTCHAR C371
ENCODING 371
SWIDTH 576 0
DWIDTH 8 0
BBX 9 9 2 0
BITMAP
FF80
C200
2200
3A00
3400
A400
C400
0400
0800
ENDCHAR
STARTCHAR C372
ENCODING 372
SWIDTH 576 0
DWIDTH 8 0
BBX 9 9 2 0
BITMAP
FF80
0000
9C00
9A00
9A00
8200
8200
4400
3800
ENDCHAR
STARTCHAR C373
ENCODING 373
SWIDTH 0 0
DWIDTH 0 0
BBX 6 5 -5 -5
BITMAP
70
90
68
04
04
ENDCHAR
STARTCHAR C374
ENCODING 374
SWIDTH 648 0
DWIDTH 9 0
BBX 10 9 2 0
BITMAP
FFC0
0000
9800
BA00
BD00
8100
8100
4200
3C00
ENDCHAR
STARTCHAR C375
ENCODING 375
SWIDTH 0 0
DWIDTH 0 0
BBX 5 4 -1 9
BITMAP
A0
A8
88
70
ENDCHAR
STARTCHAR C376
ENCODING 376
SWIDTH 504 0
DWIDTH 7 0
BBX 8 9 2 0
BITMAP
27
44
34
24
88
48
28
18
10
ENDCHAR
STARTCHAR C377
ENCODING 377
SWIDTH 576 0
DWIDTH 8 0
BBX 9 9 2 0
BITMAP
FF80
C200
2200
3200
4400
C400
3400
0C00
6800
ENDCHAR
STARTCHAR C378
ENCODING 378
SWIDTH 576 0
DWIDTH 8 0
BBX 8 9 3 0
BITMAP
67
94
94
24
C8
C8
08
08
10
ENDCHAR
STARTCHAR C379
ENCODING 379
SWIDTH 576 0
DWIDTH 8 0
BBX 9 1 1 4
BITMAP
FF80
ENDCHAR
STARTCHAR C380
ENCODING 380
SWIDTH 1080 0
DWIDTH 15 0
BBX 16 1 1 4
BITMAP
FFFF
ENDCHAR
STARTCHAR C381
ENCODING 381
SWIDTH 504 0
DWIDTH 7 0
BBX 9 10 1 -1
BITMAP
7F80
1C00
3200
0200
7C00
3000
0800
7C00
D800
C800
ENDCHAR
STARTCHAR C382
ENCODING 382
SWIDTH 648 0
DWIDTH 9 0
BBX 9 4 1 2
BITMAP
3000
7880
8F00
0600
ENDCHAR
STARTCHAR C383
ENCODING 383
SWIDTH 1008 0
DWIDTH 14 0
BBX 15 11 2 -2
BITMAP
FFEE
0918
0B18
1288
9D90
8110
8110
4210
3C20
3000
3000
ENDCHAR
STARTCHAR C384
ENCODING 384
SWIDTH 720 0
DWIDTH 10 0
BBX 11 9 2 0
BITMAP
FFE0
0700
3C80
4580
5F80
6500
1B00
0A00
0800
ENDCHAR
STARTCHAR C385
ENCODING 385
SWIDTH 576 0
DWIDTH 8 0
BBX 9 13 2 -1
BITMAP
6000
1E00
0100
FF80
0C00
7C00
D400
3400
1000
3C00
4C00
4800
3000
ENDCHAR
STARTCHAR C386
ENCODING 386
SWIDTH 720 0
DWIDTH 10 0
BBX 11 9 2 0
BITMAP
FFE0
1800
A700
E480
9B80
9F00
8400
8800
7000
ENDCHAR
STARTCHAR C387
ENCODING 387
SWIDTH 720 0
DWIDTH 10 0
BBX 11 9 2 0
BITMAP
FFE0
0700
3C80
4480
5D80
6400
1800
0800
0800
ENDCHAR
STARTCHAR C388
ENCODING 388
SWIDTH 648 0
DWIDTH 9 0
BBX 10 9 2 0
BITMAP
FFC0
1900
7500
DD00
3E00
1200
3A00
3600
0400
ENDCHAR
STARTCHAR C389
ENCODING 389
SWIDTH 864 0
DWIDTH 12 0
BBX 14 9 1 0
BITMAP
7FFC
0380
04E0
0890
5D70
8D60
8100
7D00
0200
ENDCHAR
STARTCHAR C390
ENCODING 390
SWIDTH 648 0
DWIDTH 9 0
BBX 11 9 1 0
BITMAP
7FE0
0300
1E80
3380
0B00
0400
6C00
D400
C400
ENDCHAR
STARTCHAR C391
ENCODING 391
SWIDTH 792 0
DWIDTH 11 0
BBX 12 9 2 0
BITMAP
FFF0
4A00
EB00
D680
15C0
7580
6C00
0C00
0800
ENDCHAR
STARTCHAR C392
ENCODING 392
SWIDTH 720 0
DWIDTH 10 0
BBX 11 10 2 -1
BITMAP
FFE0
4A00
FF00
D480
1780
7700
6800
E800
D800
0800
ENDCHAR
STARTCHAR C393
ENCODING 393
SWIDTH 864 0
DWIDTH 12 0
BBX 13 11 2 -2
BITMAP
FFF8
4A20
F7A0
D260
15C0
7DC0
6440
1E40
1980
1880
0080
ENDCHAR
STARTCHAR C394
ENCODING 394
SWIDTH 648 0
DWIDTH 9 0
BBX 10 9 2 0
BITMAP
FFC0
0900
7D00
DD00
3E00
1E00
B200
C200
0400
ENDCHAR
STARTCHAR C395
ENCODING 395
SWIDTH 648 0
DWIDTH 9 0
BBX 10 9 2 0
BITMAP
3BC0
4600
C400
2400
2400
1E00
6A00
1A00
0C00
ENDCHAR
STARTCHAR C396
ENCODING 396
SWIDTH 576 0
DWIDTH 8 0
BBX 9 9 2 0
BITMAP
3B80
4600
C600
2200
2400
2400
DC00
CC00
0800
ENDCHAR
STARTCHAR C397
ENCODING 397
SWIDTH 576 0
DWIDTH 8 0
BBX 9 9 2 0
BITMAP
3B80
4600
C600
2200
2400
1C00
2400
1400
0800
ENDCHAR
STARTCHAR C398
ENCODING 398
SWIDTH 720 0
DWIDTH 10 0
BBX 11 9 2 0
BITMAP
7BE0
8680
C680
2280
2500
0500
0D00
0F00
0200
ENDCHAR
STARTCHAR C399
ENCODING 399
SWIDTH 576 0
DWIDTH 8 0
BBX 10 9 1 0
BITMAP
1DC0
2300
7300
0900
1200
7600
8A00
C200
0400
ENDCHAR
STARTCHAR C400
ENCODING 400
SWIDTH 504 0
DWIDTH 7 0
BBX 8 10 2 -1
BITMAP
FF
44
94
64
C8
28
78
D8
D0
10
ENDCHAR
STARTCHAR C401
ENCODING 401
SWIDTH 576 0
DWIDTH 8 0
BBX 9 9 2 0
BITMAP
FF80
2900
D600
C800
1800
7400
9C00
5C00
3000
ENDCHAR
STARTCHAR C402
ENCODING 402
SWIDTH 1224 0
DWIDTH 17 0
BBX 18 9 2 0
BITMAP
0FFFC0
332800
BFAC00
A75A00
7A5700
45D600
39B000
003000
002000
ENDCHAR
STARTCHAR C403
ENCODING 403
SWIDTH 792 0
DWIDTH 11 0
BBX 12 9 2 0
BITMAP
CC70
7840
A040
BC40
4680
4A80
3480
0280
0100
ENDCHAR
STARTCHAR C404
ENCODING 404
SWIDTH 576 0
DWIDTH 8 0
BBX 10 9 1 0
BITMAP
7FC0
2900
7F00
6F00
0A00
1200
E400
0400
0400
ENDCHAR
STARTCHAR C405
ENCODING 405
SWIDTH 864 0
DWIDTH 12 0
BBX 14 9 2 0
BITMAP
4FFC
3210
BE10
A790
BB20
4720
38A0
0060
0040
ENDCHAR
STARTCHAR C406
ENCODING 406
SWIDTH 648 0
DWIDTH 9 0
BBX 10 9 2 0
BITMAP
4FC0
B900
A100
BD00
4600
4A00
3A00
3600
0400
ENDCHAR
STARTCHAR C407
ENCODING 407
SWIDTH 720 0
DWIDTH 10 0
BBX 11 9 2 0
BITMAP
FFE0
4800
A800
9F00
9900
B100
D200
1400
1800
ENDCHAR
STARTCHAR C408
ENCODING 408
SWIDTH 720 0
DWIDTH 10 0
BBX 11 9 2 0
BITMAP
FFE0
4800
AF00
9480
9880
A100
CE00
0400
0200
ENDCHAR
STARTCHAR C409
ENCODING 409
SWIDTH 720 0
DWIDTH 10 0
BBX 11 11 2 -2
BITMAP
FFE0
4800
BF00
9480
B900
CE00
0400
0200
1E00
0400
0400
ENDCHAR
STARTCHAR C410
ENCODING 410
SWIDTH 648 0
DWIDTH 9 0
BBX 11 9 1 0
BITMAP
7FE0
2000
3800
4800
5F00
6700
BB00
8E00
7800
ENDCHAR
STARTCHAR C411
ENCODING 411
SWIDTH 936 0
DWIDTH 13 0
BBX 14 9 2 0
BITMAP
FFFC
3000
CF00
FB20
8CE0
7BC0
08C0
0740
0040
ENDCHAR
STARTCHAR C412
ENCODING 412
SWIDTH 936 0
DWIDTH 13 0
BBX 14 11 2 -2
BITMAP
FFFC
3000
CF00
FB00
8CE0
7BA0
08C0
0740
01C0
0340
00C0
ENDCHAR
STARTCHAR C413
ENCODING 413
SWIDTH 1224 0
DWIDTH 17 0
BBX 18 9 2 0
BITMAP
FFFDC0
180500
AF1D00
A16900
9F8A00
864A00
462A00
3A1600
021400
ENDCHAR
STARTCHAR C414
ENCODING 414
SWIDTH 720 0
DWIDTH 10 0
BBX 12 8 1 1
BITMAP
7FF0
0C00
15C0
A640
9C80
4680
4700
3800
ENDCHAR
STARTCHAR C415
ENCODING 415
SWIDTH 720 0
DWIDTH 10 0
BBX 12 11 1 -2
BITMAP
7FF0
0800
1800
A780
9C80
4500
4500
3F00
0900
0500
0300
ENDCHAR
STARTCHAR C417
ENCODING 417
SWIDTH 576 0
DWIDTH 8 0
BBX 8 11 1 -2
BITMAP
37
6B
6B
39
4E
94
68
F0
30
08
04
ENDCHAR
STARTCHAR C418
ENCODING 418
SWIDTH 720 0
DWIDTH 10 0
BBX 9 10 2 0
BITMAP
0300
3C80
4980
7980
2880
C700
BE00
8600
7A00
0200
ENDCHAR
STARTCHAR C419
ENCODING 419
SWIDTH 648 0
DWIDTH 9 0
BBX 8 9 2 0
BITMAP
1F
25
AB
8E
78
3C
D4
38
18
ENDCHAR
STARTCHAR C420
ENCODING 420
SWIDTH 576 0
DWIDTH 8 0
BBX 10 13 1 -1
BITMAP
3000
0F00
0080
7FC0
1000
1000
2200
2200
2200
4400
CC00
F400
7800
ENDCHAR
STARTCHAR C421
ENCODING 421
SWIDTH 504 0
DWIDTH 7 0
BBX 8 15 2 -2
BITMAP
80
40
3C
02
FF
40
40
48
88
88
90
E0
70
30
10
ENDCHAR
STARTCHAR C422
ENCODING 422
SWIDTH 864 0
DWIDTH 12 0
BBX 14 9 2 0
BITMAP
FFFC
1080
2880
B520
8DD0
7810
0810
0420
03C0
ENDCHAR
STARTCHAR C423
ENCODING 423
SWIDTH 792 0
DWIDTH 11 0
BBX 12 12 2 0
BITMAP
0C00
03C0
0020
37F0
4C00
CC00
C980
0980
0880
1100
1200
1C00
ENDCHAR
STARTCHAR C424
ENCODING 424
SWIDTH 576 0
DWIDTH 8 0
BBX 6 14 2 0
BITMAP
04
04
08
08
08
38
48
4C
14
14
24
C4
88
70
ENDCHAR
STARTCHAR C425
ENCODING 425
SWIDTH 648 0
DWIDTH 9 0
BBX 8 9 2 0
BITMAP
38
67
E5
82
8C
8E
82
44
38
ENDCHAR
STARTCHAR C426
ENCODING 426
SWIDTH 504 0
DWIDTH 7 0
BBX 9 9 1 0
BITMAP
1B80
2600
6200
2200
3400
4C00
C400
4400
0800
ENDCHAR
STARTCHAR C427
ENCODING 427
SWIDTH 648 0
DWIDTH 9 0
BBX 10 9 2 0
BITMAP
37C0
4D00
C500
4900
0A00
1A00
1E00
0600
0400
ENDCHAR
STARTCHAR C428
ENCODING 428
SWIDTH 576 0
DWIDTH 8 0
BBX 9 9 2 0
BITMAP
FF80
1C00
2200
E200
9C00
9C00
8400
8800
7000
ENDCHAR
STARTCHAR C429
ENCODING 429
SWIDTH 576 0
DWIDTH 8 0
BBX 9 10 2 -1
BITMAP
FF80
1C00
E200
FC00
9C00
8400
4400
3800
6800
1800
ENDCHAR
STARTCHAR C430
ENCODING 430
SWIDTH 648 0
DWIDTH 9 0
BBX 9 9 3 0
BITMAP
4380
BA00
AA00
1200
E400
C400
0400
0400
0800
ENDCHAR
STARTCHAR C431
ENCODING 431
SWIDTH 576 0
DWIDTH 8 0
BBX 9 9 2 0
BITMAP
FF80
9C00
5A00
4200
2400
1C00
F800
C800
0800
ENDCHAR
STARTCHAR C432
ENCODING 432
SWIDTH 576 0
DWIDTH 8 0
BBX 9 9 2 0
BITMAP
FF80
9C00
9A00
4200
2400
1C00
3800
1800
0800
ENDCHAR
STARTCHAR C433
ENCODING 433
SWIDTH 720 0
DWIDTH 10 0
BBX 11 9 2 0
BITMAP
FFE0
9C80
5E80
4280
2500
1900
1D00
1B00
0200
ENDCHAR
STARTCHAR C434
ENCODING 434
SWIDTH 648 0
DWIDTH 9 0
BBX 11 9 1 0
BITMAP
7FE0
0380
0480
0880
5D00
8D00
8100
7D00
0200
ENDCHAR
STARTCHAR C435
ENCODING 435
SWIDTH 792 0
DWIDTH 11 0
BBX 13 9 1 0
BITMAP
7FF8
0700
0960
1160
5920
9BC0
8200
7A00
0600
ENDCHAR
STARTCHAR C436
ENCODING 436
SWIDTH 864 0
DWIDTH 12 0
BBX 13 9 2 0
BITMAP
FFB8
4460
8E60
9920
F340
9040
1040
2040
2080
ENDCHAR
STARTCHAR C437
ENCODING 437
SWIDTH 864 0
DWIDTH 12 0
BBX 13 9 2 0
BITMAP
FFF8
4420
8C20
9B20
F240
9E40
1140
20C0
2080
ENDCHAR
STARTCHAR C438
ENCODING 438
SWIDTH 576 0
DWIDTH 8 0
BBX 9 9 2 0
BITMAP
FF80
8000
B000
E400
2C00
3400
2800
0800
0800
ENDCHAR
STARTCHAR C439
ENCODING 439
SWIDTH 648 0
DWIDTH 9 0
BBX 10 9 2 0
BITMAP
FFC0
4000
8800
B400
CF00
7A00
CA00
2A00
1C00
ENDCHAR
STARTCHAR C440
ENCODING 440
SWIDTH 504 0
DWIDTH 7 0
BBX 8 9 2 0
BITMAP
FF
40
88
B4
C8
78
48
28
10
ENDCHAR
STARTCHAR C441
ENCODING 441
SWIDTH 648 0
DWIDTH 9 0
BBX 10 9 2 0
BITMAP
FFC0
4000
7800
D000
9000
B600
BA00
4400
3800
ENDCHAR
STARTCHAR C442
ENCODING 442
SWIDTH 648 0
DWIDTH 9 0
BBX 10 9 2 0
BITMAP
FFC0
4000
7800
D000
1400
BA00
B200
8200
7C00
ENDCHAR
STARTCHAR C443
ENCODING 443
SWIDTH 576 0
DWIDTH 8 0
BBX 9 9 2 0
BITMAP
FF80
8200
9A00
AA00
D400
1400
7400
6C00
0800
ENDCHAR
STARTCHAR C444
ENCODING 444
SWIDTH 504 0
DWIDTH 7 0
BBX 9 10 1 -1
BITMAP
1B80
2600
1A00
6200
1400
0C00
7400
CC00
C800
0800
ENDCHAR
STARTCHAR C445
ENCODING 445
SWIDTH 936 0
DWIDTH 13 0
BBX 14 9 2 0
BITMAP
33FC
4210
3E70
3590
C620
2520
14A0
0860
0840
ENDCHAR
STARTCHAR C446
ENCODING 446
SWIDTH 792 0
DWIDTH 11 0
BBX 12 12 2 0
BITMAP
0C00
03C0
0020
FFF0
0400
6C00
D980
C980
0880
1100
1200
1C00
ENDCHAR
STARTCHAR C447
ENCODING 447
SWIDTH 648 0
DWIDTH 9 0
BBX 10 9 2 0
BITMAP
FFC0
0800
F800
D200
9D00
8100
8100
4200
3C00
ENDCHAR
STARTCHAR C448
ENCODING 448
SWIDTH 648 0
DWIDTH 9 0
BBX 10 9 2 0
BITMAP
FFC0
0100
7100
E900
8E00
8E00
4E00
4200
3C00
ENDCHAR
STARTCHAR C449
ENCODING 449
SWIDTH 576 0
DWIDTH 8 0
BBX 9 10 2 -1
BITMAP
FF80
0400
E400
D800
3C00
E400
F800
9800
8800
7000
ENDCHAR
STARTCHAR C450
ENCODING 450
SWIDTH 576 0
DWIDTH 8 0
BBX 9 10 2 -1
BITMAP
FF80
0200
7200
EC00
9E00
9A00
4200
3C00
3800
1800
ENDCHAR
STARTCHAR C451
ENCODING 451
SWIDTH 648 0
DWIDTH 9 0
BBX 11 10 1 -1
BITMAP
7FE0
0080
3880
3700
0900
5900
9900
8200
7E00
0200
ENDCHAR
STARTCHAR C452
ENCODING 452
SWIDTH 576 0
DWIDTH 8 0
BBX 9 10 2 -1
BITMAP
FF80
0400
E400
D800
3800
2400
4400
3800
1000
0800
ENDCHAR
STARTCHAR C453
ENCODING 453
SWIDTH 648 0
DWIDTH 9 0
BBX 10 9 2 0
BITMAP
FFC0
0800
6900
D300
D600
1A00
0200
0400
0400
ENDCHAR
STARTCHAR C454
ENCODING 454
SWIDTH 648 0
DWIDTH 9 0
BBX 10 9 2 0
BITMAP
FFC0
0400
F400
CC00
0E00
3A00
6A00
1A00
1C00
ENDCHAR
STARTCHAR C455
ENCODING 455
SWIDTH 504 0
DWIDTH 7 0
BBX 9 9 1 0
BITMAP
7F80
0200
3A00
6600
6400
2400
DC00
CC00
0800
ENDCHAR
STARTCHAR C456
ENCODING 456
SWIDTH 576 0
DWIDTH 8 0
BBX 9 9 2 0
BITMAP
FF80
0200
7A00
C600
C400
1C00
2400
1400
0800
ENDCHAR
STARTCHAR C457
ENCODING 457
SWIDTH 648 0
DWIDTH 9 0
BBX 10 9 2 0
BITMAP
FFC0
0500
F500
C900
0A00
1A00
1E00
1E00
0400
ENDCHAR
STARTCHAR C458
ENCODING 458
SWIDTH 720 0
DWIDTH 10 0
BBX 11 9 2 0
BITMAP
FFE0
3080
0880
E880
DF00
9100
E100
0100
0200
ENDCHAR
STARTCHAR C459
ENCODING 459
SWIDTH 792 0
DWIDTH 11 0
BBX 12 12 2 0
BITMAP
0C00
03C0
0020
07F0
7400
DC00
6D80
0580
0880
0900
0A00
0C00
ENDCHAR
STARTCHAR C460
ENCODING 460
SWIDTH 648 0
DWIDTH 9 0
BBX 10 9 2 0
BITMAP
39C0
C500
2A00
B200
CE00
8E00
8E00
4200
3C00
ENDCHAR
STARTCHAR C461
ENCODING 461
SWIDTH 576 0
DWIDTH 8 0
BBX 9 9 2 0
BITMAP
3B80
C600
2E00
3200
4400
0400
7C00
6C00
0800
ENDCHAR
STARTCHAR C462
ENCODING 462
SWIDTH 576 0
DWIDTH 8 0
BBX 10 9 1 0
BITMAP
1DC0
6300
1F00
1100
2200
7A00
CE00
3600
6400
ENDCHAR
STARTCHAR C463
ENCODING 463
SWIDTH 576 0
DWIDTH 8 0
BBX 9 9 2 0
BITMAP
3B80
C600
2E00
3200
4400
6C00
9400
C400
0800
ENDCHAR
STARTCHAR C464
ENCODING 464
SWIDTH 720 0
DWIDTH 10 0
BBX 11 9 2 0
BITMAP
FFE0
3080
6880
F880
4F00
9100
E100
0100
0200
ENDCHAR
STARTCHAR C465
ENCODING 465
SWIDTH 648 0
DWIDTH 9 0
BBX 11 10 1 -1
BITMAP
7FE0
3300
0A80
1280
3380
0D00
6C00
D400
C400
0800
ENDCHAR
STARTCHAR C466
ENCODING 466
SWIDTH 720 0
DWIDTH 10 0
BBX 12 8 1 1
BITMAP
7FF0
0800
7FC0
9800
9E00
8200
4200
3C00
ENDCHAR
STARTCHAR C467
ENCODING 467
SWIDTH 648 0
DWIDTH 9 0
BBX 10 9 2 0
BITMAP
FFC0
0800
7100
D300
3E00
1200
0200
0400
0400
ENDCHAR
STARTCHAR C468
ENCODING 468
SWIDTH 648 0
DWIDTH 9 0
BBX 10 9 2 0
BITMAP
FFC0
0C00
3400
C600
7E00
CA00
2A00
1A00
1400
ENDCHAR
STARTCHAR C469
ENCODING 469
SWIDTH 504 0
DWIDTH 7 0
BBX 9 9 2 0
BITMAP
FF80
0600
3A00
C200
5C00
E400
2400
1400
0800
ENDCHAR
STARTCHAR C470
ENCODING 470
SWIDTH 504 0
DWIDTH 7 0
BBX 10 9 1 0
BITMAP
7FC0
0100
1F00
3100
0E00
7600
8A00
C200
0400
ENDCHAR
STARTCHAR C471
ENCODING 471
SWIDTH 720 0
DWIDTH 10 0
BBX 11 9 2 0
BITMAP
FFE0
0000
0100
7280
BC80
8100
8100
7F00
0200
ENDCHAR
STARTCHAR C472
ENCODING 472
SWIDTH 576 0
DWIDTH 8 0
BBX 10 10 1 -1
BITMAP
7FC0
5800
5F00
4900
2200
1E00
6A00
D400
C400
0400
ENDCHAR
STARTCHAR C473
ENCODING 473
SWIDTH 576 0
DWIDTH 8 0
BBX 9 9 2 0
BITMAP
FF80
2200
E200
D200
0C00
6400
DC00
CC00
0800
ENDCHAR
STARTCHAR C474
ENCODING 474
SWIDTH 1008 0
DWIDTH 14 0
BBX 15 9 2 0
BITMAP
FDEE
2618
E578
D988
0310
0010
0010
0010
0020
ENDCHAR
STARTCHAR C475
ENCODING 475
SWIDTH 936 0
DWIDTH 13 0
BBX 14 9 2 0
BITMAP
FFFC
4400
E460
DC50
0250
04A0
0C80
0280
0180
ENDCHAR
STARTCHAR C476
ENCODING 476
SWIDTH 576 0
DWIDTH 8 0
BBX 9 9 2 0
BITMAP
FF80
2200
E200
D200
0C00
3C00
6400
1400
0800
ENDCHAR
STARTCHAR C477
ENCODING 477
SWIDTH 648 0
DWIDTH 9 0
BBX 10 9 2 0
BITMAP
FFC0
2100
6100
7200
BC00
BE00
9200
4400
3800
ENDCHAR
STARTCHAR C478
ENCODING 478
SWIDTH 648 0
DWIDTH 9 0
BBX 10 9 2 0
BITMAP
FFC0
2100
7200
6C00
3600
BA00
B200
8200
7C00
ENDCHAR
STARTCHAR C479
ENCODING 479
SWIDTH 720 0
DWIDTH 10 0
BBX 11 9 2 0
BITMAP
FFE0
2280
E280
D280
0D00
0D00
0F00
0300
0200
ENDCHAR
STARTCHAR C480
ENCODING 480
SWIDTH 576 0
DWIDTH 8 0
BBX 10 9 1 0
BITMAP
7FC0
1100
7100
6900
0600
7600
8A00
C200
0400
ENDCHAR
STARTCHAR C481
ENCODING 481
SWIDTH 648 0
DWIDTH 9 0
BBX 10 9 2 0
BITMAP
FFC0
0400
6C00
D400
CC00
7A00
CE00
2E00
1800
ENDCHAR
STARTCHAR C482
ENCODING 482
SWIDTH 576 0
DWIDTH 8 0
BBX 9 9 2 0
BITMAP
FF80
0200
6E00
D600
F400
8C00
CC00
2400
4800
ENDCHAR
STARTCHAR C483
ENCODING 483
SWIDTH 576 0
DWIDTH 8 0
BBX 9 11 2 -2
BITMAP
FF80
6200
9C00
D400
F400
CC00
A400
DC00
9C00
8400
7800
ENDCHAR
STARTCHAR C484
ENCODING 484
SWIDTH 792 0
DWIDTH 11 0
BBX 12 12 2 0
BITMAP
0C00
03C0
0020
FFF0
0400
7C00
DD80
CD80
0880
0900
0A00
0C00
ENDCHAR
STARTCHAR C485
ENCODING 485
SWIDTH 720 0
DWIDTH 10 0
BBX 11 9 2 0
BITMAP
FFE0
6C00
9400
CD00
4E80
4080
4080
2100
1E00
ENDCHAR
STARTCHAR C486
ENCODING 486
SWIDTH 576 0
DWIDTH 8 0
BBX 10 9 1 0
BITMAP
7FC0
3B00
4500
6100
0200
7A00
EE00
3200
4400
ENDCHAR
STARTCHAR C487
ENCODING 487
SWIDTH 576 0
DWIDTH 8 0
BBX 9 9 2 0
BITMAP
FF80
0200
6A00
9600
C400
DC00
2400
1400
0800
ENDCHAR
STARTCHAR C488
ENCODING 488
SWIDTH 720 0
DWIDTH 10 0
BBX 11 9 2 0
BITMAP
FFE0
0280
6E80
D680
C500
0500
0D00
0F00
0200
ENDCHAR
STARTCHAR C489
ENCODING 489
SWIDTH 648 0
DWIDTH 9 0
BBX 11 9 1 0
BITMAP
7FE0
0080
3B80
6580
6100
7700
8900
C100
0200
ENDCHAR
STARTCHAR C490
ENCODING 490
SWIDTH 864 0
DWIDTH 12 0
BBX 13 9 2 0
BITMAP
C3F8
7A00
7600
F5C0
0440
0840
0880
0B00
0C00
ENDCHAR
STARTCHAR C491
ENCODING 491
SWIDTH 864 0
DWIDTH 12 0
BBX 13 9 2 0
BITMAP
C3F8
7E00
3BC0
7D20
0620
0040
0380
0100
0080
ENDCHAR
STARTCHAR C492
ENCODING 492
SWIDTH 576 0
DWIDTH 8 0
BBX 9 9 2 0
BITMAP
C380
7E00
3A00
7A00
0400
0400
7C00
6C00
0800
ENDCHAR
STARTCHAR C493
ENCODING 493
SWIDTH 720 0
DWIDTH 10 0
BBX 11 9 2 0
BITMAP
C3E0
7E80
7A80
FA80
0500
0500
0D00
0F00
0200
ENDCHAR
STARTCHAR C494
ENCODING 494
SWIDTH 576 0
DWIDTH 8 0
BBX 9 9 2 0
BITMAP
C380
7E00
3A00
7A00
0400
6C00
9400
C400
0800
ENDCHAR
STARTCHAR C495
ENCODING 495
SWIDTH 576 0
DWIDTH 8 0
BBX 9 9 2 0
BITMAP
C380
7E00
3A00
7A00
0400
1C00
2400
1400
0800
ENDCHAR
STARTCHAR C496
ENCODING 496
SWIDTH 576 0
DWIDTH 8 0
BBX 10 9 1 0
BITMAP
7FC0
1C00
3400
4C00
7600
CE00
2E00
1800
1800
ENDCHAR
STARTCHAR C497
ENCODING 497
SWIDTH 792 0
DWIDTH 11 0
BBX 12 10 2 -1
BITMAP
FFF0
3C00
6400
9E00
F200
B380
9580
8400
7C00
0400
ENDCHAR
STARTCHAR C498
ENCODING 498
SWIDTH 504 0
DWIDTH 7 0
BBX 9 13 2 -1
BITMAP
6000
1E00
0100
FF80
3C00
6400
9800
F000
4C00
8C00
8400
8800
7000
ENDCHAR
STARTCHAR C499
ENCODING 499
SWIDTH 576 0
DWIDTH 8 0
BBX 9 14 2 0
BITMAP
0400
0400
0800
0800
0800
FF80
3800
6C00
B400
F400
2400
C400
8800
7000
ENDCHAR
STARTCHAR C500
ENCODING 500
SWIDTH 792 0
DWIDTH 11 0
BBX 10 9 2 0
BITMAP
FE00
C580
2640
3580
4C40
CC40
2B80
1800
1800
ENDCHAR
STARTCHAR C501
ENCODING 501
SWIDTH 864 0
DWIDTH 12 0
BBX 13 9 2 0
BITMAP
FBB8
4C60
AAE0
9320
E440
0040
0040
0040
0080
ENDCHAR
STARTCHAR C502
ENCODING 502
SWIDTH 792 0
DWIDTH 11 0
BBX 12 9 2 0
BITMAP
FFF0
3800
6980
9940
E940
1280
3200
0A00
0600
ENDCHAR
STARTCHAR C503
ENCODING 503
SWIDTH 576 0
DWIDTH 8 0
BBX 9 9 2 0
BITMAP
FF80
3A00
6A00
9200
F400
7400
6C00
0C00
0800
ENDCHAR
STARTCHAR C504
ENCODING 504
SWIDTH 720 0
DWIDTH 10 0
BBX 11 9 2 0
BITMAP
FFE0
1100
2900
C600
0E00
3500
0F00
0F00
0400
ENDCHAR
STARTCHAR C505
ENCODING 505
SWIDTH 864 0
DWIDTH 12 0
BBX 13 10 2 -1
BITMAP
FFF8
1900
1900
6700
0900
5BC0
9AC0
8200
7A00
0400
ENDCHAR
STARTCHAR C506
ENCODING 506
SWIDTH 720 0
DWIDTH 10 0
BBX 11 11 2 -2
BITMAP
FFE0
1100
2900
C600
0E00
3300
0F00
6400
9C00
C400
0800
ENDCHAR
STARTCHAR C507
ENCODING 507
SWIDTH 792 0
DWIDTH 11 0
BBX 12 9 2 0
BITMAP
FC70
3240
3240
CC40
1E80
1A80
0C80
0E80
0100
ENDCHAR
STARTCHAR C508
ENCODING 508
SWIDTH 792 0
DWIDTH 11 0
BBX 13 12 2 0
BITMAP
0C00
03E0
0010
FFF8
4200
2200
3EC0
A6C0
C440
0480
0500
0600
ENDCHAR
STARTCHAR C509
ENCODING 509
SWIDTH 648 0
DWIDTH 9 0
BBX 10 9 2 0
BITMAP
FFC0
1900
1900
E700
8E00
8E00
4200
4400
3800
ENDCHAR
STARTCHAR C510
ENCODING 510
SWIDTH 576 0
DWIDTH 8 0
BBX 9 10 2 -1
BITMAP
FF80
3200
3200
CC00
3C00
E400
F800
9800
8800
7000
ENDCHAR
STARTCHAR C511
ENCODING 511
SWIDTH 648 0
DWIDTH 9 0
BBX 11 10 1 -1
BITMAP
7FE0
0C80
0C80
3700
0900
5900
9900
8200
7E00
0200
ENDCHAR
ENDFONT
