STARTFONT 2.1
COMMENT This font image translated from Metafont
COMMENT Input file was ``bnsl10''
COMMENT DPI was ``120'', usermag ``1000'', blackness ``3''
COMMENT shrink was 1
FONT -*-bengali2-medium-o-*-*-*-120-*-*-*-*-iso10646-1
SIZE 10 120 120
FONTBOUNDINGBOX 32 21 -9 -5
STARTPROPERTIES 5
FONT_ASCENT 16
FONT_DESCENT 3
COPYRIGHT "GNU General Public License"
DEFAULT_CHAR 319
_XMBDFED_INFO "Edited with xmbdfed 4.5."
ENDPROPERTIES
CHARS 249
STARTCHAR C257
ENCODING 257
SWIDTH 480 0
DWIDTH 8 0
BBX 9 16 2 -1
BITMAP
8000
8000
7E00
0100
0100
FF80
1C00
7200
0200
0200
8400
7800
2000
1000
0800
0400
ENDCHAR
STARTCHAR C258
ENCODING 258
SWIDTH 600 0
DWIDTH 10 0
BBX 11 15 2 0
BITMAP
4000
4000
3F80
0040
0040
FFE0
3000
6880
6B80
0D00
1900
6200
8200
0200
0200
ENDCHAR
STARTCHAR C259
ENCODING 259
SWIDTH 600 0
DWIDTH 10 0
BBX 11 14 2 1
BITMAP
8000
C000
3F80
0040
0040
FFE0
4400
8800
8980
8E80
8080
8080
4100
3E00
ENDCHAR
STARTCHAR C260
ENCODING 260
SWIDTH 660 0
DWIDTH 11 0
BBX 12 14 2 1
BITMAP
4000
4000
3FC0
0020
0020
FFF0
2200
A400
A4C0
A740
6040
6040
3180
1E00
ENDCHAR
STARTCHAR C261
ENCODING 261
SWIDTH 720 0
DWIDTH 12 0
BBX 10 10 3 0
BITMAP
CE40
F640
1A40
2240
C480
C480
2680
1580
1900
0800
ENDCHAR
STARTCHAR C262
ENCODING 262
SWIDTH 660 0
DWIDTH 11 0
BBX 10 10 2 0
BITMAP
03C0
0440
0840
4C80
8C80
8080
8080
7E80
0100
0100
ENDCHAR
STARTCHAR C263
ENCODING 263
SWIDTH 780 0
DWIDTH 13 0
BBX 13 15 2 0
BITMAP
0200
0400
0400
03F0
0008
03C8
0448
0850
4CE0
8C80
8080
8080
7F00
0100
0100
ENDCHAR
STARTCHAR C264
ENCODING 264
SWIDTH 600 0
DWIDTH 10 0
BBX 9 9 2 1
BITMAP
0700
5880
B880
8700
8600
8100
8100
4200
3C00
ENDCHAR
STARTCHAR C270
ENCODING 270
SWIDTH 300 0
DWIDTH 5 0
BBX 7 10 1 0
BITMAP
7E
08
10
10
10
10
20
20
20
C0
ENDCHAR
STARTCHAR C271
ENCODING 271
SWIDTH 0 0
DWIDTH 0 0
BBX 8 3 -9 -1
BITMAP
80
81
FF
ENDCHAR
STARTCHAR C272
ENCODING 272
SWIDTH 600 0
DWIDTH 10 0
BBX 11 11 2 -1
BITMAP
FFE0
1880
1880
E700
1900
1100
0200
3C00
1800
0400
0200
ENDCHAR
STARTCHAR C273
ENCODING 273
SWIDTH 600 0
DWIDTH 10 0
BBX 12 10 2 0
BITMAP
FFF0
0C20
1440
6380
0080
0080
7C80
6280
6100
0100
ENDCHAR
STARTCHAR C274
ENCODING 274
SWIDTH 1140 0
DWIDTH 19 0
BBX 20 10 2 0
BITMAP
FF9E70
18E140
1492C0
631C40
003080
002080
000080
000080
000100
000100
ENDCHAR
STARTCHAR C275
ENCODING 275
SWIDTH 1140 0
DWIDTH 19 0
BBX 20 10 2 0
BITMAP
FF9E70
18E140
1492C0
631C40
003080
003880
004780
006480
006100
000100
ENDCHAR
STARTCHAR C276
ENCODING 276
SWIDTH 1020 0
DWIDTH 17 0
BBX 18 10 2 0
BITMAP
FFFFC0
088600
148500
638900
004900
008E00
038E00
005000
003000
001000
ENDCHAR
STARTCHAR C277
ENCODING 277
SWIDTH 600 0
DWIDTH 10 0
BBX 12 10 2 0
BITMAP
FFF0
0C20
1440
6380
0080
0F80
3080
0C80
0300
0100
ENDCHAR
STARTCHAR C278
ENCODING 278
SWIDTH 780 0
DWIDTH 13 0
BBX 14 10 2 0
BITMAP
FFFC
0C50
1450
6390
00A0
0120
07A0
0760
0040
0040
ENDCHAR
STARTCHAR C279
ENCODING 279
SWIDTH 600 0
DWIDTH 10 0
BBX 12 10 2 0
BITMAP
FFF0
0C20
1440
6380
0080
7880
8780
E480
E100
0100
ENDCHAR
STARTCHAR C280
ENCODING 280
SWIDTH 480 0
DWIDTH 8 0
BBX 10 11 1 -1
BITMAP
7FC0
1E00
3100
0100
0200
3C00
0800
3400
4E00
C400
0800
ENDCHAR
STARTCHAR C281
ENCODING 281
SWIDTH 720 0
DWIDTH 12 0
BBX 14 10 2 0
BITMAP
FFFC
0100
0560
1170
4110
63E0
1200
0A00
2600
2400
ENDCHAR
STARTCHAR C282
ENCODING 282
SWIDTH 720 0
DWIDTH 12 0
BBX 13 10 2 0
BITMAP
FFF8
0100
05C0
1120
4120
6240
1240
0A40
2680
2480
ENDCHAR
STARTCHAR C283
ENCODING 283
SWIDTH 540 0
DWIDTH 9 0
BBX 10 11 2 -1
BITMAP
FFC0
3200
6D00
6500
6100
0200
FC00
2000
1800
0400
0200
ENDCHAR
STARTCHAR C284
ENCODING 284
SWIDTH 660 0
DWIDTH 11 0
BBX 12 11 2 -1
BITMAP
FFF0
1C00
7280
0340
0240
0480
7880
2080
1900
0500
0400
ENDCHAR
STARTCHAR C285
ENCODING 285
SWIDTH 720 0
DWIDTH 12 0
BBX 9 10 3 0
BITMAP
1C80
B380
C980
8880
B300
8380
8080
8080
4100
3E00
ENDCHAR
STARTCHAR C286
ENCODING 286
SWIDTH 720 0
DWIDTH 12 0
BBX 9 10 3 0
BITMAP
EE80
B980
F980
F880
8300
8380
8080
8080
4100
3E00
ENDCHAR
STARTCHAR C287
ENCODING 287
SWIDTH 660 0
DWIDTH 11 0
BBX 12 10 2 0
BITMAP
FFF0
1C00
7380
03C0
03C0
8400
7800
1000
0800
0400
ENDCHAR
STARTCHAR C288
ENCODING 288
SWIDTH 420 0
DWIDTH 7 0
BBX 0 0 0 0
BITMAP
ENDCHAR
STARTCHAR C289
ENCODING 289
SWIDTH 600 0
DWIDTH 10 0
BBX 5 13 6 -2
BITMAP
18
18
10
30
30
20
60
60
40
00
00
C0
C0
ENDCHAR
STARTCHAR C290
ENCODING 290
SWIDTH 420 0
DWIDTH 7 0
BBX 7 6 3 7
BITMAP
7E
7E
12
24
48
80
ENDCHAR
STARTCHAR C291
ENCODING 291
SWIDTH 540 0
DWIDTH 9 0
BBX 9 12 1 -2
BITMAP
0480
0500
0900
0A00
7F80
1400
1400
FF00
2800
4800
5000
9000
ENDCHAR
STARTCHAR C292
ENCODING 292
SWIDTH 660 0
DWIDTH 11 0
BBX 11 14 1 -1
BITMAP
0080
0100
0100
0200
0400
0400
0800
0BE0
1000
2000
2000
4000
4000
8000
ENDCHAR
STARTCHAR C293
ENCODING 293
SWIDTH 720 0
DWIDTH 12 0
BBX 11 15 2 -1
BITMAP
1800
2C20
27E0
4440
4480
4900
4A00
3400
0580
0A40
1440
2440
4440
8480
8300
ENDCHAR
STARTCHAR C294
ENCODING 294
SWIDTH 480 0
DWIDTH 8 0
BBX 8 12 3 -1
BITMAP
30
6B
CC
14
E4
24
18
18
68
C8
30
10
ENDCHAR
STARTCHAR C295
ENCODING 295
SWIDTH 300 0
DWIDTH 5 0
BBX 3 5 4 8
BITMAP
E0
E0
20
40
80
ENDCHAR
STARTCHAR C296
ENCODING 296
SWIDTH 300 0
DWIDTH 5 0
BBX 6 16 2 -3
BITMAP
04
08
10
30
20
60
40
40
80
80
80
80
80
80
40
40
ENDCHAR
STARTCHAR C297
ENCODING 297
SWIDTH 300 0
DWIDTH 5 0
BBX 6 16 0 -3
BITMAP
18
08
0C
0C
0C
0C
0C
0C
0C
18
18
30
30
60
C0
80
ENDCHAR
STARTCHAR C298
ENCODING 298
SWIDTH 480 0
DWIDTH 8 0
BBX 7 8 3 5
BITMAP
08
52
3C
10
78
A4
20
20
ENDCHAR
STARTCHAR C299
ENCODING 299
SWIDTH 660 0
DWIDTH 11 0
BBX 10 10 2 0
BITMAP
0400
0400
0400
0400
0800
FFC0
0800
0800
1000
1000
ENDCHAR
STARTCHAR C300
ENCODING 300
SWIDTH 360 0
DWIDTH 6 0
BBX 3 5 2 -3
BITMAP
E0
E0
20
40
80
ENDCHAR
STARTCHAR C301
ENCODING 301
SWIDTH 360 0
DWIDTH 6 0
BBX 6 1 1 4
BITMAP
FC
ENDCHAR
STARTCHAR C302
ENCODING 302
SWIDTH 480 0
DWIDTH 8 0
BBX 3 10 6 0
BITMAP
20
20
20
20
40
40
40
40
80
80
ENDCHAR
STARTCHAR C303
ENCODING 303
SWIDTH 300 0
DWIDTH 5 0
BBX 7 12 0 -2
BITMAP
02
02
04
08
08
10
10
20
20
40
80
80
ENDCHAR
STARTCHAR C304
ENCODING 304
SWIDTH 540 0
DWIDTH 9 0
BBX 8 8 2 1
BITMAP
1E
21
41
81
81
82
84
78
ENDCHAR
STARTCHAR C305
ENCODING 305
SWIDTH 540 0
DWIDTH 9 0
BBX 6 10 3 0
BITMAP
40
80
40
30
08
04
04
74
F8
E0
ENDCHAR
STARTCHAR C306
ENCODING 306
SWIDTH 540 0
DWIDTH 9 0
BBX 7 11 2 -1
BITMAP
20
30
0C
02
02
84
F8
20
10
08
04
ENDCHAR
STARTCHAR C307
ENCODING 307
SWIDTH 540 0
DWIDTH 9 0
BBX 8 7 2 1
BITMAP
84
9E
9D
81
41
42
3C
ENDCHAR
STARTCHAR C308
ENCODING 308
SWIDTH 540 0
DWIDTH 9 0
BBX 8 10 2 0
BITMAP
1E
21
41
42
3C
3C
42
82
84
78
ENDCHAR
STARTCHAR C309
ENCODING 309
SWIDTH 540 0
DWIDTH 9 0
BBX 9 10 1 0
BITMAP
0C00
1400
2380
4100
4200
8400
8800
8800
4800
3C00
ENDCHAR
STARTCHAR C310
ENCODING 310
SWIDTH 540 0
DWIDTH 9 0
BBX 8 9 2 1
BITMAP
10
08
88
91
97
99
81
42
3C
ENDCHAR
STARTCHAR C311
ENCODING 311
SWIDTH 540 0
DWIDTH 9 0
BBX 6 10 3 0
BITMAP
38
44
84
FC
04
08
08
08
08
08
ENDCHAR
STARTCHAR C312
ENCODING 312
SWIDTH 540 0
DWIDTH 9 0
BBX 9 10 1 0
BITMAP
2000
2000
2000
4080
7F00
4400
4400
8800
9000
E000
ENDCHAR
STARTCHAR C313
ENCODING 313
SWIDTH 540 0
DWIDTH 9 0
BBX 8 10 1 0
BITMAP
20
20
10
0C
02
01
71
89
C5
C6
ENDCHAR
STARTCHAR C314
ENCODING 314
SWIDTH 420 0
DWIDTH 7 0
BBX 4 8 4 1
BITMAP
30
70
60
00
00
00
C0
C0
ENDCHAR
STARTCHAR C315
ENCODING 315
SWIDTH 360 0
DWIDTH 6 0
BBX 4 9 2 -3
BITMAP
30
70
60
00
E0
E0
20
40
80
ENDCHAR
STARTCHAR C316
ENCODING 316
SWIDTH 720 0
DWIDTH 12 0
BBX 7 10 7 0
BITMAP
22
22
42
44
44
44
84
88
88
88
ENDCHAR
STARTCHAR C317
ENCODING 317
SWIDTH 720 0
DWIDTH 12 0
BBX 12 5 1 2
BITMAP
7FF0
0000
0000
0000
FFE0
ENDCHAR
STARTCHAR C318
ENCODING 318
SWIDTH 480 0
DWIDTH 8 0
BBX 9 11 2 -1
BITMAP
FF80
3C00
6200
0200
0400
7800
1000
0800
7C00
E800
1000
ENDCHAR
STARTCHAR C319
ENCODING 319
SWIDTH 780 0
DWIDTH 13 0
BBX 6 12 8 -1
BITMAP
38
E4
E4
04
08
10
20
20
40
00
C0
C0
ENDCHAR
STARTCHAR C320
ENCODING 320
SWIDTH 660 0
DWIDTH 11 0
BBX 12 11 2 -1
BITMAP
FFF0
0400
F400
CDC0
0E40
0880
0180
0680
0D00
0300
0100
ENDCHAR
STARTCHAR C321
ENCODING 321
SWIDTH 300 0
DWIDTH 5 0
BBX 6 10 2 0
BITMAP
FC
20
20
20
40
40
40
40
80
80
ENDCHAR
STARTCHAR C322
ENCODING 322
SWIDTH 540 0
DWIDTH 9 0
BBX 7 10 2 0
BITMAP
3C
62
9C
80
80
40
38
04
02
02
ENDCHAR
STARTCHAR C323
ENCODING 323
SWIDTH 540 0
DWIDTH 9 0
BBX 10 11 2 -1
BITMAP
FFC0
4000
7C00
8A00
9200
E200
0C00
F000
1800
0400
0200
ENDCHAR
STARTCHAR C324
ENCODING 324
SWIDTH 600 0
DWIDTH 10 0
BBX 11 9 2 1
BITMAP
FFE0
4400
8800
8980
8E80
8080
8080
4100
3E00
ENDCHAR
STARTCHAR C325
ENCODING 325
SWIDTH 300 0
DWIDTH 5 0
BBX 7 15 1 -1
BITMAP
80
7C
02
02
7E
08
10
20
20
40
40
40
40
38
10
ENDCHAR
STARTCHAR C326
ENCODING 326
SWIDTH 540 0
DWIDTH 9 0
BBX 10 10 2 0
BITMAP
FFC0
2100
1100
1900
6600
E200
1200
0A00
0400
0400
ENDCHAR
STARTCHAR C327
ENCODING 327
SWIDTH 540 0
DWIDTH 9 0
BBX 10 10 2 0
BITMAP
FFC0
4100
4100
3900
3200
4200
E200
1200
0C00
0400
ENDCHAR
STARTCHAR C328
ENCODING 328
SWIDTH 360 0
DWIDTH 6 0
BBX 5 9 2 1
BITMAP
30
48
48
30
00
60
90
90
60
ENDCHAR
STARTCHAR C329
ENCODING 329
SWIDTH 240 0
DWIDTH 4 0
BBX 12 15 -5 0
BITMAP
7F00
8080
8040
7E40
0240
02F0
0040
0040
0040
0080
0080
0080
0080
0100
0100
ENDCHAR
STARTCHAR C330
ENCODING 330
SWIDTH 660 0
DWIDTH 11 0
BBX 12 10 2 0
BITMAP
FF70
0740
0A40
3240
4280
6280
1680
0D80
0D00
0C00
ENDCHAR
STARTCHAR C331
ENCODING 331
SWIDTH 600 0
DWIDTH 10 0
BBX 11 10 2 0
BITMAP
0CE0
F280
E280
0480
3900
7100
0900
0500
0600
0200
ENDCHAR
STARTCHAR C332
ENCODING 332
SWIDTH 720 0
DWIDTH 12 0
BBX 14 10 2 0
BITMAP
FFFC
2040
7FF0
6490
0490
18A0
3D20
3320
0140
0100
ENDCHAR
STARTCHAR C333
ENCODING 333
SWIDTH 420 0
DWIDTH 7 0
BBX 5 9 3 1
BITMAP
30
48
48
30
80
C0
40
20
20
ENDCHAR
STARTCHAR C334
ENCODING 334
SWIDTH 540 0
DWIDTH 9 0
BBX 10 10 2 0
BITMAP
3DC0
4300
8100
B100
7200
0200
0200
0200
0400
0400
ENDCHAR
STARTCHAR C335
ENCODING 335
SWIDTH 240 0
DWIDTH 4 0
BBX 11 15 -4 0
BITMAP
8000
8000
7F80
0040
0040
01E0
0080
0080
0080
0100
0100
0100
0100
0200
0200
ENDCHAR
STARTCHAR C336
ENCODING 336
SWIDTH 780 0
DWIDTH 13 0
BBX 12 11 2 0
BITMAP
0100
3960
6590
6510
0A60
7270
E210
1310
0CE0
0C00
0400
ENDCHAR
STARTCHAR C337
ENCODING 337
SWIDTH 900 0
DWIDTH 15 0
BBX 14 10 2 0
BITMAP
01C0
0678
0844
5C84
9C98
8098
8088
7F88
0170
0100
ENDCHAR
STARTCHAR C338
ENCODING 338
SWIDTH 600 0
DWIDTH 10 0
BBX 11 12 2 -2
BITMAP
FFE0
4400
8800
8980
8E80
8080
8080
4100
3E00
0000
3000
3000
ENDCHAR
STARTCHAR C339
ENCODING 339
SWIDTH 600 0
DWIDTH 10 0
BBX 11 10 2 0
BITMAP
CEE0
3180
3080
7880
D900
0100
0100
0100
0200
0200
ENDCHAR
STARTCHAR C340
ENCODING 340
SWIDTH 480 0
DWIDTH 8 0
BBX 9 15 2 0
BITMAP
8000
8000
7E00
0100
0100
FF80
4000
4000
4C00
4E00
4400
8400
8800
B000
C000
ENDCHAR
STARTCHAR C341
ENCODING 341
SWIDTH 0 0
DWIDTH 0 0
BBX 7 6 -5 -5
BITMAP
70
80
80
78
04
02
ENDCHAR
STARTCHAR C342
ENCODING 342
SWIDTH 480 0
DWIDTH 8 0
BBX 9 12 2 -2
BITMAP
FF80
4000
4000
4C00
4E00
4400
8400
8800
B000
C000
C000
C000
ENDCHAR
STARTCHAR C343
ENCODING 343
SWIDTH 0 0
DWIDTH 0 0
BBX 3 3 -4 -3
BITMAP
40
80
60
ENDCHAR
STARTCHAR C344
ENCODING 344
SWIDTH 480 0
DWIDTH 8 0
BBX 9 10 2 0
BITMAP
FF80
4000
4000
4C00
4E00
4400
8400
8800
B000
C000
ENDCHAR
STARTCHAR C345
ENCODING 345
SWIDTH 540 0
DWIDTH 9 0
BBX 10 10 2 0
BITMAP
FFC0
2100
1100
1100
6200
E200
1200
0A00
0400
0400
ENDCHAR
STARTCHAR C346
ENCODING 346
SWIDTH 480 0
DWIDTH 8 0
BBX 9 15 2 0
BITMAP
0800
0800
0800
0800
0400
FF80
0400
0600
0A00
0A00
1200
6400
8400
8800
7000
ENDCHAR
STARTCHAR C347
ENCODING 347
SWIDTH 180 0
DWIDTH 3 0
BBX 7 17 0 -3
BITMAP
0E
1C
18
18
18
30
30
30
30
60
60
60
60
E0
C0
C0
E0
ENDCHAR
STARTCHAR C348
ENCODING 348
SWIDTH 420 0
DWIDTH 7 0
BBX 7 6 3 7
BITMAP
22
44
48
FC
FC
CC
ENDCHAR
STARTCHAR C349
ENCODING 349
SWIDTH 180 0
DWIDTH 3 0
BBX 7 17 -1 -3
BITMAP
0E
0C
0C
0C
0C
08
18
18
18
10
30
30
30
20
60
E0
E0
ENDCHAR
STARTCHAR C350
ENCODING 350
SWIDTH 0 0
DWIDTH 0 0
BBX 7 4 0 11
BITMAP
02
0C
30
C0
ENDCHAR
STARTCHAR C351
ENCODING 351
SWIDTH 0 0
DWIDTH 0 0
BBX 3 3 -2 -4
BITMAP
80
40
20
ENDCHAR
STARTCHAR C352
ENCODING 352
SWIDTH 300 0
DWIDTH 5 0
BBX 3 6 3 7
BITMAP
20
40
40
E0
E0
C0
ENDCHAR
STARTCHAR C353
ENCODING 353
SWIDTH 780 0
DWIDTH 13 0
BBX 14 10 2 0
BITMAP
FFFC
4E10
5D10
5C90
40A0
40A0
20A0
21A0
1E40
0040
ENDCHAR
STARTCHAR C354
ENCODING 354
SWIDTH 480 0
DWIDTH 8 0
BBX 10 10 2 0
BITMAP
FFC0
0100
0D00
3100
4200
E200
1200
0A00
0400
0400
ENDCHAR
STARTCHAR C355
ENCODING 355
SWIDTH 480 0
DWIDTH 8 0
BBX 9 10 2 0
BITMAP
FF80
6000
6000
5800
4600
4400
8400
8800
B000
C000
ENDCHAR
STARTCHAR C356
ENCODING 356
SWIDTH 480 0
DWIDTH 8 0
BBX 9 10 2 0
BITMAP
FF80
4000
4200
8E00
B400
C400
0800
0800
0800
0800
ENDCHAR
STARTCHAR C357
ENCODING 357
SWIDTH 300 0
DWIDTH 5 0
BBX 6 11 2 -1
BITMAP
FC
10
20
40
40
80
80
80
80
70
20
ENDCHAR
STARTCHAR C358
ENCODING 358
SWIDTH 660 0
DWIDTH 11 0
BBX 12 10 2 0
BITMAP
FFF0
2000
1180
1240
23C0
E380
1200
0C00
0C00
0400
ENDCHAR
STARTCHAR C359
ENCODING 359
SWIDTH 540 0
DWIDTH 9 0
BBX 10 10 2 0
BITMAP
3DC0
4300
F300
8900
0A00
1200
6200
0200
0400
0400
ENDCHAR
STARTCHAR C360
ENCODING 360
SWIDTH 480 0
DWIDTH 8 0
BBX 9 11 2 -1
BITMAP
FF80
1C00
7200
0200
0200
8400
7800
2000
1000
0800
0400
ENDCHAR
STARTCHAR C361
ENCODING 361
SWIDTH 240 0
DWIDTH 4 0
BBX 13 15 2 0
BITMAP
0F80
1060
2010
2008
2000
FC00
2000
2000
2000
2000
4000
4000
4000
4000
8000
ENDCHAR
STARTCHAR C362
ENCODING 362
SWIDTH 720 0
DWIDTH 12 0
BBX 13 10 2 0
BITMAP
FFF8
0C00
97E0
A040
A640
9980
8180
4280
3C80
0080
ENDCHAR
STARTCHAR C363
ENCODING 363
SWIDTH 720 0
DWIDTH 12 0
BBX 13 10 2 0
BITMAP
FFF8
0180
0540
1100
4200
62C0
12C0
0A00
0400
0400
ENDCHAR
STARTCHAR C364
ENCODING 364
SWIDTH 600 0
DWIDTH 10 0
BBX 11 10 2 0
BITMAP
FFE0
0080
3680
4980
8900
B100
7100
0100
0200
0200
ENDCHAR
STARTCHAR C365
ENCODING 365
SWIDTH 540 0
DWIDTH 9 0
BBX 10 10 2 0
BITMAP
FFC0
4100
4100
2100
1200
7200
7A00
6600
0400
0400
ENDCHAR
STARTCHAR C366
ENCODING 366
SWIDTH 540 0
DWIDTH 9 0
BBX 10 10 2 0
BITMAP
FFC0
0100
0100
0100
7200
EA00
C600
0600
0400
0400
ENDCHAR
STARTCHAR C367
ENCODING 367
SWIDTH 660 0
DWIDTH 11 0
BBX 11 14 2 1
BITMAP
0400
0400
0400
03C0
0020
0F20
78A0
B8C0
8780
8600
8100
8100
4200
3C00
ENDCHAR
STARTCHAR C368
ENCODING 368
SWIDTH 600 0
DWIDTH 10 0
BBX 10 10 3 0
BITMAP
79C0
C500
2F00
3100
6200
0200
0200
0200
0400
0400
ENDCHAR
STARTCHAR C369
ENCODING 369
SWIDTH 600 0
DWIDTH 10 0
BBX 9 10 2 1
BITMAP
0300
2480
6900
9E00
9100
9300
9D00
8100
4200
3C00
ENDCHAR
STARTCHAR C370
ENCODING 370
SWIDTH 480 0
DWIDTH 8 0
BBX 10 10 2 0
BITMAP
FFC0
0100
0D00
3100
4200
E200
1200
0A00
6400
6400
ENDCHAR
STARTCHAR C371
ENCODING 371
SWIDTH 600 0
DWIDTH 10 0
BBX 11 10 2 0
BITMAP
FFE0
1080
1080
0E80
0B00
9100
E100
0100
0200
0200
ENDCHAR
STARTCHAR C372
ENCODING 372
SWIDTH 600 0
DWIDTH 10 0
BBX 11 9 2 1
BITMAP
FFE0
8000
8F00
8C80
8C80
4080
4100
2200
1C00
ENDCHAR
STARTCHAR C373
ENCODING 373
SWIDTH 0 0
DWIDTH 0 0
BBX 7 4 -6 -4
BITMAP
78
88
74
02
ENDCHAR
STARTCHAR C374
ENCODING 374
SWIDTH 600 0
DWIDTH 10 0
BBX 12 9 2 1
BITMAP
FFF0
8000
8C00
9C80
9F40
4040
4040
2180
1E00
ENDCHAR
STARTCHAR C375
ENCODING 375
SWIDTH 0 0
DWIDTH 0 0
BBX 6 4 -1 11
BITMAP
B4
B4
88
70
ENDCHAR
STARTCHAR C376
ENCODING 376
SWIDTH 540 0
DWIDTH 9 0
BBX 9 11 3 0
BITMAP
3000
7380
4200
3A00
2200
8400
C400
2400
1400
0800
0800
ENDCHAR
STARTCHAR C377
ENCODING 377
SWIDTH 540 0
DWIDTH 9 0
BBX 10 10 2 0
BITMAP
FFC0
2100
1100
1100
6200
E200
1200
0A00
6400
6400
ENDCHAR
STARTCHAR C378
ENCODING 378
SWIDTH 600 0
DWIDTH 10 0
BBX 10 10 3 0
BITMAP
79C0
C500
C500
0900
7200
C200
0200
0200
0400
0400
ENDCHAR
STARTCHAR C379
ENCODING 379
SWIDTH 600 0
DWIDTH 10 0
BBX 11 1 1 4
BITMAP
FFE0
ENDCHAR
STARTCHAR C380
ENCODING 380
SWIDTH 1080 0
DWIDTH 18 0
BBX 19 1 1 4
BITMAP
FFFFE0
ENDCHAR
STARTCHAR C381
ENCODING 381
SWIDTH 480 0
DWIDTH 8 0
BBX 10 11 1 -1
BITMAP
7FC0
1E00
3100
0100
0200
3C00
0800
6C00
9600
C400
C400
ENDCHAR
STARTCHAR C382
ENCODING 382
SWIDTH 660 0
DWIDTH 11 0
BBX 10 4 2 3
BITMAP
3000
F840
8F80
0700
ENDCHAR
STARTCHAR C383
ENCODING 383
SWIDTH 960 0
DWIDTH 16 0
BBX 17 12 2 -2
BITMAP
FFFB80
048600
09C600
092200
8EA400
80C400
808400
810400
420800
3C0800
180000
180000
ENDCHAR
STARTCHAR C384
ENCODING 384
SWIDTH 720 0
DWIDTH 12 0
BBX 13 10 2 0
BITMAP
FFF8
07C0
1920
6160
47E0
3A40
6240
1380
0D80
0400
ENDCHAR
STARTCHAR C385
ENCODING 385
SWIDTH 540 0
DWIDTH 9 0
BBX 10 16 2 -1
BITMAP
4000
2000
0F00
0080
0080
FFC0
0E00
3500
EE00
1E00
0800
1C00
2E00
4400
4400
3800
ENDCHAR
STARTCHAR C386
ENCODING 386
SWIDTH 720 0
DWIDTH 12 0
BBX 14 10 2 0
BITMAP
FFFC
0F00
10E0
B190
BF70
8E60
8100
4100
4200
3C00
ENDCHAR
STARTCHAR C387
ENCODING 387
SWIDTH 720 0
DWIDTH 12 0
BBX 13 10 2 0
BITMAP
FFF8
07C0
1920
6120
46E0
3AC0
6200
1200
0C00
0400
ENDCHAR
STARTCHAR C388
ENCODING 388
SWIDTH 660 0
DWIDTH 11 0
BBX 12 10 2 0
BITMAP
FFF0
1E40
6540
EB40
1A80
0880
1C80
1E80
0100
0100
ENDCHAR
STARTCHAR C389
ENCODING 389
SWIDTH 840 0
DWIDTH 14 0
BBX 15 10 2 0
BITMAP
FFFE
0700
08B0
10C8
9CB8
8D30
8100
8100
7F00
0100
ENDCHAR
STARTCHAR C390
ENCODING 390
SWIDTH 660 0
DWIDTH 11 0
BBX 13 10 1 0
BITMAP
7FF8
03C0
0CA0
1960
0560
0300
7500
8A00
E200
E200
ENDCHAR
STARTCHAR C391
ENCODING 391
SWIDTH 840 0
DWIDTH 14 0
BBX 15 10 2 0
BITMAP
FFFE
2280
7AE0
6590
0488
1970
3D70
3300
0300
0200
ENDCHAR
STARTCHAR C392
ENCODING 392
SWIDTH 720 0
DWIDTH 12 0
BBX 14 11 2 -1
BITMAP
FFFC
7480
6BE0
6910
0970
3960
3D00
3A00
6600
6600
0600
ENDCHAR
STARTCHAR C393
ENCODING 393
SWIDTH 840 0
DWIDTH 14 0
BBX 15 12 2 -2
BITMAP
FFFE
7488
6BC8
6928
0970
3970
3610
0210
0FA0
0C60
0060
0020
ENDCHAR
STARTCHAR C394
ENCODING 394
SWIDTH 660 0
DWIDTH 11 0
BBX 12 10 2 0
BITMAP
FFF0
0E40
3540
6740
1A80
0E80
1980
6080
0100
0100
ENDCHAR
STARTCHAR C395
ENCODING 395
SWIDTH 660 0
DWIDTH 11 0
BBX 11 11 3 0
BITMAP
0100
79E0
8600
E200
2200
2200
0F00
3500
6500
1600
0A00
ENDCHAR
STARTCHAR C396
ENCODING 396
SWIDTH 540 0
DWIDTH 9 0
BBX 10 10 2 0
BITMAP
3DC0
4300
F100
1100
1200
0200
7200
EA00
C400
0400
ENDCHAR
STARTCHAR C397
ENCODING 397
SWIDTH 540 0
DWIDTH 9 0
BBX 10 10 2 0
BITMAP
3DC0
4300
F100
1100
1200
0600
1A00
3200
0C00
0400
ENDCHAR
STARTCHAR C398
ENCODING 398
SWIDTH 720 0
DWIDTH 12 0
BBX 13 11 2 0
BITMAP
0080
3CF8
42A0
F120
1120
1140
0140
0740
06C0
0680
0080
ENDCHAR
STARTCHAR C399
ENCODING 399
SWIDTH 600 0
DWIDTH 10 0
BBX 12 10 1 0
BITMAP
0F70
30C0
3C40
0440
0880
0080
7B80
E580
E100
0100
ENDCHAR
STARTCHAR C400
ENCODING 400
SWIDTH 540 0
DWIDTH 9 0
BBX 10 11 2 -1
BITMAP
FFC0
4100
4900
3100
6200
1A00
0600
7E00
6400
0400
0400
ENDCHAR
STARTCHAR C401
ENCODING 401
SWIDTH 600 0
DWIDTH 10 0
BBX 11 10 2 0
BITMAP
FFE0
3A40
6580
6400
0E00
3500
E500
1B00
0B00
0800
ENDCHAR
STARTCHAR C402
ENCODING 402
SWIDTH 1200 0
DWIDTH 20 0
BBX 20 11 3 0
BITMAP
0E0000
53FFF0
BC9200
A1FF00
A7A480
BA2440
82E580
44F980
38C800
000800
000800
ENDCHAR
STARTCHAR C403
ENCODING 403
SWIDTH 780 0
DWIDTH 13 0
BBX 14 11 2 0
BITMAP
0700
E91C
5E10
5010
5310
5DA0
22A0
1D20
0320
00C0
0040
ENDCHAR
STARTCHAR C404
ENCODING 404
SWIDTH 600 0
DWIDTH 10 0
BBX 11 10 2 0
BITMAP
FFE0
3480
6B80
6B80
0D00
1900
6200
8200
0200
0200
ENDCHAR
STARTCHAR C405
ENCODING 405
SWIDTH 900 0
DWIDTH 15 0
BBX 15 11 3 0
BITMAP
0E00
53FE
BE08
A208
A7C8
BA90
8310
8710
7890
0060
0020
ENDCHAR
STARTCHAR C406
ENCODING 406
SWIDTH 660 0
DWIDTH 11 0
BBX 11 11 3 0
BITMAP
0E00
53E0
BC80
A080
A680
BB00
8500
7900
3D00
3A00
0200
ENDCHAR
STARTCHAR C407
ENCODING 407
SWIDTH 720 0
DWIDTH 12 0
BBX 14 10 2 0
BITMAP
FFFC
4200
7500
4CC0
8C20
9420
A840
C880
0B00
0C00
ENDCHAR
STARTCHAR C408
ENCODING 408
SWIDTH 720 0
DWIDTH 12 0
BBX 14 10 2 0
BITMAP
FFFC
4200
73E0
4C90
8D10
9660
A380
C100
0080
0040
ENDCHAR
STARTCHAR C409
ENCODING 409
SWIDTH 720 0
DWIDTH 12 0
BBX 13 12 2 -2
BITMAP
FFF8
4600
7DC0
4D20
9620
A0C0
C700
0100
0180
0F00
0300
0100
ENDCHAR
STARTCHAR C410
ENCODING 410
SWIDTH 660 0
DWIDTH 11 0
BBX 13 10 1 0
BITMAP
7FF8
1000
1E00
2400
2FC0
3240
5AC0
8640
8580
7C00
ENDCHAR
STARTCHAR C411
ENCODING 411
SWIDTH 960 0
DWIDTH 16 0
BBX 17 10 2 0
BITMAP
FFFF80
180000
A7C000
9CC400
453C00
3CF800
041800
021800
01E800
000800
ENDCHAR
STARTCHAR C412
ENCODING 412
SWIDTH 960 0
DWIDTH 16 0
BBX 17 12 2 -2
BITMAP
FFFF80
180000
A7C000
9CC000
453C00
3CF400
041800
021800
01F800
006800
00E800
001800
ENDCHAR
STARTCHAR C413
ENCODING 413
SWIDTH 1200 0
DWIDTH 20 0
BBX 21 10 2 0
BITMAP
FFFFB8
0C00A0
13C720
A05920
A6E140
9AE140
431340
450B40
390680
010680
ENDCHAR
STARTCHAR C414
ENCODING 414
SWIDTH 720 0
DWIDTH 12 0
BBX 14 9 2 1
BITMAP
FFFC
0C00
9260
A390
A660
9A60
8320
44C0
3800
ENDCHAR
STARTCHAR C415
ENCODING 415
SWIDTH 720 0
DWIDTH 12 0
BBX 13 12 2 -2
BITMAP
FFF8
0C00
9400
A3C0
A640
9A80
8280
4580
3E80
0900
0700
0100
ENDCHAR
STARTCHAR C417
ENCODING 417
SWIDTH 600 0
DWIDTH 10 0
BBX 10 13 1 -2
BITMAP
0180
1A40
34C0
04C0
1A40
2580
4A00
3200
0C00
F000
1800
0600
0100
ENDCHAR
STARTCHAR C418
ENCODING 418
SWIDTH 660 0
DWIDTH 11 0
BBX 11 11 2 0
BITMAP
01C0
3E20
6460
6C60
1220
A1C0
A480
9A80
4280
3D00
0100
ENDCHAR
STARTCHAR C419
ENCODING 419
SWIDTH 600 0
DWIDTH 10 0
BBX 9 10 2 0
BITMAP
0D80
5780
5580
4700
3800
1A00
6A00
CC00
2C00
1400
ENDCHAR
STARTCHAR C420
ENCODING 420
SWIDTH 540 0
DWIDTH 9 0
BBX 12 16 1 -1
BITMAP
2000
1800
07C0
0020
0020
7FF0
0800
1000
1180
1180
1080
2100
2700
9900
4200
3C00
ENDCHAR
STARTCHAR C421
ENCODING 421
SWIDTH 480 0
DWIDTH 8 0
BBX 9 16 2 -2
BITMAP
6000
1E00
0100
0100
FF80
4000
4000
4C00
4C00
8400
8800
9000
7800
6800
1800
1000
ENDCHAR
STARTCHAR C422
ENCODING 422
SWIDTH 900 0
DWIDTH 15 0
BBX 16 10 2 0
BITMAP
FFFF
1020
1440
5A48
4674
4444
3C04
0408
0210
01E0
ENDCHAR
STARTCHAR C423
ENCODING 423
SWIDTH 780 0
DWIDTH 13 0
BBX 13 14 3 0
BITMAP
0C00
03E0
0010
0010
77F8
8C00
C400
C8C0
08C0
0840
0880
1100
1200
0C00
ENDCHAR
STARTCHAR C424
ENCODING 424
SWIDTH 600 0
DWIDTH 10 0
BBX 7 16 3 0
BITMAP
02
04
08
08
08
38
48
CC
0C
12
12
22
42
84
88
70
ENDCHAR
STARTCHAR C425
ENCODING 425
SWIDTH 600 0
DWIDTH 10 0
BBX 10 10 2 0
BITMAP
1CC0
7340
7040
8080
8700
4700
4080
4080
2100
1E00
ENDCHAR
STARTCHAR C426
ENCODING 426
SWIDTH 540 0
DWIDTH 9 0
BBX 10 10 2 0
BITMAP
1DC0
2300
6100
6100
0200
3A00
4600
C200
C400
0400
ENDCHAR
STARTCHAR C427
ENCODING 427
SWIDTH 660 0
DWIDTH 11 0
BBX 11 11 3 0
BITMAP
0200
3BE0
4480
C480
C480
0500
0500
1D00
1B00
0200
0200
ENDCHAR
STARTCHAR C428
ENCODING 428
SWIDTH 540 0
DWIDTH 9 0
BBX 11 10 2 0
BITMAP
FFE0
0F00
5080
7080
7700
4600
4100
4100
4200
3C00
ENDCHAR
STARTCHAR C429
ENCODING 429
SWIDTH 540 0
DWIDTH 9 0
BBX 10 11 2 -1
BITMAP
FFC0
0E00
7100
7E00
4C00
4200
4200
3C00
3C00
3400
0800
ENDCHAR
STARTCHAR C430
ENCODING 430
SWIDTH 600 0
DWIDTH 10 0
BBX 10 10 3 0
BITMAP
6DC0
D500
D500
0900
7200
4200
0200
0200
0400
0400
ENDCHAR
STARTCHAR C431
ENCODING 431
SWIDTH 600 0
DWIDTH 10 0
BBX 11 10 2 0
BITMAP
FFE0
4780
4680
2080
1100
0F00
7A00
6600
6200
0200
ENDCHAR
STARTCHAR C432
ENCODING 432
SWIDTH 600 0
DWIDTH 10 0
BBX 11 10 2 0
BITMAP
FFE0
4700
4680
2080
2080
1100
0E00
1200
0A00
0600
ENDCHAR
STARTCHAR C433
ENCODING 433
SWIDTH 720 0
DWIDTH 12 0
BBX 13 10 2 0
BITMAP
FFF8
4FA0
4EA0
20A0
1140
0E40
0E40
0D40
0080
0080
ENDCHAR
STARTCHAR C434
ENCODING 434
SWIDTH 660 0
DWIDTH 11 0
BBX 12 10 2 0
BITMAP
FFF0
0380
0440
4840
8C80
8C80
8080
8080
7F00
0100
ENDCHAR
STARTCHAR C435
ENCODING 435
SWIDTH 780 0
DWIDTH 13 0
BBX 14 10 2 0
BITMAP
FFFC
0700
08B0
10B0
9D10
9DE0
8100
8100
7E00
0200
ENDCHAR
STARTCHAR C436
ENCODING 436
SWIDTH 840 0
DWIDTH 14 0
BBX 16 10 2 0
BITMAP
FEF7
410C
478C
4C44
B448
C888
8808
0808
1010
1010
ENDCHAR
STARTCHAR C437
ENCODING 437
SWIDTH 840 0
DWIDTH 14 0
BBX 15 10 2 0
BITMAP
FFFE
4208
4608
4DC8
B990
CA10
8B10
1090
1060
1020
ENDCHAR
STARTCHAR C438
ENCODING 438
SWIDTH 600 0
DWIDTH 10 0
BBX 11 10 2 0
BITMAP
FFE0
4800
7800
C900
9700
1900
1200
0200
0200
0200
ENDCHAR
STARTCHAR C439
ENCODING 439
SWIDTH 600 0
DWIDTH 10 0
BBX 11 10 2 0
BITMAP
FFE0
4000
4400
5A00
E700
1D00
6500
1500
0A00
0A00
ENDCHAR
STARTCHAR C440
ENCODING 440
SWIDTH 540 0
DWIDTH 9 0
BBX 10 10 2 0
BITMAP
FFC0
4000
4600
5900
E200
1E00
6200
1200
0C00
0400
ENDCHAR
STARTCHAR C441
ENCODING 441
SWIDTH 600 0
DWIDTH 10 0
BBX 11 10 2 0
BITMAP
FFE0
4400
5C00
6800
0800
BA00
BD00
8100
4200
3C00
ENDCHAR
STARTCHAR C442
ENCODING 442
SWIDTH 600 0
DWIDTH 10 0
BBX 11 10 2 0
BITMAP
FFE0
4400
5C00
6800
0800
3A00
BD00
9100
8600
7A00
ENDCHAR
STARTCHAR C443
ENCODING 443
SWIDTH 540 0
DWIDTH 9 0
BBX 10 10 2 0
BITMAP
FFC0
4100
4D00
B900
CA00
8A00
1200
3A00
3400
0400
ENDCHAR
STARTCHAR C444
ENCODING 444
SWIDTH 480 0
DWIDTH 8 0
BBX 10 12 1 -1
BITMAP
0C00
1DC0
1700
0D00
3100
0A00
0600
0600
FA00
E400
0400
0400
ENDCHAR
STARTCHAR C445
ENCODING 445
SWIDTH 900 0
DWIDTH 15 0
BBX 16 11 2 0
BITMAP
1800
39FF
2304
1D1C
3264
4388
E388
1248
0C28
0410
0410
ENDCHAR
STARTCHAR C446
ENCODING 446
SWIDTH 780 0
DWIDTH 13 0
BBX 14 14 2 0
BITMAP
0600
01F0
0008
0008
FFFC
0200
7200
EC60
C460
0420
0440
0880
0900
0600
ENDCHAR
STARTCHAR C447
ENCODING 447
SWIDTH 600 0
DWIDTH 10 0
BBX 12 10 2 0
BITMAP
FFF0
7400
CC00
CC80
8F40
8040
8040
8080
4300
3C00
ENDCHAR
STARTCHAR C448
ENCODING 448
SWIDTH 600 0
DWIDTH 10 0
BBX 11 10 2 0
BITMAP
FFE0
0080
3080
B900
8600
4F00
4F00
4100
2200
1C00
ENDCHAR
STARTCHAR C449
ENCODING 449
SWIDTH 600 0
DWIDTH 10 0
BBX 11 11 2 -1
BITMAP
FFE0
0100
7100
6E00
0E00
7100
7E00
4E00
4200
4200
3C00
ENDCHAR
STARTCHAR C450
ENCODING 450
SWIDTH 600 0
DWIDTH 10 0
BBX 11 11 2 -1
BITMAP
FFE0
0080
3880
B700
4F00
4E80
4080
2100
1E00
1A00
0600
ENDCHAR
STARTCHAR C451
ENCODING 451
SWIDTH 600 0
DWIDTH 10 0
BBX 11 11 2 -1
BITMAP
FFE0
0080
3880
3700
0900
1100
9900
9A00
8200
7E00
0200
ENDCHAR
STARTCHAR C452
ENCODING 452
SWIDTH 600 0
DWIDTH 10 0
BBX 11 11 2 -1
BITMAP
FFE0
0100
7100
6E00
1900
1100
0200
3C00
1800
0400
0200
ENDCHAR
STARTCHAR C453
ENCODING 453
SWIDTH 660 0
DWIDTH 11 0
BBX 12 10 2 0
BITMAP
FFF0
0400
F440
CCC0
CB80
0C80
0880
0100
0100
0100
ENDCHAR
STARTCHAR C454
ENCODING 454
SWIDTH 600 0
DWIDTH 10 0
BBX 11 10 2 0
BITMAP
FFE0
0200
7A00
6600
0700
1D00
6500
1500
0E00
0A00
ENDCHAR
STARTCHAR C455
ENCODING 455
SWIDTH 540 0
DWIDTH 9 0
BBX 11 10 1 0
BITMAP
7FE0
0080
3C80
7280
6100
0100
7900
E500
C200
0200
ENDCHAR
STARTCHAR C456
ENCODING 456
SWIDTH 540 0
DWIDTH 9 0
BBX 10 10 2 0
BITMAP
FFC0
0100
7900
E500
C200
0600
1A00
3200
0C00
0400
ENDCHAR
STARTCHAR C457
ENCODING 457
SWIDTH 660 0
DWIDTH 11 0
BBX 12 10 2 0
BITMAP
FFF0
3A40
E640
E640
0280
0280
0E80
0D80
0100
0100
ENDCHAR
STARTCHAR C458
ENCODING 458
SWIDTH 720 0
DWIDTH 12 0
BBX 13 10 2 0
BITMAP
FFF8
0420
0420
7420
4F40
0CC0
4840
3040
0080
0080
ENDCHAR
STARTCHAR C459
ENCODING 459
SWIDTH 780 0
DWIDTH 13 0
BBX 13 14 3 0
BITMAP
0C00
03E0
0010
0010
77F8
8C00
7C00
44C0
04C0
0440
0840
0880
0900
0600
ENDCHAR
STARTCHAR C460
ENCODING 460
SWIDTH 660 0
DWIDTH 11 0
BBX 12 11 2 0
BITMAP
0040
1E70
6380
1480
9880
A380
4780
4680
4080
2100
1E00
ENDCHAR
STARTCHAR C461
ENCODING 461
SWIDTH 600 0
DWIDTH 10 0
BBX 10 10 3 0
BITMAP
3DC0
C700
2B00
3100
4200
0200
7A00
E600
C400
0400
ENDCHAR
STARTCHAR C462
ENCODING 462
SWIDTH 600 0
DWIDTH 10 0
BBX 12 11 1 -1
BITMAP
1F70
31C0
0EC0
0840
1080
1C80
6280
A780
3900
2100
0100
ENDCHAR
STARTCHAR C463
ENCODING 463
SWIDTH 600 0
DWIDTH 10 0
BBX 11 10 2 0
BITMAP
1EE0
6380
1580
1880
2100
7100
8F00
E900
E200
0200
ENDCHAR
STARTCHAR C464
ENCODING 464
SWIDTH 720 0
DWIDTH 12 0
BBX 13 10 2 0
BITMAP
FFF8
0420
7420
FC20
2740
04C0
4840
3040
0080
0080
ENDCHAR
STARTCHAR C465
ENCODING 465
SWIDTH 660 0
DWIDTH 11 0
BBX 13 11 1 -1
BITMAP
7FF8
0CC0
04A0
08A0
19E0
05C0
7300
8F00
EA00
6200
0200
ENDCHAR
STARTCHAR C466
ENCODING 466
SWIDTH 660 0
DWIDTH 11 0
BBX 13 10 2 0
BITMAP
FFF8
1C00
6FE0
9860
9E40
8940
8180
4280
3C80
0080
ENDCHAR
STARTCHAR C467
ENCODING 467
SWIDTH 660 0
DWIDTH 11 0
BBX 12 10 2 0
BITMAP
FFF0
0C00
7440
C9C0
3A80
1C80
0880
0100
0100
0100
ENDCHAR
STARTCHAR C468
ENCODING 468
SWIDTH 660 0
DWIDTH 11 0
BBX 12 10 2 0
BITMAP
FFF0
0700
3900
4380
4E80
3280
6280
1480
0D00
0500
ENDCHAR
STARTCHAR C469
ENCODING 469
SWIDTH 540 0
DWIDTH 9 0
BBX 10 10 2 0
BITMAP
FFC0
0700
3900
C100
4E00
3200
6200
1200
0C00
0400
ENDCHAR
STARTCHAR C470
ENCODING 470
SWIDTH 540 0
DWIDTH 9 0
BBX 11 10 1 0
BITMAP
7FE0
0380
0C80
3080
0D00
0300
7700
EB00
E200
0200
ENDCHAR
STARTCHAR C471
ENCODING 471
SWIDTH 720 0
DWIDTH 12 0
BBX 13 10 2 0
BITMAP
FFF8
0000
0040
5CA0
9F20
8C40
8040
8040
7F80
0080
ENDCHAR
STARTCHAR C472
ENCODING 472
SWIDTH 600 0
DWIDTH 10 0
BBX 12 11 1 -1
BITMAP
7FF0
2C80
2F40
2040
1080
0F80
7100
8F00
E900
6100
0200
ENDCHAR
STARTCHAR C473
ENCODING 473
SWIDTH 540 0
DWIDTH 9 0
BBX 10 10 2 0
BITMAP
FFC0
2080
E100
F100
0E00
0200
F200
CA00
C400
0400
ENDCHAR
STARTCHAR C474
ENCODING 474
SWIDTH 1020 0
DWIDTH 17 0
BBX 18 10 2 0
BITMAP
FF79C0
618500
714B00
6E7100
00C200
008200
000200
000200
000400
000400
ENDCHAR
STARTCHAR C475
ENCODING 475
SWIDTH 960 0
DWIDTH 16 0
BBX 17 10 2 0
BITMAP
FFFF80
610C00
710A00
6F1200
009200
011C00
061C00
01A000
006000
002000
ENDCHAR
STARTCHAR C476
ENCODING 476
SWIDTH 540 0
DWIDTH 9 0
BBX 10 10 2 0
BITMAP
FFC0
2080
6080
7100
0E00
0E00
7200
1200
0C00
0400
ENDCHAR
STARTCHAR C477
ENCODING 477
SWIDTH 660 0
DWIDTH 11 0
BBX 12 10 2 0
BITMAP
FFF0
1040
7040
7880
9F00
9B80
9C80
8080
4100
3E00
ENDCHAR
STARTCHAR C478
ENCODING 478
SWIDTH 600 0
DWIDTH 10 0
BBX 11 10 2 0
BITMAP
FFE0
1080
7080
6900
1E00
BD00
B900
8100
7E00
0200
ENDCHAR
STARTCHAR C479
ENCODING 479
SWIDTH 720 0
DWIDTH 12 0
BBX 13 10 2 0
BITMAP
FFF8
10A0
70A0
6920
0740
0140
0740
06C0
0080
0080
ENDCHAR
STARTCHAR C480
ENCODING 480
SWIDTH 600 0
DWIDTH 10 0
BBX 11 10 2 0
BITMAP
FFE0
1080
7080
6880
0700
7100
8F00
C900
C200
0200
ENDCHAR
STARTCHAR C481
ENCODING 481
SWIDTH 660 0
DWIDTH 11 0
BBX 12 10 2 0
BITMAP
FFF0
0100
7700
EA00
E300
1E80
6280
1580
0D80
0400
ENDCHAR
STARTCHAR C482
ENCODING 482
SWIDTH 600 0
DWIDTH 10 0
BBX 11 10 2 0
BITMAP
FFE0
0080
7B80
E580
E100
3D00
4300
F300
1200
2200
ENDCHAR
STARTCHAR C483
ENCODING 483
SWIDTH 600 0
DWIDTH 10 0
BBX 11 12 2 -2
BITMAP
FFE0
7A80
8500
E100
7D00
3300
AB00
9700
4600
4100
2100
1E00
ENDCHAR
STARTCHAR C484
ENCODING 484
SWIDTH 780 0
DWIDTH 13 0
BBX 14 14 2 0
BITMAP
0600
01F0
0008
0008
FFFC
0200
6E00
F660
E660
0620
0420
0440
0480
0300
ENDCHAR
STARTCHAR C485
ENCODING 485
SWIDTH 720 0
DWIDTH 12 0
BBX 13 10 2 0
BITMAP
FFF8
7600
EA00
E240
23A0
2220
2020
2040
1080
0F00
ENDCHAR
STARTCHAR C486
ENCODING 486
SWIDTH 600 0
DWIDTH 10 0
BBX 11 10 2 0
BITMAP
FFE0
3B80
4480
6080
6100
7900
8500
5B00
6200
C200
ENDCHAR
STARTCHAR C487
ENCODING 487
SWIDTH 600 0
DWIDTH 10 0
BBX 11 10 2 0
BITMAP
FFE0
0080
7A80
8580
E500
6300
0D00
1900
0600
0200
ENDCHAR
STARTCHAR C488
ENCODING 488
SWIDTH 720 0
DWIDTH 12 0
BBX 13 10 2 0
BITMAP
FFF8
00A0
7B20
E520
E140
0140
0740
06C0
0680
0080
ENDCHAR
STARTCHAR C489
ENCODING 489
SWIDTH 600 0
DWIDTH 10 0
BBX 12 10 1 0
BITMAP
7FF0
0040
3DC0
72C0
7080
3880
4780
E480
E100
0100
ENDCHAR
STARTCHAR C490
ENCODING 490
SWIDTH 840 0
DWIDTH 14 0
BBX 15 10 2 0
BITMAP
EDFE
3B00
7D80
6E60
0210
0210
0420
0440
0580
0600
ENDCHAR
STARTCHAR C491
ENCODING 491
SWIDTH 900 0
DWIDTH 15 0
BBX 16 10 2 0
BITMAP
F6FF
3980
7CF8
7D24
0144
0198
00E0
0040
0020
0010
ENDCHAR
STARTCHAR C492
ENCODING 492
SWIDTH 600 0
DWIDTH 10 0
BBX 11 10 2 0
BITMAP
F6E0
3980
7C80
7C80
0100
0100
3D00
7300
6200
0200
ENDCHAR
STARTCHAR C493
ENCODING 493
SWIDTH 720 0
DWIDTH 12 0
BBX 13 11 2 0
BITMAP
0080
E6F8
39A0
7D20
7D20
0140
0140
0740
06C0
0680
0080
ENDCHAR
STARTCHAR C494
ENCODING 494
SWIDTH 600 0
DWIDTH 10 0
BBX 11 10 2 0
BITMAP
F6E0
3980
7C80
7C80
0100
7100
8F00
E900
E200
0200
ENDCHAR
STARTCHAR C495
ENCODING 495
SWIDTH 600 0
DWIDTH 10 0
BBX 11 10 2 0
BITMAP
F6E0
3980
7C80
7C80
0100
0300
0D00
1900
0600
0200
ENDCHAR
STARTCHAR C496
ENCODING 496
SWIDTH 600 0
DWIDTH 10 0
BBX 11 10 2 0
BITMAP
FFE0
3200
5200
4E00
7D00
6500
C700
2B00
1800
0800
ENDCHAR
STARTCHAR C497
ENCODING 497
SWIDTH 840 0
DWIDTH 14 0
BBX 15 11 2 -1
BITMAP
FFFE
3200
4A00
4780
7C80
4CF0
8CB0
8130
8100
7F00
0100
ENDCHAR
STARTCHAR C498
ENCODING 498
SWIDTH 540 0
DWIDTH 9 0
BBX 10 16 2 -1
BITMAP
4000
2000
0F00
0080
0080
FFC0
3200
5200
8C00
B800
F600
8600
8400
8400
8800
7000
ENDCHAR
STARTCHAR C499
ENCODING 499
SWIDTH 600 0
DWIDTH 10 0
BBX 11 16 2 0
BITMAP
0100
0200
0400
0400
0400
0400
FFE0
4600
9E00
9900
E900
1100
2100
4200
4400
3800
ENDCHAR
STARTCHAR C500
ENCODING 500
SWIDTH 780 0
DWIDTH 13 0
BBX 12 10 2 0
BITMAP
FF60
2190
1110
1A60
6670
C210
2310
14E0
0C00
0400
ENDCHAR
STARTCHAR C501
ENCODING 501
SWIDTH 900 0
DWIDTH 15 0
BBX 16 10 2 0
BITMAP
FEF7
331C
54AC
48C4
7188
0008
0008
0008
0010
0010
ENDCHAR
STARTCHAR C502
ENCODING 502
SWIDTH 840 0
DWIDTH 14 0
BBX 15 10 2 0
BITMAP
FFFE
4230
9428
9C48
E248
0470
1C70
0280
0180
0080
ENDCHAR
STARTCHAR C503
ENCODING 503
SWIDTH 600 0
DWIDTH 10 0
BBX 11 10 2 0
BITMAP
FFE0
3280
5280
4C80
7900
1900
3D00
3300
0200
0200
ENDCHAR
STARTCHAR C504
ENCODING 504
SWIDTH 720 0
DWIDTH 12 0
BBX 14 10 2 0
BITMAP
FFFC
0C40
1440
6380
03C0
0CA0
18A0
0560
0360
0100
ENDCHAR
STARTCHAR C505
ENCODING 505
SWIDTH 840 0
DWIDTH 14 0
BBX 15 11 2 -1
BITMAP
FFFE
0C40
5440
6380
0480
4CF0
8CB0
8130
8100
7F00
0100
ENDCHAR
STARTCHAR C506
ENCODING 506
SWIDTH 720 0
DWIDTH 12 0
BBX 14 12 2 -2
BITMAP
FFFC
0C40
1440
6380
01C0
06A0
0CE0
02E0
7700
E900
E100
0200
ENDCHAR
STARTCHAR C507
ENCODING 507
SWIDTH 780 0
DWIDTH 13 0
BBX 14 10 2 0
BITMAP
FF1C
1910
1910
6710
0DA0
0EA0
0D20
0620
0140
00C0
ENDCHAR
STARTCHAR C508
ENCODING 508
SWIDTH 840 0
DWIDTH 14 0
BBX 15 14 2 0
BITMAP
0700
00F8
0004
0004
FFFE
1100
1100
1D30
9330
E310
0210
0220
0240
0380
ENDCHAR
STARTCHAR C509
ENCODING 509
SWIDTH 660 0
DWIDTH 11 0
BBX 12 10 2 0
BITMAP
FFF0
0420
0A20
F1C0
4700
4780
4080
2080
2100
1E00
ENDCHAR
STARTCHAR C510
ENCODING 510
SWIDTH 600 0
DWIDTH 10 0
BBX 11 11 2 -1
BITMAP
FFE0
1880
1880
E700
0E00
7100
7E00
4E00
4200
4200
3C00
ENDCHAR
STARTCHAR C511
ENCODING 511
SWIDTH 660 0
DWIDTH 11 0
BBX 12 11 2 -1
BITMAP
FFF0
0C40
5440
6780
0880
1C80
9C80
8100
8100
7F00
0100
ENDCHAR
ENDFONT
