STARTFONT 2.1
COMMENT This font image translated from Metafont
COMMENT Input file was ``bnr10''
COMMENT DPI was ``100'', usermag ``1000'', blackness ``3''
COMMENT shrink was 1
FONT -*-bengali-medium-r-*-*-*-100-*-*-*-*-*-fontspecific
SIZE 10 100 100
FONTBOUNDINGBOX 26 18 -8 -5
STARTPROPERTIES 4
FONT_ASCENT 13
FONT_DESCENT 4
COPYRIGHT "GNU General Public License"
_XMBDFED_INFO "Edited with xmbdfed 4.5."
ENDPROPERTIES
CHARS 249
STARTCHAR C001
ENCODING 1
SWIDTH 504 0
DWIDTH 7 0
BBX 9 13 -1 -1
BITMAP
8000
7E00
0100
7F80
1C00
3200
0200
0200
3C00
1800
0400
0200
0100
ENDCHAR
STARTCHAR C002
ENCODING 2
SWIDTH 576 0
DWIDTH 8 0
BBX 9 12 0 0
BITMAP
8000
7E00
0100
FF80
4000
7000
4E00
0A00
1200
6200
0200
0200
ENDCHAR
STARTCHAR C003
ENCODING 3
SWIDTH 576 0
DWIDTH 8 0
BBX 10 12 -1 0
BITMAP
8000
7E00
0100
7FC0
4400
4400
4500
4680
2080
2080
1100
0E00
ENDCHAR
STARTCHAR C004
ENCODING 4
SWIDTH 648 0
DWIDTH 9 0
BBX 10 12 0 0
BITMAP
8000
7E00
0100
FFC0
2800
A800
A900
6E80
5080
5080
2900
1E00
ENDCHAR
STARTCHAR C005
ENCODING 5
SWIDTH 720 0
DWIDTH 10 0
BBX 8 9 1 0
BITMAP
85
9D
75
65
85
65
17
0D
04
ENDCHAR
STARTCHAR C006
ENCODING 6
SWIDTH 648 0
DWIDTH 9 0
BBX 7 9 1 0
BITMAP
0C
12
22
BA
BA
82
82
7E
02
ENDCHAR
STARTCHAR C007
ENCODING 7
SWIDTH 792 0
DWIDTH 11 0
BBX 10 13 1 0
BITMAP
1000
2000
2000
1F80
0C40
1240
2240
BB80
BA00
8200
8200
7E00
0200
ENDCHAR
STARTCHAR C008
ENCODING 8
SWIDTH 576 0
DWIDTH 8 0
BBX 8 9 0 0
BITMAP
0E
91
B1
8E
8E
41
41
21
1E
ENDCHAR
STARTCHAR C014
ENCODING 14
SWIDTH 288 0
DWIDTH 4 0
BBX 5 9 0 0
BITMAP
F8
20
20
20
20
20
20
20
40
ENDCHAR
STARTCHAR C015
ENCODING 15
SWIDTH 0 0
DWIDTH 0 0
BBX 7 3 -8 -1
BITMAP
82
82
7E
ENDCHAR
STARTCHAR C016
ENCODING 16
SWIDTH 576 0
DWIDTH 8 0
BBX 9 10 0 -1
BITMAP
FF80
3200
3200
4C00
1C00
1A00
0200
1C00
0400
0300
ENDCHAR
STARTCHAR C017
ENCODING 17
SWIDTH 648 0
DWIDTH 9 0
BBX 10 9 0 0
BITMAP
FFC0
1880
1480
6300
0100
1D00
3300
3100
0100
ENDCHAR
STARTCHAR C018
ENCODING 18
SWIDTH 1152 0
DWIDTH 16 0
BBX 17 9 0 0
BITMAP
FE7B80
118600
194A00
667200
004200
000200
000200
000200
000200
ENDCHAR
STARTCHAR C019
ENCODING 19
SWIDTH 1152 0
DWIDTH 16 0
BBX 17 9 0 0
BITMAP
FE7B80
118600
194A00
667200
004200
003600
004A00
006200
000200
ENDCHAR
STARTCHAR C020
ENCODING 20
SWIDTH 1008 0
DWIDTH 14 0
BBX 15 9 0 0
BITMAP
FFFE
1100
1938
6724
00A4
0128
0320
00E0
0020
ENDCHAR
STARTCHAR C021
ENCODING 21
SWIDTH 648 0
DWIDTH 9 0
BBX 10 9 0 0
BITMAP
FFC0
1880
1480
6300
0300
0D00
1900
0700
0100
ENDCHAR
STARTCHAR C022
ENCODING 22
SWIDTH 792 0
DWIDTH 11 0
BBX 12 9 0 0
BITMAP
FFF0
18C0
14C0
6340
0140
0340
03C0
0040
0040
ENDCHAR
STARTCHAR C023
ENCODING 23
SWIDTH 648 0
DWIDTH 9 0
BBX 10 9 0 0
BITMAP
FFC0
1880
1480
6300
0100
3F00
4500
7100
0100
ENDCHAR
STARTCHAR C024
ENCODING 24
SWIDTH 504 0
DWIDTH 7 0
BBX 8 10 0 -1
BITMAP
FF
38
64
04
78
30
3C
4E
44
04
ENDCHAR
STARTCHAR C025
ENCODING 25
SWIDTH 720 0
DWIDTH 10 0
BBX 11 9 0 0
BITMAP
FFE0
0200
0B80
2380
4280
3300
0A00
1600
1200
ENDCHAR
STARTCHAR C026
ENCODING 26
SWIDTH 720 0
DWIDTH 10 0
BBX 11 9 0 0
BITMAP
FFE0
0200
0700
1280
4280
3280
0A80
1680
1280
ENDCHAR
STARTCHAR C027
ENCODING 27
SWIDTH 576 0
DWIDTH 8 0
BBX 9 10 0 -1
BITMAP
FF80
3400
4E00
6A00
0200
0400
3800
0800
0600
0100
ENDCHAR
STARTCHAR C028
ENCODING 28
SWIDTH 648 0
DWIDTH 9 0
BBX 10 10 0 -1
BITMAP
FFC0
3800
6700
0500
0500
7900
3100
0900
0500
0200
ENDCHAR
STARTCHAR C029
ENCODING 29
SWIDTH 720 0
DWIDTH 10 0
BBX 8 9 1 0
BITMAP
3A
47
F1
91
A6
87
41
21
1E
ENDCHAR
STARTCHAR C030
ENCODING 30
SWIDTH 720 0
DWIDTH 10 0
BBX 8 9 1 0
BITMAP
DA
27
F1
F9
86
87
41
21
1E
ENDCHAR
STARTCHAR C031
ENCODING 31
SWIDTH 648 0
DWIDTH 9 0
BBX 10 9 0 0
BITMAP
FFC0
2000
7F00
0700
0700
7800
1000
0800
0400
ENDCHAR
STARTCHAR C032
ENCODING 32
SWIDTH 432 0
DWIDTH 6 0
BBX 0 0 0 0
BITMAP
ENDCHAR
STARTCHAR C033
ENCODING 33
SWIDTH 576 0
DWIDTH 8 0
BBX 2 12 5 -2
BITMAP
C0
C0
C0
C0
C0
C0
C0
C0
C0
00
C0
C0
ENDCHAR
STARTCHAR C034
ENCODING 34
SWIDTH 432 0
DWIDTH 6 0
BBX 5 5 1 6
BITMAP
F0
F8
50
90
A0
ENDCHAR
STARTCHAR C035
ENCODING 35
SWIDTH 576 0
DWIDTH 8 0
BBX 7 10 1 -2
BITMAP
28
28
28
FE
28
FE
50
50
50
50
ENDCHAR
STARTCHAR C036
ENCODING 36
SWIDTH 648 0
DWIDTH 9 0
BBX 8 12 1 -1
BITMAP
10
10
10
10
20
20
2F
40
40
40
80
80
ENDCHAR
STARTCHAR C037
ENCODING 37
SWIDTH 720 0
DWIDTH 10 0
BBX 8 13 1 -1
BITMAP
40
A3
BE
A4
A4
A8
48
12
15
25
25
45
82
ENDCHAR
STARTCHAR C038
ENCODING 38
SWIDTH 504 0
DWIDTH 7 0
BBX 7 10 1 -1
BITMAP
EE
D8
18
E8
28
18
18
68
18
08
ENDCHAR
STARTCHAR C039
ENCODING 39
SWIDTH 288 0
DWIDTH 4 0
BBX 2 5 1 6
BITMAP
C0
C0
40
40
80
ENDCHAR
STARTCHAR C040
ENCODING 40
SWIDTH 288 0
DWIDTH 4 0
BBX 3 14 1 -3
BITMAP
20
40
40
C0
80
80
80
80
80
80
80
40
40
20
ENDCHAR
STARTCHAR C041
ENCODING 41
SWIDTH 288 0
DWIDTH 4 0
BBX 4 14 0 -3
BITMAP
80
40
60
60
30
30
30
30
30
30
20
60
40
80
ENDCHAR
STARTCHAR C042
ENCODING 42
SWIDTH 504 0
DWIDTH 7 0
BBX 5 7 1 4
BITMAP
20
A8
70
70
A8
20
20
ENDCHAR
STARTCHAR C043
ENCODING 43
SWIDTH 648 0
DWIDTH 9 0
BBX 9 9 0 0
BITMAP
0800
0800
0800
0800
FF80
0800
0800
0800
0800
ENDCHAR
STARTCHAR C044
ENCODING 44
SWIDTH 360 0
DWIDTH 5 0
BBX 2 5 2 -3
BITMAP
C0
C0
40
40
80
ENDCHAR
STARTCHAR C045
ENCODING 45
SWIDTH 360 0
DWIDTH 5 0
BBX 5 2 0 3
BITMAP
F8
F8
ENDCHAR
STARTCHAR C046
ENCODING 46
SWIDTH 504 0
DWIDTH 7 0
BBX 1 9 5 0
BITMAP
80
80
80
80
80
80
80
80
80
ENDCHAR
STARTCHAR C047
ENCODING 47
SWIDTH 288 0
DWIDTH 4 0
BBX 4 11 0 -2
BITMAP
10
10
20
20
20
20
40
40
40
80
80
ENDCHAR
STARTCHAR C048
ENCODING 48
SWIDTH 504 0
DWIDTH 7 0
BBX 8 7 0 1
BITMAP
3C
42
81
81
81
42
3C
ENDCHAR
STARTCHAR C049
ENCODING 49
SWIDTH 504 0
DWIDTH 7 0
BBX 6 8 1 0
BITMAP
80
C0
30
08
04
04
38
30
ENDCHAR
STARTCHAR C050
ENCODING 50
SWIDTH 504 0
DWIDTH 7 0
BBX 6 9 1 -1
BITMAP
40
38
04
04
F8
60
10
08
04
ENDCHAR
STARTCHAR C051
ENCODING 51
SWIDTH 504 0
DWIDTH 7 0
BBX 8 6 0 1
BITMAP
80
9E
59
41
21
1E
ENDCHAR
STARTCHAR C052
ENCODING 52
SWIDTH 504 0
DWIDTH 7 0
BBX 6 9 1 0
BITMAP
78
84
84
84
78
84
84
84
78
ENDCHAR
STARTCHAR C053
ENCODING 53
SWIDTH 504 0
DWIDTH 7 0
BBX 7 9 0 0
BITMAP
18
28
46
82
84
88
88
48
3E
ENDCHAR
STARTCHAR C054
ENCODING 54
SWIDTH 504 0
DWIDTH 7 0
BBX 8 8 0 0
BITMAP
10
90
92
4D
41
41
22
1C
ENDCHAR
STARTCHAR C055
ENCODING 55
SWIDTH 504 0
DWIDTH 7 0
BBX 6 9 1 0
BITMAP
30
48
88
7C
08
04
04
04
04
ENDCHAR
STARTCHAR C056
ENCODING 56
SWIDTH 504 0
DWIDTH 7 0
BBX 8 9 0 0
BITMAP
80
40
40
43
7C
44
44
48
70
ENDCHAR
STARTCHAR C057
ENCODING 57
SWIDTH 504 0
DWIDTH 7 0
BBX 7 9 1 0
BITMAP
80
80
40
30
0C
02
72
CA
CC
ENDCHAR
STARTCHAR C058
ENCODING 58
SWIDTH 432 0
DWIDTH 6 0
BBX 2 6 3 1
BITMAP
C0
C0
00
00
C0
C0
ENDCHAR
STARTCHAR C059
ENCODING 59
SWIDTH 360 0
DWIDTH 5 0
BBX 2 8 2 -3
BITMAP
C0
C0
00
C0
C0
40
40
80
ENDCHAR
STARTCHAR C060
ENCODING 60
SWIDTH 720 0
DWIDTH 10 0
BBX 4 9 5 0
BITMAP
90
90
90
90
90
90
90
90
90
ENDCHAR
STARTCHAR C061
ENCODING 61
SWIDTH 720 0
DWIDTH 10 0
BBX 9 4 1 2
BITMAP
FF80
0000
0000
FF80
ENDCHAR
STARTCHAR C062
ENCODING 62
SWIDTH 504 0
DWIDTH 7 0
BBX 8 10 0 -1
BITMAP
FF
38
64
04
78
30
0C
1E
34
0C
ENDCHAR
STARTCHAR C063
ENCODING 63
SWIDTH 792 0
DWIDTH 11 0
BBX 5 11 5 -1
BITMAP
70
88
C8
08
10
20
20
20
00
30
30
ENDCHAR
STARTCHAR C064
ENCODING 64
SWIDTH 648 0
DWIDTH 9 0
BBX 10 10 0 -1
BITMAP
FFC0
0800
F800
CB80
0D00
0900
0300
0D00
0300
0100
ENDCHAR
STARTCHAR C065
ENCODING 65
SWIDTH 288 0
DWIDTH 4 0
BBX 5 9 0 0
BITMAP
B8
60
20
20
20
20
20
20
20
ENDCHAR
STARTCHAR C066
ENCODING 66
SWIDTH 504 0
DWIDTH 7 0
BBX 6 9 1 0
BITMAP
60
90
E0
80
80
60
18
04
04
ENDCHAR
STARTCHAR C067
ENCODING 67
SWIDTH 576 0
DWIDTH 8 0
BBX 9 10 0 -1
BITMAP
FF80
4000
7C00
4A00
7200
0400
7800
0C00
0200
0100
ENDCHAR
STARTCHAR C068
ENCODING 68
SWIDTH 576 0
DWIDTH 8 0
BBX 9 9 0 0
BITMAP
FF80
8800
8800
8A00
8D00
4100
4100
2200
1C00
ENDCHAR
STARTCHAR C069
ENCODING 69
SWIDTH 288 0
DWIDTH 4 0
BBX 7 13 -2 -1
BITMAP
80
78
04
3E
08
08
10
10
10
10
10
0C
04
ENDCHAR
STARTCHAR C070
ENCODING 70
SWIDTH 576 0
DWIDTH 8 0
BBX 9 9 0 0
BITMAP
FF80
C200
3200
1A00
2600
6200
1A00
0600
0200
ENDCHAR
STARTCHAR C071
ENCODING 71
SWIDTH 576 0
DWIDTH 8 0
BBX 9 9 0 0
BITMAP
FF80
4200
4200
3A00
1200
6200
1A00
0600
0200
ENDCHAR
STARTCHAR C072
ENCODING 72
SWIDTH 360 0
DWIDTH 5 0
BBX 3 8 1 1
BITMAP
40
A0
A0
40
00
40
A0
40
ENDCHAR
STARTCHAR C073
ENCODING 73
SWIDTH 216 0
DWIDTH 3 0
BBX 10 13 -6 0
BITMAP
7C00
8200
8100
7900
07C0
0100
0100
0100
0100
0100
0100
0100
0100
ENDCHAR
STARTCHAR C074
ENCODING 74
SWIDTH 648 0
DWIDTH 9 0
BBX 10 9 0 0
BITMAP
FDC0
0500
1D00
2500
4500
2500
1700
0D00
0400
ENDCHAR
STARTCHAR C075
ENCODING 75
SWIDTH 648 0
DWIDTH 9 0
BBX 10 9 0 0
BITMAP
09C0
D500
E300
0300
3D00
3100
0500
0300
0100
ENDCHAR
STARTCHAR C076
ENCODING 76
SWIDTH 720 0
DWIDTH 10 0
BBX 11 9 0 0
BITMAP
FFE0
4200
7B80
4E80
0A80
1A80
1680
0280
0200
ENDCHAR
STARTCHAR C077
ENCODING 77
SWIDTH 432 0
DWIDTH 6 0
BBX 4 8 1 1
BITMAP
60
90
90
60
40
40
20
10
ENDCHAR
STARTCHAR C078
ENCODING 78
SWIDTH 504 0
DWIDTH 7 0
BBX 8 9 0 0
BITMAP
77
8C
84
B4
74
04
04
04
04
ENDCHAR
STARTCHAR C079
ENCODING 79
SWIDTH 216 0
DWIDTH 3 0
BBX 10 13 -6 0
BITMAP
8000
8000
7E00
0100
03C0
0100
0100
0100
0100
0100
0100
0100
0100
ENDCHAR
STARTCHAR C080
ENCODING 80
SWIDTH 792 0
DWIDTH 11 0
BBX 10 9 1 0
BITMAP
6400
9780
9440
2580
C440
2640
1580
0C00
0C00
ENDCHAR
STARTCHAR C081
ENCODING 81
SWIDTH 864 0
DWIDTH 12 0
BBX 11 9 1 0
BITMAP
0C00
12C0
2320
BB20
BA60
8360
8320
7EC0
0200
ENDCHAR
STARTCHAR C082
ENCODING 82
SWIDTH 576 0
DWIDTH 8 0
BBX 9 11 0 -2
BITMAP
FF80
8800
8800
8A00
8D00
4100
4100
2200
1C00
0800
0800
ENDCHAR
STARTCHAR C083
ENCODING 83
SWIDTH 576 0
DWIDTH 8 0
BBX 9 9 0 0
BITMAP
8380
5E00
7200
FA00
DA00
0200
0200
0200
0200
ENDCHAR
STARTCHAR C084
ENCODING 84
SWIDTH 504 0
DWIDTH 7 0
BBX 9 12 -1 0
BITMAP
8000
7E00
0100
7F80
2000
2000
2600
2600
2200
2400
2800
1000
ENDCHAR
STARTCHAR C085
ENCODING 85
SWIDTH 0 0
DWIDTH 0 0
BBX 6 5 -4 -4
BITMAP
60
80
80
70
0C
ENDCHAR
STARTCHAR C086
ENCODING 86
SWIDTH 504 0
DWIDTH 7 0
BBX 8 11 0 -2
BITMAP
FF
40
40
4C
4C
44
48
50
20
20
20
ENDCHAR
STARTCHAR C087
ENCODING 87
SWIDTH 0 0
DWIDTH 0 0
BBX 3 3 -3 -3
BITMAP
C0
80
60
ENDCHAR
STARTCHAR C088
ENCODING 88
SWIDTH 504 0
DWIDTH 7 0
BBX 8 9 0 0
BITMAP
FF
40
40
4C
4C
44
48
50
20
ENDCHAR
STARTCHAR C089
ENCODING 89
SWIDTH 576 0
DWIDTH 8 0
BBX 9 9 0 0
BITMAP
FF80
C200
3200
1200
2200
6200
1A00
0600
0200
ENDCHAR
STARTCHAR C090
ENCODING 90
SWIDTH 504 0
DWIDTH 7 0
BBX 8 13 0 0
BITMAP
20
20
20
10
FF
08
08
14
14
24
44
48
30
ENDCHAR
STARTCHAR C091
ENCODING 91
SWIDTH 216 0
DWIDTH 3 0
BBX 3 15 1 -3
BITMAP
E0
E0
80
80
80
80
80
80
80
80
80
80
80
80
E0
ENDCHAR
STARTCHAR C092
ENCODING 92
SWIDTH 432 0
DWIDTH 6 0
BBX 5 5 0 6
BITMAP
48
50
90
78
78
ENDCHAR
STARTCHAR C093
ENCODING 93
SWIDTH 216 0
DWIDTH 3 0
BBX 3 15 0 -3
BITMAP
E0
E0
60
60
60
60
60
60
60
60
60
60
60
E0
E0
ENDCHAR
STARTCHAR C094
ENCODING 94
SWIDTH 0 0
DWIDTH 0 0
BBX 5 3 -2 9
BITMAP
08
20
C0
ENDCHAR
STARTCHAR C095
ENCODING 95
SWIDTH 0 0
DWIDTH 0 0
BBX 4 3 -2 -4
BITMAP
80
60
10
ENDCHAR
STARTCHAR C096
ENCODING 96
SWIDTH 288 0
DWIDTH 4 0
BBX 2 5 1 6
BITMAP
40
80
80
C0
C0
ENDCHAR
STARTCHAR C097
ENCODING 97
SWIDTH 792 0
DWIDTH 11 0
BBX 12 9 0 0
BITMAP
FFF0
1040
5E40
5940
2140
2140
11C0
0EC0
0040
ENDCHAR
STARTCHAR C098
ENCODING 98
SWIDTH 504 0
DWIDTH 7 0
BBX 8 9 0 0
BITMAP
FF
04
0C
24
44
64
14
0C
04
ENDCHAR
STARTCHAR C099
ENCODING 99
SWIDTH 504 0
DWIDTH 7 0
BBX 8 9 0 0
BITMAP
FF
40
60
58
44
44
48
50
20
ENDCHAR
STARTCHAR C100
ENCODING 100
SWIDTH 504 0
DWIDTH 7 0
BBX 8 9 0 0
BITMAP
FF
40
44
5C
64
44
08
08
04
ENDCHAR
STARTCHAR C101
ENCODING 101
SWIDTH 288 0
DWIDTH 4 0
BBX 5 10 0 -1
BITMAP
F8
20
20
40
40
40
40
40
30
10
ENDCHAR
STARTCHAR C102
ENCODING 102
SWIDTH 648 0
DWIDTH 9 0
BBX 10 9 0 0
BITMAP
FFC0
C000
2700
1480
2780
6700
1400
0C00
0400
ENDCHAR
STARTCHAR C103
ENCODING 103
SWIDTH 576 0
DWIDTH 8 0
BBX 9 9 0 0
BITMAP
0380
7A00
F600
8A00
0A00
1200
0200
0200
0200
ENDCHAR
STARTCHAR C104
ENCODING 104
SWIDTH 504 0
DWIDTH 7 0
BBX 8 10 0 -1
BITMAP
FF
38
64
04
04
78
30
08
04
02
ENDCHAR
STARTCHAR C105
ENCODING 105
SWIDTH 288 0
DWIDTH 4 0
BBX 10 13 0 0
BITMAP
3C00
4300
8080
8040
F800
2000
2000
2000
2000
2000
2000
2000
2000
ENDCHAR
STARTCHAR C106
ENCODING 106
SWIDTH 720 0
DWIDTH 10 0
BBX 11 9 0 0
BITMAP
FFE0
1800
A780
A480
5C80
4280
2280
1C80
0080
ENDCHAR
STARTCHAR C107
ENCODING 107
SWIDTH 720 0
DWIDTH 10 0
BBX 11 9 0 0
BITMAP
FFE0
0200
0B00
2280
4200
3380
0A00
0600
0200
ENDCHAR
STARTCHAR C108
ENCODING 108
SWIDTH 648 0
DWIDTH 9 0
BBX 10 9 0 0
BITMAP
FFC0
0100
3700
4D00
4500
7100
2100
0100
0100
ENDCHAR
STARTCHAR C109
ENCODING 109
SWIDTH 576 0
DWIDTH 8 0
BBX 9 9 0 0
BITMAP
FF80
8200
4200
2200
1200
3200
3E00
0200
0200
ENDCHAR
STARTCHAR C110
ENCODING 110
SWIDTH 504 0
DWIDTH 7 0
BBX 8 9 0 0
BITMAP
FF
04
04
04
74
6C
04
04
04
ENDCHAR
STARTCHAR C111
ENCODING 111
SWIDTH 648 0
DWIDTH 9 0
BBX 9 13 0 0
BITMAP
1000
1000
1000
0F00
1C80
A280
B280
8F00
8E00
4200
4200
2200
1C00
ENDCHAR
STARTCHAR C112
ENCODING 112
SWIDTH 576 0
DWIDTH 8 0
BBX 9 9 0 0
BITMAP
0380
7A00
E600
3A00
2200
0200
0200
0200
0200
ENDCHAR
STARTCHAR C113
ENCODING 113
SWIDTH 648 0
DWIDTH 9 0
BBX 8 10 0 0
BITMAP
06
09
B1
9E
92
93
5D
41
22
1C
ENDCHAR
STARTCHAR C114
ENCODING 114
SWIDTH 504 0
DWIDTH 7 0
BBX 8 9 0 0
BITMAP
FF
04
0C
24
44
64
14
0C
34
ENDCHAR
STARTCHAR C115
ENCODING 115
SWIDTH 576 0
DWIDTH 8 0
BBX 9 9 0 0
BITMAP
FF80
C200
2200
1E00
1200
5200
6200
0200
0200
ENDCHAR
STARTCHAR C116
ENCODING 116
SWIDTH 576 0
DWIDTH 8 0
BBX 9 9 0 0
BITMAP
FF80
0000
9C00
9A00
5900
4100
4100
2200
1C00
ENDCHAR
STARTCHAR C117
ENCODING 117
SWIDTH 0 0
DWIDTH 0 0
BBX 6 5 -4 -5
BITMAP
60
B0
48
04
04
ENDCHAR
STARTCHAR C118
ENCODING 118
SWIDTH 648 0
DWIDTH 9 0
BBX 10 9 0 0
BITMAP
FFC0
8000
9800
9900
5E80
4080
4080
2100
1E00
ENDCHAR
STARTCHAR C119
ENCODING 119
SWIDTH 0 0
DWIDTH 0 0
BBX 5 4 -4 9
BITMAP
20
A8
88
70
ENDCHAR
STARTCHAR C120
ENCODING 120
SWIDTH 504 0
DWIDTH 7 0
BBX 7 9 1 0
BITMAP
4E
88
78
48
88
48
38
08
08
ENDCHAR
STARTCHAR C121
ENCODING 121
SWIDTH 576 0
DWIDTH 8 0
BBX 9 9 0 0
BITMAP
FF80
C200
3200
1200
2200
6200
1A00
0600
1200
ENDCHAR
STARTCHAR C122
ENCODING 122
SWIDTH 576 0
DWIDTH 8 0
BBX 8 9 1 0
BITMAP
67
94
94
24
C4
64
0C
04
04
ENDCHAR
STARTCHAR C123
ENCODING 123
SWIDTH 576 0
DWIDTH 8 0
BBX 9 1 0 4
BITMAP
FF80
ENDCHAR
STARTCHAR C124
ENCODING 124
SWIDTH 1080 0
DWIDTH 15 0
BBX 16 1 0 4
BITMAP
FFFF
ENDCHAR
STARTCHAR C125
ENCODING 125
SWIDTH 504 0
DWIDTH 7 0
BBX 8 10 0 -1
BITMAP
FF
38
64
04
78
30
0C
3E
64
64
ENDCHAR
STARTCHAR C126
ENCODING 126
SWIDTH 648 0
DWIDTH 9 0
BBX 9 4 0 2
BITMAP
3000
7880
8F00
0600
ENDCHAR
STARTCHAR C127
ENCODING 127
SWIDTH 1008 0
DWIDTH 14 0
BBX 15 11 0 -2
BITMAP
FFEE
0918
0B88
0B48
4CC8
40C8
4088
2108
1E08
0C00
0C00
ENDCHAR
STARTCHAR C128
ENCODING 128
SWIDTH 720 0
DWIDTH 10 0
BBX 11 9 0 0
BITMAP
FFE0
0700
1A80
6280
2F80
3280
0B80
0780
0200
ENDCHAR
STARTCHAR C129
ENCODING 129
SWIDTH 576 0
DWIDTH 8 0
BBX 9 13 0 -1
BITMAP
C000
3C00
0200
FF80
0C00
3A00
6E00
1E00
0800
1E00
2600
2200
1C00
ENDCHAR
STARTCHAR C130
ENCODING 130
SWIDTH 720 0
DWIDTH 10 0
BBX 11 9 0 0
BITMAP
FFE0
1C00
2380
A240
4DC0
4F80
4200
2200
1C00
ENDCHAR
STARTCHAR C131
ENCODING 131
SWIDTH 720 0
DWIDTH 10 0
BBX 11 9 0 0
BITMAP
FFE0
0700
1A80
6280
2E80
3200
0A00
0600
0200
ENDCHAR
STARTCHAR C132
ENCODING 132
SWIDTH 648 0
DWIDTH 9 0
BBX 10 9 0 0
BITMAP
FFC0
0D00
7B00
CF00
3F00
0900
1D00
1F00
0100
ENDCHAR
STARTCHAR C133
ENCODING 133
SWIDTH 864 0
DWIDTH 12 0
BBX 13 9 0 0
BITMAP
FFF8
0600
09E0
5120
5D60
4D60
4100
3F00
0100
ENDCHAR
STARTCHAR C134
ENCODING 134
SWIDTH 648 0
DWIDTH 9 0
BBX 10 9 0 0
BITMAP
FFC0
0600
1D00
3500
0D00
0400
7C00
E400
6400
ENDCHAR
STARTCHAR C135
ENCODING 135
SWIDTH 792 0
DWIDTH 11 0
BBX 12 9 0 0
BITMAP
FFF0
4A00
7B00
6EC0
0AC0
1AC0
1E00
0200
0200
ENDCHAR
STARTCHAR C136
ENCODING 136
SWIDTH 720 0
DWIDTH 10 0
BBX 11 11 0 -2
BITMAP
FFE0
4A00
7F00
6A80
0B80
3F80
3200
3A00
3600
0200
0200
ENDCHAR
STARTCHAR C137
ENCODING 137
SWIDTH 864 0
DWIDTH 12 0
BBX 13 12 0 -3
BITMAP
FFF8
4A20
77A0
6A60
0AE0
1EE0
1A20
07A0
0660
0620
0020
0020
ENDCHAR
STARTCHAR C138
ENCODING 138
SWIDTH 648 0
DWIDTH 9 0
BBX 10 9 0 0
BITMAP
FFC0
0D00
3B00
6F00
1D00
0F00
4900
3100
0100
ENDCHAR
STARTCHAR C139
ENCODING 139
SWIDTH 648 0
DWIDTH 9 0
BBX 9 9 1 0
BITMAP
7780
8C00
CC00
2400
2400
1E00
3600
0E00
0600
ENDCHAR
STARTCHAR C140
ENCODING 140
SWIDTH 576 0
DWIDTH 8 0
BBX 9 9 0 0
BITMAP
7B80
8600
E200
1200
1200
1200
7E00
7200
0200
ENDCHAR
STARTCHAR C141
ENCODING 141
SWIDTH 576 0
DWIDTH 8 0
BBX 9 9 0 0
BITMAP
7B80
8600
E200
1200
1200
0600
1A00
0600
0200
ENDCHAR
STARTCHAR C142
ENCODING 142
SWIDTH 720 0
DWIDTH 10 0
BBX 11 9 0 0
BITMAP
7BE0
8680
E280
1280
1280
0280
0780
0680
0080
ENDCHAR
STARTCHAR C143
ENCODING 143
SWIDTH 576 0
DWIDTH 8 0
BBX 8 9 1 0
BITMAP
77
8C
C4
24
24
6C
94
C4
04
ENDCHAR
STARTCHAR C144
ENCODING 144
SWIDTH 504 0
DWIDTH 7 0
BBX 8 10 0 -1
BITMAP
FF
44
44
34
64
1C
34
3C
34
04
ENDCHAR
STARTCHAR C145
ENCODING 145
SWIDTH 576 0
DWIDTH 8 0
BBX 9 9 0 0
BITMAP
FF80
2900
5E00
4400
0C00
3600
6600
1600
0C00
ENDCHAR
STARTCHAR C146
ENCODING 146
SWIDTH 1224 0
DWIDTH 17 0
BBX 17 9 1 0
BITMAP
1FFF80
E65000
BBD800
AF7600
B45600
44D600
38F000
001000
001000
ENDCHAR
STARTCHAR C147
ENCODING 147
SWIDTH 792 0
DWIDTH 11 0
BBX 12 9 0 0
BITMAP
CC70
7840
5040
5E40
4340
2340
1E40
01C0
0040
ENDCHAR
STARTCHAR C148
ENCODING 148
SWIDTH 576 0
DWIDTH 8 0
BBX 9 9 0 0
BITMAP
FF80
4A00
7600
4E00
0A00
1200
6200
0200
0200
ENDCHAR
STARTCHAR C149
ENCODING 149
SWIDTH 864 0
DWIDTH 12 0
BBX 13 9 1 0
BITMAP
9FF8
6420
BC20
AFA0
B520
4620
39A0
0060
0020
ENDCHAR
STARTCHAR C150
ENCODING 150
SWIDTH 648 0
DWIDTH 9 0
BBX 9 9 1 0
BITMAP
9F80
7200
A200
BE00
8600
4600
3E00
1A00
0200
ENDCHAR
STARTCHAR C151
ENCODING 151
SWIDTH 720 0
DWIDTH 10 0
BBX 11 9 0 0
BITMAP
FFE0
4800
7C00
4B00
4880
5880
6900
0A00
0400
ENDCHAR
STARTCHAR C152
ENCODING 152
SWIDTH 720 0
DWIDTH 10 0
BBX 11 9 0 0
BITMAP
FFE0
4800
7F00
4A80
4C80
5100
6600
0100
0080
ENDCHAR
STARTCHAR C153
ENCODING 153
SWIDTH 720 0
DWIDTH 10 0
BBX 11 11 0 -2
BITMAP
FFE0
4800
7F00
4A80
5C80
6700
0200
0100
0780
0180
0080
ENDCHAR
STARTCHAR C154
ENCODING 154
SWIDTH 648 0
DWIDTH 9 0
BBX 10 9 0 0
BITMAP
FFC0
4000
7800
4800
5F00
6500
7500
4700
3C00
ENDCHAR
STARTCHAR C155
ENCODING 155
SWIDTH 936 0
DWIDTH 13 0
BBX 14 9 0 0
BITMAP
FFFC
3000
AF80
BA90
4A70
39D0
0450
0390
0010
ENDCHAR
STARTCHAR C156
ENCODING 156
SWIDTH 936 0
DWIDTH 13 0
BBX 14 11 0 -2
BITMAP
FFFC
3000
AF80
BA90
4A70
39D0
0450
0390
0070
00D0
0030
ENDCHAR
STARTCHAR C157
ENCODING 157
SWIDTH 1224 0
DWIDTH 17 0
BBX 18 9 0 0
BITMAP
FFFDC0
180500
A70D00
A13500
9DC500
432500
231700
1D0F00
010500
ENDCHAR
STARTCHAR C158
ENCODING 158
SWIDTH 720 0
DWIDTH 10 0
BBX 11 8 0 1
BITMAP
FFE0
1800
A980
A640
9D80
4240
2380
1C00
ENDCHAR
STARTCHAR C159
ENCODING 159
SWIDTH 720 0
DWIDTH 10 0
BBX 11 11 0 -2
BITMAP
FFE0
1800
A800
A780
9C80
4280
2300
1F00
0480
0380
0080
ENDCHAR
STARTCHAR C161
ENCODING 161
SWIDTH 576 0
DWIDTH 8 0
BBX 6 11 1 -2
BITMAP
58
AC
AC
54
98
98
68
F0
30
08
04
ENDCHAR
STARTCHAR C162
ENCODING 162
SWIDTH 720 0
DWIDTH 10 0
BBX 8 10 1 0
BITMAP
06
69
93
F3
49
C7
BE
46
3A
02
ENDCHAR
STARTCHAR C163
ENCODING 163
SWIDTH 648 0
DWIDTH 9 0
BBX 7 9 1 0
BITMAP
3C
4A
EE
8E
78
3C
CC
2C
1C
ENDCHAR
STARTCHAR C164
ENCODING 164
SWIDTH 576 0
DWIDTH 8 0
BBX 9 13 0 -1
BITMAP
C000
3C00
0200
FF80
2000
2000
2600
2600
2200
2400
2A00
5200
3C00
ENDCHAR
STARTCHAR C165
ENCODING 165
SWIDTH 504 0
DWIDTH 7 0
BBX 9 15 -1 -2
BITMAP
8000
6000
1E00
0100
7F80
2000
2000
2600
2600
2200
2400
1A00
0E00
0600
0200
ENDCHAR
STARTCHAR C166
ENCODING 166
SWIDTH 864 0
DWIDTH 12 0
BBX 14 9 0 0
BITMAP
FFFC
1080
1880
54B0
44C8
3C08
0408
0210
01E0
ENDCHAR
STARTCHAR C167
ENCODING 167
SWIDTH 792 0
DWIDTH 11 0
BBX 11 12 1 0
BITMAP
3000
0F00
0080
6FE0
9800
C800
C980
0980
0880
0880
0900
0600
ENDCHAR
STARTCHAR C168
ENCODING 168
SWIDTH 576 0
DWIDTH 8 0
BBX 6 13 1 0
BITMAP
20
20
20
20
70
90
98
14
14
24
44
48
30
ENDCHAR
STARTCHAR C169
ENCODING 169
SWIDTH 648 0
DWIDTH 9 0
BBX 8 9 0 0
BITMAP
3A
65
A5
41
46
47
41
21
1E
ENDCHAR
STARTCHAR C170
ENCODING 170
SWIDTH 504 0
DWIDTH 7 0
BBX 7 9 1 0
BITMAP
6E
98
C8
C8
68
98
C8
C8
08
ENDCHAR
STARTCHAR C171
ENCODING 171
SWIDTH 648 0
DWIDTH 9 0
BBX 9 9 1 0
BITMAP
6F80
9A00
CA00
CA00
0A00
1A00
1E00
0200
0200
ENDCHAR
STARTCHAR C172
ENCODING 172
SWIDTH 576 0
DWIDTH 8 0
BBX 9 9 0 0
BITMAP
FF80
1C00
2200
7200
4C00
4E00
4200
2200
1C00
ENDCHAR
STARTCHAR C173
ENCODING 173
SWIDTH 576 0
DWIDTH 8 0
BBX 9 10 0 -1
BITMAP
FF80
1C00
7200
7E00
4C00
4200
2200
1E00
1A00
0600
ENDCHAR
STARTCHAR C174
ENCODING 174
SWIDTH 648 0
DWIDTH 9 0
BBX 9 9 1 0
BITMAP
5380
BA00
AA00
1200
6200
7200
0600
0200
0200
ENDCHAR
STARTCHAR C175
ENCODING 175
SWIDTH 576 0
DWIDTH 8 0
BBX 9 9 0 0
BITMAP
FF80
0E00
4D00
2100
1100
0E00
3E00
3200
0200
ENDCHAR
STARTCHAR C176
ENCODING 176
SWIDTH 576 0
DWIDTH 8 0
BBX 9 9 0 0
BITMAP
FF80
0E00
4D00
2100
1100
0E00
1E00
0600
0200
ENDCHAR
STARTCHAR C177
ENCODING 177
SWIDTH 720 0
DWIDTH 10 0
BBX 11 9 0 0
BITMAP
FFE0
0E80
4D80
2180
1180
0E80
0E80
0D80
0080
ENDCHAR
STARTCHAR C178
ENCODING 178
SWIDTH 648 0
DWIDTH 9 0
BBX 10 9 0 0
BITMAP
FFC0
0600
0900
5100
5D00
4D00
4100
3F00
0100
ENDCHAR
STARTCHAR C179
ENCODING 179
SWIDTH 792 0
DWIDTH 11 0
BBX 12 9 0 0
BITMAP
FFF0
0600
09C0
51E0
5920
59C0
4100
3F00
0100
ENDCHAR
STARTCHAR C180
ENCODING 180
SWIDTH 864 0
DWIDTH 12 0
BBX 13 10 0 -1
BITMAP
FFB8
4460
4620
5920
6920
4820
4820
0820
0820
0020
ENDCHAR
STARTCHAR C181
ENCODING 181
SWIDTH 864 0
DWIDTH 12 0
BBX 13 9 0 0
BITMAP
FFF8
4420
4420
5BA0
6920
4B20
48A0
0860
0820
ENDCHAR
STARTCHAR C182
ENCODING 182
SWIDTH 576 0
DWIDTH 8 0
BBX 9 9 0 0
BITMAP
FF80
4000
7000
5200
5600
1A00
1200
0200
0200
ENDCHAR
STARTCHAR C183
ENCODING 183
SWIDTH 648 0
DWIDTH 9 0
BBX 10 9 0 0
BITMAP
FFC0
4000
4800
5400
6700
1D00
3500
0D00
0500
ENDCHAR
STARTCHAR C184
ENCODING 184
SWIDTH 504 0
DWIDTH 7 0
BBX 8 9 0 0
BITMAP
FF
40
48
54
64
1C
34
0C
04
ENDCHAR
STARTCHAR C185
ENCODING 185
SWIDTH 648 0
DWIDTH 9 0
BBX 10 9 0 0
BITMAP
FFC0
4000
5800
6800
4800
5A00
5D00
2100
1E00
ENDCHAR
STARTCHAR C186
ENCODING 186
SWIDTH 648 0
DWIDTH 9 0
BBX 10 9 0 0
BITMAP
FFC0
4000
5800
6800
4A00
5B00
5D00
4100
3F00
ENDCHAR
STARTCHAR C187
ENCODING 187
SWIDTH 576 0
DWIDTH 8 0
BBX 9 9 0 0
BITMAP
FF80
4200
4E00
7A00
4A00
4A00
1E00
1A00
0200
ENDCHAR
STARTCHAR C188
ENCODING 188
SWIDTH 504 0
DWIDTH 7 0
BBX 7 10 1 -1
BITMAP
6E
58
28
C8
28
18
E8
D8
C8
08
ENDCHAR
STARTCHAR C189
ENCODING 189
SWIDTH 936 0
DWIDTH 13 0
BBX 13 9 1 0
BITMAP
67F8
8420
7C60
65A0
C620
25A0
1460
0C20
0420
ENDCHAR
STARTCHAR C190
ENCODING 190
SWIDTH 792 0
DWIDTH 11 0
BBX 12 12 0 0
BITMAP
1800
0780
0040
FFF0
0400
7400
6CC0
64C0
0440
0440
0480
0300
ENDCHAR
STARTCHAR C191
ENCODING 191
SWIDTH 648 0
DWIDTH 9 0
BBX 10 9 0 0
BITMAP
FFC0
0800
F800
CB00
4C80
4080
4080
2100
1E00
ENDCHAR
STARTCHAR C192
ENCODING 192
SWIDTH 648 0
DWIDTH 9 0
BBX 10 9 0 0
BITMAP
FFC0
0100
3100
B900
4700
4680
2680
1080
0F00
ENDCHAR
STARTCHAR C193
ENCODING 193
SWIDTH 576 0
DWIDTH 8 0
BBX 9 10 0 -1
BITMAP
FF80
0400
6400
7C00
1C00
7200
7C00
2E00
2200
1C00
ENDCHAR
STARTCHAR C194
ENCODING 194
SWIDTH 576 0
DWIDTH 8 0
BBX 9 11 0 -2
BITMAP
FF80
0200
3200
7E00
4E00
2D00
1100
0E00
0E00
0200
0200
ENDCHAR
STARTCHAR C195
ENCODING 195
SWIDTH 648 0
DWIDTH 9 0
BBX 10 10 0 -1
BITMAP
FFC0
0100
3900
3700
0900
4D00
4D00
4100
3F00
0100
ENDCHAR
STARTCHAR C196
ENCODING 196
SWIDTH 576 0
DWIDTH 8 0
BBX 9 10 0 -1
BITMAP
FF80
0400
6400
7C00
1C00
1A00
0200
1C00
0400
0300
ENDCHAR
STARTCHAR C197
ENCODING 197
SWIDTH 648 0
DWIDTH 9 0
BBX 10 9 0 0
BITMAP
FFC0
0800
6800
D900
CF00
0D00
0900
0100
0100
ENDCHAR
STARTCHAR C198
ENCODING 198
SWIDTH 648 0
DWIDTH 9 0
BBX 10 9 0 0
BITMAP
FFC0
0200
7A00
6600
0700
1B00
3300
0B00
0700
ENDCHAR
STARTCHAR C199
ENCODING 199
SWIDTH 504 0
DWIDTH 7 0
BBX 8 9 0 0
BITMAP
FF
04
74
6C
64
24
7C
64
04
ENDCHAR
STARTCHAR C200
ENCODING 200
SWIDTH 576 0
DWIDTH 8 0
BBX 9 9 0 0
BITMAP
FF80
0200
7A00
6600
6200
0600
1A00
0600
0200
ENDCHAR
STARTCHAR C201
ENCODING 201
SWIDTH 648 0
DWIDTH 9 0
BBX 10 9 0 0
BITMAP
FFC0
0500
7D00
6500
0500
0D00
0F00
0D00
0100
ENDCHAR
STARTCHAR C202
ENCODING 202
SWIDTH 720 0
DWIDTH 10 0
BBX 11 9 0 0
BITMAP
FFE0
3080
0880
7480
4F80
0880
3080
0080
0080
ENDCHAR
STARTCHAR C203
ENCODING 203
SWIDTH 792 0
DWIDTH 11 0
BBX 12 12 0 0
BITMAP
1800
0780
0040
07F0
7400
FC00
24C0
04C0
0440
0440
0480
0300
ENDCHAR
STARTCHAR C204
ENCODING 204
SWIDTH 648 0
DWIDTH 9 0
BBX 10 9 0 0
BITMAP
3DC0
6500
1F00
9100
6700
4780
2680
1080
0F00
ENDCHAR
STARTCHAR C205
ENCODING 205
SWIDTH 576 0
DWIDTH 8 0
BBX 8 9 1 0
BITMAP
77
8C
54
64
44
04
7C
64
04
ENDCHAR
STARTCHAR C206
ENCODING 206
SWIDTH 576 0
DWIDTH 8 0
BBX 9 10 0 -1
BITMAP
3B80
4600
2A00
3200
2200
3A00
C600
2A00
3200
0200
ENDCHAR
STARTCHAR C207
ENCODING 207
SWIDTH 576 0
DWIDTH 8 0
BBX 8 9 1 0
BITMAP
77
8C
54
64
44
6C
94
C4
04
ENDCHAR
STARTCHAR C208
ENCODING 208
SWIDTH 720 0
DWIDTH 10 0
BBX 11 9 0 0
BITMAP
FFE0
3080
7880
F480
2780
0880
3080
0080
0080
ENDCHAR
STARTCHAR C209
ENCODING 209
SWIDTH 648 0
DWIDTH 9 0
BBX 10 10 0 -1
BITMAP
FFC0
6300
1280
1280
3380
0B00
3E00
6E00
6200
0200
ENDCHAR
STARTCHAR C210
ENCODING 210
SWIDTH 720 0
DWIDTH 10 0
BBX 11 9 0 0
BITMAP
FFE0
1800
7F80
B880
9E80
8280
4280
3C80
0080
ENDCHAR
STARTCHAR C211
ENCODING 211
SWIDTH 648 0
DWIDTH 9 0
BBX 10 9 0 0
BITMAP
FFC0
0800
3800
CB00
3D00
0900
0900
0100
0100
ENDCHAR
STARTCHAR C212
ENCODING 212
SWIDTH 648 0
DWIDTH 9 0
BBX 10 9 0 0
BITMAP
FFC0
0400
3C00
4700
3D00
3500
0D00
0500
0500
ENDCHAR
STARTCHAR C213
ENCODING 213
SWIDTH 504 0
DWIDTH 7 0
BBX 9 9 0 0
BITMAP
FF80
0600
3A00
4200
2E00
7200
1A00
0600
0200
ENDCHAR
STARTCHAR C214
ENCODING 214
SWIDTH 504 0
DWIDTH 7 0
BBX 9 9 0 0
BITMAP
FF80
0200
1E00
3200
0E00
3600
4A00
6200
0200
ENDCHAR
STARTCHAR C215
ENCODING 215
SWIDTH 720 0
DWIDTH 10 0
BBX 11 9 0 0
BITMAP
FFE0
0000
0100
5A80
5C80
4080
4080
3F80
0080
ENDCHAR
STARTCHAR C216
ENCODING 216
SWIDTH 576 0
DWIDTH 8 0
BBX 9 10 0 -1
BITMAP
FF80
3000
7E00
4200
2200
1E00
3E00
6A00
6200
0200
ENDCHAR
STARTCHAR C217
ENCODING 217
SWIDTH 576 0
DWIDTH 8 0
BBX 9 9 0 0
BITMAP
FF80
2200
6100
7300
0E00
3200
6E00
6200
0200
ENDCHAR
STARTCHAR C218
ENCODING 218
SWIDTH 1008 0
DWIDTH 14 0
BBX 15 9 0 0
BITMAP
FDEE
2718
64A8
78C8
0188
0008
0008
0008
0008
ENDCHAR
STARTCHAR C219
ENCODING 219
SWIDTH 936 0
DWIDTH 13 0
BBX 14 9 0 0
BITMAP
FFFC
2600
7270
6E48
0148
0250
0640
01C0
0040
ENDCHAR
STARTCHAR C220
ENCODING 220
SWIDTH 576 0
DWIDTH 8 0
BBX 9 9 0 0
BITMAP
FF80
2300
6100
7100
0E00
1E00
3200
0E00
0200
ENDCHAR
STARTCHAR C221
ENCODING 221
SWIDTH 648 0
DWIDTH 9 0
BBX 10 9 0 0
BITMAP
FFC0
2100
6100
7900
5E00
5D00
4900
2100
1E00
ENDCHAR
STARTCHAR C222
ENCODING 222
SWIDTH 648 0
DWIDTH 9 0
BBX 10 9 0 0
BITMAP
FFC0
2100
7100
6E00
1A00
5D00
4900
4100
3F00
ENDCHAR
STARTCHAR C223
ENCODING 223
SWIDTH 720 0
DWIDTH 10 0
BBX 11 9 0 0
BITMAP
FFE0
2380
6180
7180
0E80
0680
0780
0080
0080
ENDCHAR
STARTCHAR C224
ENCODING 224
SWIDTH 576 0
DWIDTH 8 0
BBX 9 9 0 0
BITMAP
FF80
2200
6100
7300
0E00
3600
4A00
6200
0200
ENDCHAR
STARTCHAR C225
ENCODING 225
SWIDTH 648 0
DWIDTH 9 0
BBX 10 9 0 0
BITMAP
FFC0
0400
7C00
E400
E600
1D00
3500
0D00
0400
ENDCHAR
STARTCHAR C226
ENCODING 226
SWIDTH 576 0
DWIDTH 8 0
BBX 9 9 0 0
BITMAP
FF80
0200
3E00
6A00
7A00
4600
7200
0A00
1A00
ENDCHAR
STARTCHAR C227
ENCODING 227
SWIDTH 576 0
DWIDTH 8 0
BBX 9 11 0 -2
BITMAP
FF80
3200
4E00
6200
7A00
7600
6A00
5600
2700
1100
0E00
ENDCHAR
STARTCHAR C228
ENCODING 228
SWIDTH 792 0
DWIDTH 11 0
BBX 12 12 0 0
BITMAP
1800
0780
0040
FFF0
0400
2C00
74C0
64C0
0440
0440
0480
0300
ENDCHAR
STARTCHAR C229
ENCODING 229
SWIDTH 720 0
DWIDTH 10 0
BBX 11 9 0 0
BITMAP
FFE0
3C00
5400
6580
2640
2040
2040
1080
0F00
ENDCHAR
STARTCHAR C230
ENCODING 230
SWIDTH 576 0
DWIDTH 8 0
BBX 9 9 0 0
BITMAP
FF80
3600
4A00
6200
0200
7A00
EE00
3200
2200
ENDCHAR
STARTCHAR C231
ENCODING 231
SWIDTH 576 0
DWIDTH 8 0
BBX 9 9 0 0
BITMAP
FF80
0200
3600
4A00
6200
6600
1A00
0600
0200
ENDCHAR
STARTCHAR C232
ENCODING 232
SWIDTH 720 0
DWIDTH 10 0
BBX 11 9 0 0
BITMAP
FFE0
0280
3E80
6A80
6280
0280
0780
0680
0080
ENDCHAR
STARTCHAR C233
ENCODING 233
SWIDTH 648 0
DWIDTH 9 0
BBX 10 9 0 0
BITMAP
FFC0
0100
3F00
6500
6100
3F00
4500
6100
0100
ENDCHAR
STARTCHAR C234
ENCODING 234
SWIDTH 864 0
DWIDTH 12 0
BBX 13 9 0 0
BITMAP
C3F8
7E00
3200
7BC0
0220
0220
0240
0280
0100
ENDCHAR
STARTCHAR C235
ENCODING 235
SWIDTH 864 0
DWIDTH 12 0
BBX 13 9 0 0
BITMAP
C3F8
7E00
33C0
6AA0
0320
0040
0180
0040
0020
ENDCHAR
STARTCHAR C236
ENCODING 236
SWIDTH 576 0
DWIDTH 8 0
BBX 9 9 0 0
BITMAP
C380
7E00
3200
6A00
0200
0200
3E00
3200
0200
ENDCHAR
STARTCHAR C237
ENCODING 237
SWIDTH 720 0
DWIDTH 10 0
BBX 11 9 0 0
BITMAP
C3E0
7E80
3280
6A80
0280
0280
0780
0680
0080
ENDCHAR
STARTCHAR C238
ENCODING 238
SWIDTH 576 0
DWIDTH 8 0
BBX 9 9 0 0
BITMAP
C380
7E00
3200
6A00
0200
3600
4A00
6200
0200
ENDCHAR
STARTCHAR C239
ENCODING 239
SWIDTH 576 0
DWIDTH 8 0
BBX 9 9 0 0
BITMAP
C380
7E00
3200
6A00
0200
0600
1A00
0600
0200
ENDCHAR
STARTCHAR C240
ENCODING 240
SWIDTH 576 0
DWIDTH 8 0
BBX 9 9 0 0
BITMAP
FF80
3C00
5400
4C00
7A00
6A00
1A00
0800
0800
ENDCHAR
STARTCHAR C241
ENCODING 241
SWIDTH 792 0
DWIDTH 11 0
BBX 12 10 0 -1
BITMAP
FFF0
3C00
5400
4F00
7900
2DC0
4D40
4100
3F00
0100
ENDCHAR
STARTCHAR C242
ENCODING 242
SWIDTH 504 0
DWIDTH 7 0
BBX 9 13 0 -1
BITMAP
C000
3C00
0200
FF80
3C00
5400
4800
7000
2600
4600
4200
4400
3800
ENDCHAR
STARTCHAR C243
ENCODING 243
SWIDTH 576 0
DWIDTH 8 0
BBX 9 13 0 0
BITMAP
1000
1000
1000
1000
FF80
3800
6C00
5A00
7A00
1200
2200
2400
1800
ENDCHAR
STARTCHAR C244
ENCODING 244
SWIDTH 792 0
DWIDTH 11 0
BBX 11 9 0 0
BITMAP
FE00
C3C0
2220
1AC0
2620
6320
12C0
0A00
0600
ENDCHAR
STARTCHAR C245
ENCODING 245
SWIDTH 864 0
DWIDTH 12 0
BBX 13 9 0 0
BITMAP
FBB8
6C60
5AA0
5320
6220
0020
0020
0020
0020
ENDCHAR
STARTCHAR C246
ENCODING 246
SWIDTH 792 0
DWIDTH 11 0
BBX 12 9 0 0
BITMAP
FFF0
3800
68C0
58A0
74A0
08C0
0C80
0280
0180
ENDCHAR
STARTCHAR C247
ENCODING 247
SWIDTH 576 0
DWIDTH 8 0
BBX 9 9 0 0
BITMAP
FF80
3E00
5600
4A00
7A00
3A00
3E00
0200
0200
ENDCHAR
STARTCHAR C248
ENCODING 248
SWIDTH 720 0
DWIDTH 10 0
BBX 11 9 0 0
BITMAP
FFE0
1100
1900
6700
0700
1980
05C0
0380
0300
ENDCHAR
STARTCHAR C249
ENCODING 249
SWIDTH 864 0
DWIDTH 12 0
BBX 13 10 0 -1
BITMAP
FFF8
1900
1900
6780
0480
2CE0
2CE0
2080
1F80
0080
ENDCHAR
STARTCHAR C250
ENCODING 250
SWIDTH 720 0
DWIDTH 10 0
BBX 11 11 0 -2
BITMAP
FFE0
1100
1900
6700
0700
0980
0580
1B00
2700
3100
0100
ENDCHAR
STARTCHAR C251
ENCODING 251
SWIDTH 792 0
DWIDTH 11 0
BBX 12 9 0 0
BITMAP
FC70
1240
3240
6E40
0F40
0D40
0240
0340
00C0
ENDCHAR
STARTCHAR C252
ENCODING 252
SWIDTH 792 0
DWIDTH 11 0
BBX 13 12 0 0
BITMAP
1800
07C0
0020
FFF8
6200
1200
1E60
1260
6220
0220
0240
0180
ENDCHAR
STARTCHAR C253
ENCODING 253
SWIDTH 648 0
DWIDTH 9 0
BBX 10 9 0 0
BITMAP
FFC0
1880
1480
E300
4700
2680
2080
1080
0F00
ENDCHAR
STARTCHAR C254
ENCODING 254
SWIDTH 576 0
DWIDTH 8 0
BBX 9 10 0 -1
BITMAP
FF80
3200
3200
4C00
1C00
7200
7C00
2E00
2200
1C00
ENDCHAR
STARTCHAR C255
ENCODING 255
SWIDTH 648 0
DWIDTH 9 0
BBX 10 10 0 -1
BITMAP
FFC0
1100
1900
6700
0900
5D00
4D00
4100
3F00
0100
ENDCHAR
ENDFONT
