STARTFONT 2.1
COMMENT This font image translated from Metafont
COMMENT Input file was ``bnr10''
COMMENT DPI was ``120'', usermag ``1000'', blackness ``3''
COMMENT shrink was 1
FONT -*-bengali-medium-r-*-*-*-120-*-*-*-*-*-fontspecific
SIZE 10 120 120
FONTBOUNDINGBOX 31 21 -10 -5
STARTPROPERTIES 4
FONT_ASCENT 16
FONT_DESCENT 3
COPYRIGHT "GNU General Public License"
_XMBDFED_INFO "Edited with xmbdfed 4.5."
ENDPROPERTIES
CHARS 249
STARTCHAR C001
ENCODING 1
SWIDTH 480 0
DWIDTH 8 0
BBX 10 15 -1 -1
BITMAP
8000
7E00
0100
0080
7FC0
0E00
1900
0100
0100
2200
1C00
0C00
0200
0100
0080
ENDCHAR
STARTCHAR C002
ENCODING 2
SWIDTH 600 0
DWIDTH 10 0
BBX 11 14 0 0
BITMAP
8000
7F00
0080
0040
FFE0
3000
6880
6580
0700
0D00
1900
6100
0100
0080
ENDCHAR
STARTCHAR C003
ENCODING 3
SWIDTH 600 0
DWIDTH 10 0
BBX 13 14 -2 1
BITMAP
8000
C000
3FC0
0020
0010
3FF8
0100
1100
1120
11D0
1010
0810
0420
03C0
ENDCHAR
STARTCHAR C004
ENCODING 4
SWIDTH 660 0
DWIDTH 11 0
BBX 12 13 0 1
BITMAP
8000
7F80
0040
0020
FFF0
A200
A200
6240
63A0
5020
3020
1840
0F80
ENDCHAR
STARTCHAR C005
ENCODING 5
SWIDTH 720 0
DWIDTH 12 0
BBX 10 10 1 0
BITMAP
CA40
F640
1A40
2240
4240
6240
1340
0AC0
0640
0200
ENDCHAR
STARTCHAR C006
ENCODING 6
SWIDTH 660 0
DWIDTH 11 0
BBX 9 10 1 0
BITMAP
0700
0880
1080
9C80
9C80
8080
8080
7F80
0080
0080
ENDCHAR
STARTCHAR C007
ENCODING 7
SWIDTH 780 0
DWIDTH 13 0
BBX 12 15 1 0
BITMAP
1800
1000
1000
0F80
0060
0710
0890
10A0
9CC0
9C80
8080
8080
7F80
0080
0080
ENDCHAR
STARTCHAR C008
ENCODING 8
SWIDTH 600 0
DWIDTH 10 0
BBX 8 9 1 1
BITMAP
1E
31
B1
8E
8E
81
41
22
1C
ENDCHAR
STARTCHAR C014
ENCODING 14
SWIDTH 300 0
DWIDTH 5 0
BBX 6 10 0 0
BITMAP
FC
10
20
20
20
20
20
20
20
40
ENDCHAR
STARTCHAR C015
ENCODING 15
SWIDTH 0 0
DWIDTH 0 0
BBX 9 3 -10 -1
BITMAP
8080
8080
7F80
ENDCHAR
STARTCHAR C016
ENCODING 16
SWIDTH 600 0
DWIDTH 10 0
BBX 11 11 0 -1
BITMAP
FFE0
1880
1480
6700
0C80
1880
0080
1F00
0600
0100
0080
ENDCHAR
STARTCHAR C017
ENCODING 17
SWIDTH 600 0
DWIDTH 10 0
BBX 12 10 0 0
BITMAP
FFF0
0C20
0A20
71C0
0040
0040
3F40
38C0
3840
0040
ENDCHAR
STARTCHAR C018
ENCODING 18
SWIDTH 1140 0
DWIDTH 19 0
BBX 20 11 0 0
BITMAP
000040
FF9E70
18E140
1492C0
631440
001840
000040
000040
000040
000040
000040
ENDCHAR
STARTCHAR C019
ENCODING 19
SWIDTH 1140 0
DWIDTH 19 0
BBX 20 11 0 0
BITMAP
000040
FF9E70
18E140
1492C0
631440
001840
001C40
0023C0
003840
001840
000040
ENDCHAR
STARTCHAR C020
ENCODING 20
SWIDTH 1020 0
DWIDTH 17 0
BBX 18 10 0 0
BITMAP
FFFFC0
188600
148500
63C480
002480
004780
00C700
003400
000C00
000400
ENDCHAR
STARTCHAR C021
ENCODING 21
SWIDTH 600 0
DWIDTH 10 0
BBX 12 10 0 0
BITMAP
FFF0
0C20
0A20
71C0
00C0
0740
1C40
0240
01C0
0040
ENDCHAR
STARTCHAR C022
ENCODING 22
SWIDTH 780 0
DWIDTH 13 0
BBX 14 10 0 0
BITMAP
FFFC
0850
1450
6390
0090
0090
01D0
01B0
0010
0010
ENDCHAR
STARTCHAR C023
ENCODING 23
SWIDTH 600 0
DWIDTH 10 0
BBX 12 10 0 0
BITMAP
FFF0
0C20
0A20
71C0
0040
1C40
23C0
3240
3040
0040
ENDCHAR
STARTCHAR C024
ENCODING 24
SWIDTH 480 0
DWIDTH 8 0
BBX 9 11 0 -1
BITMAP
FF80
3C00
6200
0200
4200
3C00
0C00
3E00
4500
6400
0400
ENDCHAR
STARTCHAR C025
ENCODING 25
SWIDTH 720 0
DWIDTH 12 0
BBX 14 10 0 0
BITMAP
FFFC
0100
0560
1170
2110
31E0
0900
0500
1B00
1900
ENDCHAR
STARTCHAR C026
ENCODING 26
SWIDTH 720 0
DWIDTH 12 0
BBX 13 10 0 0
BITMAP
FFF8
0100
0540
11A0
2120
3120
0920
0520
1B20
1920
ENDCHAR
STARTCHAR C027
ENCODING 27
SWIDTH 540 0
DWIDTH 9 0
BBX 10 11 0 -1
BITMAP
FFC0
3200
6D00
6500
6100
0200
7C00
1800
0400
0300
0080
ENDCHAR
STARTCHAR C028
ENCODING 28
SWIDTH 660 0
DWIDTH 11 0
BBX 12 11 0 -1
BITMAP
FFF0
1E00
3180
0140
0140
0240
3C40
1840
0440
0240
0180
ENDCHAR
STARTCHAR C029
ENCODING 29
SWIDTH 720 0
DWIDTH 12 0
BBX 10 10 1 0
BITMAP
3D00
F380
C980
8880
9380
4380
4040
2040
1080
0F00
ENDCHAR
STARTCHAR C030
ENCODING 30
SWIDTH 720 0
DWIDTH 12 0
BBX 10 10 1 0
BITMAP
ED00
BB80
FD80
EC80
8380
4380
4040
2040
1080
0F00
ENDCHAR
STARTCHAR C031
ENCODING 31
SWIDTH 660 0
DWIDTH 11 0
BBX 12 10 0 0
BITMAP
FFF0
1C00
7380
02C0
02C0
4400
3800
0800
0600
0100
ENDCHAR
STARTCHAR C032
ENCODING 32
SWIDTH 420 0
DWIDTH 7 0
BBX 0 0 0 0
BITMAP
ENDCHAR
STARTCHAR C033
ENCODING 33
SWIDTH 600 0
DWIDTH 10 0
BBX 3 13 6 -2
BITMAP
40
40
40
40
40
40
40
40
40
00
00
E0
E0
ENDCHAR
STARTCHAR C034
ENCODING 34
SWIDTH 420 0
DWIDTH 7 0
BBX 6 6 1 7
BITMAP
FC
FC
24
48
48
80
ENDCHAR
STARTCHAR C035
ENCODING 35
SWIDTH 540 0
DWIDTH 9 0
BBX 7 12 1 -2
BITMAP
14
14
14
24
FE
28
28
FE
48
50
50
50
ENDCHAR
STARTCHAR C036
ENCODING 36
SWIDTH 660 0
DWIDTH 11 0
BBX 9 14 1 -1
BITMAP
0400
0800
0800
0800
1000
1000
1000
2780
2000
2000
4000
4000
4000
8000
ENDCHAR
STARTCHAR C037
ENCODING 37
SWIDTH 720 0
DWIDTH 12 0
BBX 10 15 1 -1
BITMAP
6000
B080
9F80
9100
9200
9200
9400
6400
0980
0A40
1240
2240
2240
4240
4180
ENDCHAR
STARTCHAR C038
ENCODING 38
SWIDTH 480 0
DWIDTH 8 0
BBX 8 12 1 -1
BITMAP
34
CF
CC
0C
F4
34
0C
04
3C
64
1C
04
ENDCHAR
STARTCHAR C039
ENCODING 39
SWIDTH 300 0
DWIDTH 5 0
BBX 3 5 1 8
BITMAP
E0
E0
20
20
40
ENDCHAR
STARTCHAR C040
ENCODING 40
SWIDTH 300 0
DWIDTH 5 0
BBX 4 16 1 -3
BITMAP
10
20
60
60
40
C0
C0
C0
C0
C0
C0
C0
60
60
20
10
ENDCHAR
STARTCHAR C041
ENCODING 41
SWIDTH 300 0
DWIDTH 5 0
BBX 4 16 0 -3
BITMAP
80
40
60
60
20
30
30
30
30
30
30
30
60
60
40
80
ENDCHAR
STARTCHAR C042
ENCODING 42
SWIDTH 480 0
DWIDTH 8 0
BBX 6 8 1 5
BITMAP
10
94
58
30
78
94
10
10
ENDCHAR
STARTCHAR C043
ENCODING 43
SWIDTH 660 0
DWIDTH 11 0
BBX 11 10 0 0
BITMAP
0400
0400
0400
0400
0400
FFE0
0400
0400
0400
0400
ENDCHAR
STARTCHAR C044
ENCODING 44
SWIDTH 360 0
DWIDTH 6 0
BBX 3 5 2 -3
BITMAP
E0
E0
20
40
40
ENDCHAR
STARTCHAR C045
ENCODING 45
SWIDTH 360 0
DWIDTH 6 0
BBX 6 1 0 4
BITMAP
FC
ENDCHAR
STARTCHAR C046
ENCODING 46
SWIDTH 480 0
DWIDTH 8 0
BBX 1 10 6 0
BITMAP
80
80
80
80
80
80
80
80
80
80
ENDCHAR
STARTCHAR C047
ENCODING 47
SWIDTH 300 0
DWIDTH 5 0
BBX 5 12 0 -2
BITMAP
08
10
10
10
10
20
20
20
40
40
40
80
ENDCHAR
STARTCHAR C048
ENCODING 48
SWIDTH 540 0
DWIDTH 9 0
BBX 7 8 1 1
BITMAP
38
44
82
82
82
82
44
38
ENDCHAR
STARTCHAR C049
ENCODING 49
SWIDTH 540 0
DWIDTH 9 0
BBX 7 10 1 0
BITMAP
C0
80
60
18
04
02
02
1A
3C
30
ENDCHAR
STARTCHAR C050
ENCODING 50
SWIDTH 540 0
DWIDTH 9 0
BBX 7 11 1 -1
BITMAP
40
60
1C
02
02
82
7C
30
08
04
02
ENDCHAR
STARTCHAR C051
ENCODING 51
SWIDTH 540 0
DWIDTH 9 0
BBX 9 7 0 1
BITMAP
8400
4F00
4C80
4080
2080
1100
0E00
ENDCHAR
STARTCHAR C052
ENCODING 52
SWIDTH 540 0
DWIDTH 9 0
BBX 7 10 1 0
BITMAP
7C
82
82
82
7C
7C
82
82
82
7C
ENDCHAR
STARTCHAR C053
ENCODING 53
SWIDTH 540 0
DWIDTH 9 0
BBX 8 10 0 0
BITMAP
18
28
47
41
82
84
84
84
44
3E
ENDCHAR
STARTCHAR C054
ENCODING 54
SWIDTH 540 0
DWIDTH 9 0
BBX 9 8 0 1
BITMAP
1000
8800
4900
4A80
4C80
4080
2100
1E00
ENDCHAR
STARTCHAR C055
ENCODING 55
SWIDTH 540 0
DWIDTH 9 0
BBX 7 10 1 0
BITMAP
38
44
84
FC
04
04
04
04
04
02
ENDCHAR
STARTCHAR C056
ENCODING 56
SWIDTH 540 0
DWIDTH 9 0
BBX 9 10 0 0
BITMAP
C000
4000
4000
4080
7F00
4400
4400
4400
4800
7000
ENDCHAR
STARTCHAR C057
ENCODING 57
SWIDTH 540 0
DWIDTH 9 0
BBX 7 10 1 0
BITMAP
80
80
40
30
08
04
72
8A
CA
CC
ENDCHAR
STARTCHAR C058
ENCODING 58
SWIDTH 420 0
DWIDTH 7 0
BBX 3 8 3 1
BITMAP
E0
E0
E0
00
00
00
E0
E0
ENDCHAR
STARTCHAR C059
ENCODING 59
SWIDTH 360 0
DWIDTH 6 0
BBX 3 9 2 -3
BITMAP
E0
E0
E0
00
E0
E0
20
40
40
ENDCHAR
STARTCHAR C060
ENCODING 60
SWIDTH 720 0
DWIDTH 12 0
BBX 6 10 6 0
BITMAP
84
84
84
84
84
84
84
84
84
84
ENDCHAR
STARTCHAR C061
ENCODING 61
SWIDTH 720 0
DWIDTH 12 0
BBX 10 5 1 2
BITMAP
FFC0
0000
0000
0000
FFC0
ENDCHAR
STARTCHAR C062
ENCODING 62
SWIDTH 480 0
DWIDTH 8 0
BBX 9 11 0 -1
BITMAP
FF80
3C00
6200
0200
4200
3C00
0C00
0200
1F00
3200
0E00
ENDCHAR
STARTCHAR C063
ENCODING 63
SWIDTH 780 0
DWIDTH 13 0
BBX 6 12 6 -1
BITMAP
78
C4
C4
04
08
08
10
10
10
00
30
30
ENDCHAR
STARTCHAR C064
ENCODING 64
SWIDTH 660 0
DWIDTH 11 0
BBX 12 11 0 -1
BITMAP
FFF0
0400
7400
6CC0
0740
0440
00C0
0340
0740
00C0
0040
ENDCHAR
STARTCHAR C065
ENCODING 65
SWIDTH 300 0
DWIDTH 5 0
BBX 6 11 0 0
BITMAP
20
FC
20
20
20
20
20
20
20
20
20
ENDCHAR
STARTCHAR C066
ENCODING 66
SWIDTH 540 0
DWIDTH 9 0
BBX 8 10 1 0
BITMAP
78
44
B8
80
80
60
18
06
01
01
ENDCHAR
STARTCHAR C067
ENCODING 67
SWIDTH 540 0
DWIDTH 9 0
BBX 10 11 0 -1
BITMAP
FFC0
4000
7E00
4900
4900
7100
0600
7800
0C00
0300
0080
ENDCHAR
STARTCHAR C068
ENCODING 68
SWIDTH 600 0
DWIDTH 10 0
BBX 11 9 0 1
BITMAP
FFE0
0400
4400
4480
4740
4040
2040
1080
0F00
ENDCHAR
STARTCHAR C069
ENCODING 69
SWIDTH 300 0
DWIDTH 5 0
BBX 8 16 -2 -1
BITMAP
80
80
78
04
02
3F
04
08
08
10
10
10
10
10
0A
06
ENDCHAR
STARTCHAR C070
ENCODING 70
SWIDTH 540 0
DWIDTH 9 0
BBX 10 10 0 0
BITMAP
FFC0
3100
0900
1500
2300
6100
1900
0500
0300
0100
ENDCHAR
STARTCHAR C071
ENCODING 71
SWIDTH 540 0
DWIDTH 9 0
BBX 10 10 0 0
BITMAP
FFC0
4100
4100
3900
1100
2100
3100
0D00
0300
0100
ENDCHAR
STARTCHAR C072
ENCODING 72
SWIDTH 360 0
DWIDTH 6 0
BBX 4 9 1 1
BITMAP
60
90
90
60
00
60
90
90
60
ENDCHAR
STARTCHAR C073
ENCODING 73
SWIDTH 240 0
DWIDTH 4 0
BBX 13 15 -8 0
BITMAP
7E00
8180
8040
7E20
0120
00F8
0020
0020
0020
0020
0020
0020
0020
0020
0020
ENDCHAR
STARTCHAR C074
ENCODING 74
SWIDTH 660 0
DWIDTH 11 0
BBX 12 11 0 0
BITMAP
0040
FE70
0640
0A40
1240
2240
3240
0B40
06C0
0240
0200
ENDCHAR
STARTCHAR C075
ENCODING 75
SWIDTH 600 0
DWIDTH 10 0
BBX 11 11 0 0
BITMAP
0080
0CE0
F280
E280
0280
0C80
3880
0480
0280
0180
0080
ENDCHAR
STARTCHAR C076
ENCODING 76
SWIDTH 720 0
DWIDTH 12 0
BBX 14 10 0 0
BITMAP
FFFC
2080
7FE0
6490
0490
1C90
1E90
1D90
0090
0090
ENDCHAR
STARTCHAR C077
ENCODING 77
SWIDTH 420 0
DWIDTH 7 0
BBX 4 9 2 1
BITMAP
40
A0
A0
40
80
80
40
20
10
ENDCHAR
STARTCHAR C078
ENCODING 78
SWIDTH 540 0
DWIDTH 9 0
BBX 9 11 1 0
BITMAP
0200
7B80
8600
8200
A200
6200
0200
0200
0200
0200
0200
ENDCHAR
STARTCHAR C079
ENCODING 79
SWIDTH 240 0
DWIDTH 4 0
BBX 13 15 -8 0
BITMAP
8000
8000
7F80
0040
0020
00F8
0020
0020
0020
0020
0020
0020
0020
0020
0020
ENDCHAR
STARTCHAR C080
ENCODING 80
SWIDTH 780 0
DWIDTH 13 0
BBX 11 11 1 0
BITMAP
0200
72C0
CB20
CA20
1260
6260
E220
1320
0AC0
0600
0600
ENDCHAR
STARTCHAR C081
ENCODING 81
SWIDTH 900 0
DWIDTH 15 0
BBX 13 10 1 0
BITMAP
0700
08B0
10C8
9C88
9CB8
80B8
8088
7FC8
00B0
0080
ENDCHAR
STARTCHAR C082
ENCODING 82
SWIDTH 600 0
DWIDTH 10 0
BBX 11 12 0 -2
BITMAP
FFE0
0400
4400
4480
4740
4040
2040
1080
0F00
0000
0600
0600
ENDCHAR
STARTCHAR C083
ENCODING 83
SWIDTH 600 0
DWIDTH 10 0
BBX 11 11 0 0
BITMAP
0080
CEE0
3180
3880
7C80
7C80
0080
0080
0080
0080
0080
ENDCHAR
STARTCHAR C084
ENCODING 84
SWIDTH 480 0
DWIDTH 8 0
BBX 10 14 -1 0
BITMAP
8000
7E00
0100
0080
7FC0
2000
2000
2300
2300
2100
2100
2200
2400
1800
ENDCHAR
STARTCHAR C085
ENCODING 85
SWIDTH 0 0
DWIDTH 0 0
BBX 8 6 -5 -5
BITMAP
70
80
80
78
06
01
ENDCHAR
STARTCHAR C086
ENCODING 86
SWIDTH 480 0
DWIDTH 8 0
BBX 9 12 0 -2
BITMAP
FF80
4000
4000
4600
4600
4200
4200
4400
4800
3000
3000
3000
ENDCHAR
STARTCHAR C087
ENCODING 87
SWIDTH 0 0
DWIDTH 0 0
BBX 4 3 -4 -3
BITMAP
40
C0
30
ENDCHAR
STARTCHAR C088
ENCODING 88
SWIDTH 480 0
DWIDTH 8 0
BBX 9 10 0 0
BITMAP
FF80
4000
4000
4600
4600
4200
4200
4400
4800
3000
ENDCHAR
STARTCHAR C089
ENCODING 89
SWIDTH 540 0
DWIDTH 9 0
BBX 10 10 0 0
BITMAP
FFC0
3100
0900
1100
2100
6100
1900
0500
0300
0100
ENDCHAR
STARTCHAR C090
ENCODING 90
SWIDTH 480 0
DWIDTH 8 0
BBX 9 16 0 0
BITMAP
1000
2000
2000
2000
1000
1000
FF80
0C00
0C00
0A00
0A00
1200
2200
4200
4400
3800
ENDCHAR
STARTCHAR C091
ENCODING 91
SWIDTH 180 0
DWIDTH 3 0
BBX 3 17 1 -3
BITMAP
E0
E0
80
80
80
80
80
80
80
80
80
80
80
80
80
80
E0
ENDCHAR
STARTCHAR C092
ENCODING 92
SWIDTH 420 0
DWIDTH 7 0
BBX 6 6 1 7
BITMAP
48
48
90
FC
FC
FC
ENDCHAR
STARTCHAR C093
ENCODING 93
SWIDTH 180 0
DWIDTH 3 0
BBX 3 17 0 -3
BITMAP
E0
E0
60
60
60
60
60
60
60
60
60
60
60
60
60
E0
E0
ENDCHAR
STARTCHAR C094
ENCODING 94
SWIDTH 0 0
DWIDTH 0 0
BBX 6 4 -2 11
BITMAP
04
10
60
80
ENDCHAR
STARTCHAR C095
ENCODING 95
SWIDTH 0 0
DWIDTH 0 0
BBX 4 3 -2 -4
BITMAP
80
60
10
ENDCHAR
STARTCHAR C096
ENCODING 96
SWIDTH 300 0
DWIDTH 5 0
BBX 3 6 1 7
BITMAP
40
40
80
E0
E0
E0
ENDCHAR
STARTCHAR C097
ENCODING 97
SWIDTH 780 0
DWIDTH 13 0
BBX 14 10 0 0
BITMAP
FFFC
0E10
4D90
4C50
2050
2050
1050
08B0
0730
0010
ENDCHAR
STARTCHAR C098
ENCODING 98
SWIDTH 480 0
DWIDTH 8 0
BBX 10 10 0 0
BITMAP
FFC0
0300
0900
1100
4100
6100
1900
0500
0300
0100
ENDCHAR
STARTCHAR C099
ENCODING 99
SWIDTH 480 0
DWIDTH 8 0
BBX 9 10 0 0
BITMAP
FF80
4000
6000
5800
4600
4200
4200
4400
4800
3000
ENDCHAR
STARTCHAR C100
ENCODING 100
SWIDTH 480 0
DWIDTH 8 0
BBX 9 10 0 0
BITMAP
FF80
4000
4200
4E00
5400
6400
4400
0400
0400
0400
ENDCHAR
STARTCHAR C101
ENCODING 101
SWIDTH 300 0
DWIDTH 5 0
BBX 6 11 0 -1
BITMAP
FC
10
20
20
40
40
40
40
40
28
18
ENDCHAR
STARTCHAR C102
ENCODING 102
SWIDTH 660 0
DWIDTH 11 0
BBX 12 10 0 0
BITMAP
FFF0
3000
09C0
1120
21E0
61C0
1900
0500
0300
0300
ENDCHAR
STARTCHAR C103
ENCODING 103
SWIDTH 540 0
DWIDTH 9 0
BBX 10 11 0 0
BITMAP
0100
3DC0
4300
F300
8900
0900
1100
1100
0100
0100
0100
ENDCHAR
STARTCHAR C104
ENCODING 104
SWIDTH 480 0
DWIDTH 8 0
BBX 9 11 0 -1
BITMAP
FF80
1C00
3200
0200
0200
4400
3800
1800
0400
0200
0100
ENDCHAR
STARTCHAR C105
ENCODING 105
SWIDTH 240 0
DWIDTH 4 0
BBX 12 15 0 0
BITMAP
1F00
20C0
4020
4010
4000
FC00
2000
2000
2000
2000
2000
2000
2000
2000
2000
ENDCHAR
STARTCHAR C106
ENCODING 106
SWIDTH 720 0
DWIDTH 12 0
BBX 13 10 0 0
BITMAP
FFF8
9800
A7E0
A040
6340
5CC0
20C0
10C0
0F20
0020
ENDCHAR
STARTCHAR C107
ENCODING 107
SWIDTH 720 0
DWIDTH 12 0
BBX 13 10 0 0
BITMAP
FFF8
01C0
0520
1120
2100
6160
1960
0500
0300
0100
ENDCHAR
STARTCHAR C108
ENCODING 108
SWIDTH 600 0
DWIDTH 10 0
BBX 11 10 0 0
BITMAP
FFE0
0080
3B80
4580
4480
5880
3880
0080
0080
0080
ENDCHAR
STARTCHAR C109
ENCODING 109
SWIDTH 540 0
DWIDTH 9 0
BBX 10 10 0 0
BITMAP
FFC0
4100
2100
1100
0900
3900
3D00
3B00
0100
0100
ENDCHAR
STARTCHAR C110
ENCODING 110
SWIDTH 540 0
DWIDTH 9 0
BBX 10 10 0 0
BITMAP
FFC0
0100
0100
0100
7900
7500
7300
0100
0100
0100
ENDCHAR
STARTCHAR C111
ENCODING 111
SWIDTH 660 0
DWIDTH 11 0
BBX 10 14 0 1
BITMAP
1800
1000
1000
0F80
0040
0F40
98C0
9880
8780
8700
4080
4080
2100
1E00
ENDCHAR
STARTCHAR C112
ENCODING 112
SWIDTH 600 0
DWIDTH 10 0
BBX 10 11 1 0
BITMAP
0100
79C0
C500
2700
3900
2100
0100
0100
0100
0100
0100
ENDCHAR
STARTCHAR C113
ENCODING 113
SWIDTH 600 0
DWIDTH 10 0
BBX 8 10 1 1
BITMAP
0C
52
52
BC
92
93
9D
41
22
1C
ENDCHAR
STARTCHAR C114
ENCODING 114
SWIDTH 480 0
DWIDTH 8 0
BBX 10 10 0 0
BITMAP
FFC0
0300
0900
1100
4100
6100
1900
0500
1B00
1900
ENDCHAR
STARTCHAR C115
ENCODING 115
SWIDTH 600 0
DWIDTH 10 0
BBX 11 10 0 0
BITMAP
FFE0
1080
0880
0E80
0980
4880
3080
0080
0080
0080
ENDCHAR
STARTCHAR C116
ENCODING 116
SWIDTH 600 0
DWIDTH 10 0
BBX 11 9 0 1
BITMAP
FFE0
8000
8F00
4E80
4E40
4040
2040
1080
0F00
ENDCHAR
STARTCHAR C117
ENCODING 117
SWIDTH 0 0
DWIDTH 0 0
BBX 7 4 -5 -4
BITMAP
70
90
6C
02
ENDCHAR
STARTCHAR C118
ENCODING 118
SWIDTH 600 0
DWIDTH 10 0
BBX 12 9 0 1
BITMAP
FFF0
8000
8C00
4CC0
4F20
4020
2020
1040
0F80
ENDCHAR
STARTCHAR C119
ENCODING 119
SWIDTH 0 0
DWIDTH 0 0
BBX 6 4 -5 11
BITMAP
B0
B4
44
38
ENDCHAR
STARTCHAR C120
ENCODING 120
SWIDTH 540 0
DWIDTH 9 0
BBX 9 11 1 0
BITMAP
2000
6380
4600
3A00
2200
4200
C200
3200
0A00
0600
0200
ENDCHAR
STARTCHAR C121
ENCODING 121
SWIDTH 540 0
DWIDTH 9 0
BBX 10 10 0 0
BITMAP
FFC0
3100
0900
1100
2100
6100
1900
0500
1B00
1900
ENDCHAR
STARTCHAR C122
ENCODING 122
SWIDTH 600 0
DWIDTH 10 0
BBX 10 11 1 0
BITMAP
0100
79C0
C500
C500
0900
7100
7100
0D00
0300
0100
0100
ENDCHAR
STARTCHAR C123
ENCODING 123
SWIDTH 600 0
DWIDTH 10 0
BBX 11 1 0 4
BITMAP
FFE0
ENDCHAR
STARTCHAR C124
ENCODING 124
SWIDTH 1080 0
DWIDTH 18 0
BBX 19 1 0 4
BITMAP
FFFFE0
ENDCHAR
STARTCHAR C125
ENCODING 125
SWIDTH 480 0
DWIDTH 8 0
BBX 9 11 0 -1
BITMAP
FF80
3C00
6200
0200
4200
3C00
0C00
3E00
4B00
6200
6200
ENDCHAR
STARTCHAR C126
ENCODING 126
SWIDTH 660 0
DWIDTH 11 0
BBX 10 4 0 3
BITMAP
3800
7C40
C7C0
0380
ENDCHAR
STARTCHAR C127
ENCODING 127
SWIDTH 960 0
DWIDTH 16 0
BBX 17 13 0 -2
BITMAP
000200
FFF380
048E00
05C600
04A200
47A200
406200
404200
204200
108200
0F0200
060000
060000
ENDCHAR
STARTCHAR C128
ENCODING 128
SWIDTH 720 0
DWIDTH 12 0
BBX 13 10 0 0
BITMAP
FFF8
07C0
1920
2160
27E0
1940
3120
0D60
0340
0100
ENDCHAR
STARTCHAR C129
ENCODING 129
SWIDTH 540 0
DWIDTH 9 0
BBX 10 15 0 -1
BITMAP
C000
3E00
0100
0080
FFC0
0E00
3500
6700
1700
0C00
0F00
1300
1100
1200
0C00
ENDCHAR
STARTCHAR C130
ENCODING 130
SWIDTH 720 0
DWIDTH 12 0
BBX 14 10 0 0
BITMAP
FFFC
0F00
10E0
7090
7770
4770
2080
2080
1080
0F00
ENDCHAR
STARTCHAR C131
ENCODING 131
SWIDTH 720 0
DWIDTH 12 0
BBX 13 10 0 0
BITMAP
FFF8
0780
1940
2120
2760
1960
3100
0D00
0300
0100
ENDCHAR
STARTCHAR C132
ENCODING 132
SWIDTH 660 0
DWIDTH 11 0
BBX 12 10 0 0
BITMAP
FFF0
1E40
6540
6740
1740
0C40
0F40
0EC0
0040
0040
ENDCHAR
STARTCHAR C133
ENCODING 133
SWIDTH 840 0
DWIDTH 14 0
BBX 15 10 0 0
BITMAP
FFFE
0300
04B0
08C8
4E98
4E98
4080
4080
3F80
0080
ENDCHAR
STARTCHAR C134
ENCODING 134
SWIDTH 660 0
DWIDTH 11 0
BBX 12 10 0 0
BITMAP
FFF0
0780
1940
31C0
0DC0
0300
3700
4B00
6100
6100
ENDCHAR
STARTCHAR C135
ENCODING 135
SWIDTH 840 0
DWIDTH 14 0
BBX 15 10 0 0
BITMAP
FFFE
2480
7BE0
6490
0488
1CB8
1EB8
1D80
0080
0080
ENDCHAR
STARTCHAR C136
ENCODING 136
SWIDTH 720 0
DWIDTH 12 0
BBX 14 12 0 -2
BITMAP
FFFC
7480
6BE0
6490
04B0
1EB0
1980
0E80
1980
1880
0080
0080
ENDCHAR
STARTCHAR C137
ENCODING 137
SWIDTH 840 0
DWIDTH 14 0
BBX 15 13 0 -3
BITMAP
FFFE
7488
6BE8
6498
04F8
1CF8
1A88
0188
0388
03E8
0018
0008
0008
ENDCHAR
STARTCHAR C138
ENCODING 138
SWIDTH 660 0
DWIDTH 11 0
BBX 12 10 0 0
BITMAP
FFF0
0E40
3540
6740
1740
0F40
04C0
3840
0040
0040
ENDCHAR
STARTCHAR C139
ENCODING 139
SWIDTH 660 0
DWIDTH 11 0
BBX 11 11 1 0
BITMAP
0200
7BE0
8600
E200
1200
1200
0780
1A80
1A80
0680
0280
ENDCHAR
STARTCHAR C140
ENCODING 140
SWIDTH 540 0
DWIDTH 9 0
BBX 9 11 1 0
BITMAP
0200
7B80
8600
E200
1200
3200
0200
7A00
6600
6200
0200
ENDCHAR
STARTCHAR C141
ENCODING 141
SWIDTH 540 0
DWIDTH 9 0
BBX 9 11 1 0
BITMAP
0200
7B80
8600
E200
1200
3200
0600
1A00
1A00
0600
0200
ENDCHAR
STARTCHAR C142
ENCODING 142
SWIDTH 720 0
DWIDTH 12 0
BBX 13 11 0 0
BITMAP
0080
7CF8
82A0
F1A0
08A0
18A0
00A0
03A0
03E0
03A0
0020
ENDCHAR
STARTCHAR C143
ENCODING 143
SWIDTH 600 0
DWIDTH 10 0
BBX 10 11 1 0
BITMAP
0100
7DC0
8300
E100
1100
1100
0100
7700
E900
E100
0100
ENDCHAR
STARTCHAR C144
ENCODING 144
SWIDTH 540 0
DWIDTH 9 0
BBX 10 11 0 -1
BITMAP
FFC0
4100
4500
3900
3100
0D00
0300
3D00
3B00
0100
0100
ENDCHAR
STARTCHAR C145
ENCODING 145
SWIDTH 600 0
DWIDTH 10 0
BBX 11 10 0 0
BITMAP
FFE0
3A40
6580
6200
0700
1A80
3280
0B80
0780
0200
ENDCHAR
STARTCHAR C146
ENCODING 146
SWIDTH 1200 0
DWIDTH 20 0
BBX 20 11 1 0
BITMAP
0E0000
53FFF0
BC9200
91EB00
939680
5D1240
4173C0
227BC0
1C6600
000200
000200
ENDCHAR
STARTCHAR C147
ENCODING 147
SWIDTH 780 0
DWIDTH 13 0
BBX 14 11 0 0
BITMAP
0610
EA1C
5C10
4810
4B90
2D50
2150
1E90
0190
0070
0010
ENDCHAR
STARTCHAR C148
ENCODING 148
SWIDTH 600 0
DWIDTH 10 0
BBX 11 10 0 0
BITMAP
FFE0
3480
6B80
6580
0700
0900
1100
6100
0100
0080
ENDCHAR
STARTCHAR C149
ENCODING 149
SWIDTH 900 0
DWIDTH 15 0
BBX 15 11 1 0
BITMAP
0C00
57FE
BA08
9208
97C8
9A88
4308
4588
3868
0018
0008
ENDCHAR
STARTCHAR C150
ENCODING 150
SWIDTH 660 0
DWIDTH 11 0
BBX 11 11 1 0
BITMAP
0C00
57E0
B880
9080
9680
9A80
4280
3C80
0E80
0D80
0080
ENDCHAR
STARTCHAR C151
ENCODING 151
SWIDTH 720 0
DWIDTH 12 0
BBX 14 10 0 0
BITMAP
FFFC
4200
7300
4EE0
4610
4A10
5210
2220
0240
0180
ENDCHAR
STARTCHAR C152
ENCODING 152
SWIDTH 720 0
DWIDTH 12 0
BBX 14 10 0 0
BITMAP
FFFC
4200
73E0
4E90
4690
4B20
51C0
2080
0040
0020
ENDCHAR
STARTCHAR C153
ENCODING 153
SWIDTH 720 0
DWIDTH 12 0
BBX 13 12 0 -2
BITMAP
FFF8
4400
7FC0
4520
4620
4840
3380
0080
0040
03E0
00C0
0040
ENDCHAR
STARTCHAR C154
ENCODING 154
SWIDTH 660 0
DWIDTH 11 0
BBX 12 10 0 0
BITMAP
FFF0
2000
3C00
2400
2F80
3240
5AC0
4240
4380
3E00
ENDCHAR
STARTCHAR C155
ENCODING 155
SWIDTH 960 0
DWIDTH 16 0
BBX 17 10 0 0
BITMAP
FFFF80
B80000
A7C000
9EC000
42BC00
3E7400
010C00
008C00
007400
000400
ENDCHAR
STARTCHAR C156
ENCODING 156
SWIDTH 960 0
DWIDTH 16 0
BBX 17 12 0 -2
BITMAP
FFFF80
B80000
A7C000
9EC200
42BE00
3E7200
010A00
008C00
007600
001A00
003A00
000600
ENDCHAR
STARTCHAR C157
ENCODING 157
SWIDTH 1200 0
DWIDTH 20 0
BBX 21 11 0 0
BITMAP
000020
FFFF38
0C0120
53C320
504D20
527120
2D7120
214DA0
114360
0E4160
004120
ENDCHAR
STARTCHAR C158
ENCODING 158
SWIDTH 720 0
DWIDTH 12 0
BBX 14 9 0 1
BITMAP
FFFC
0C00
9260
9190
9130
4FB0
4090
20E0
1F00
ENDCHAR
STARTCHAR C159
ENCODING 159
SWIDTH 720 0
DWIDTH 12 0
BBX 13 12 0 -2
BITMAP
FFF8
1800
A400
A3E0
A240
5D40
4140
21C0
1F40
0240
01C0
0060
ENDCHAR
STARTCHAR C161
ENCODING 161
SWIDTH 600 0
DWIDTH 10 0
BBX 8 13 1 -2
BITMAP
06
69
D3
13
69
8E
94
64
18
E0
18
06
01
ENDCHAR
STARTCHAR C162
ENCODING 162
SWIDTH 660 0
DWIDTH 11 0
BBX 10 11 1 0
BITMAP
0380
7440
C8C0
58C0
2440
C380
C680
7980
2180
1E80
0080
ENDCHAR
STARTCHAR C163
ENCODING 163
SWIDTH 600 0
DWIDTH 10 0
BBX 8 10 1 0
BITMAP
3E
AB
AB
8E
78
1A
6A
6A
1E
0A
ENDCHAR
STARTCHAR C164
ENCODING 164
SWIDTH 540 0
DWIDTH 9 0
BBX 11 15 0 -1
BITMAP
C000
3F00
0080
0040
FFE0
1000
1000
1180
1180
1080
1100
1300
4D00
2100
1E00
ENDCHAR
STARTCHAR C165
ENCODING 165
SWIDTH 480 0
DWIDTH 8 0
BBX 10 17 -1 -2
BITMAP
8000
6000
1E00
0100
0080
7FC0
2000
2000
2300
2300
2100
2200
2400
1B00
0D00
0300
0100
ENDCHAR
STARTCHAR C166
ENCODING 166
SWIDTH 900 0
DWIDTH 15 0
BBX 16 10 0 0
BITMAP
FFFF
1040
1440
5A48
4278
2204
1E04
0104
0088
0070
ENDCHAR
STARTCHAR C167
ENCODING 167
SWIDTH 780 0
DWIDTH 13 0
BBX 13 15 1 0
BITMAP
2000
1800
07C0
0020
0010
77F8
8C00
C400
C460
0460
0420
0440
0440
0480
0300
ENDCHAR
STARTCHAR C168
ENCODING 168
SWIDTH 600 0
DWIDTH 10 0
BBX 8 16 1 0
BITMAP
08
10
10
10
10
70
88
CC
0A
0A
11
11
21
41
42
3C
ENDCHAR
STARTCHAR C169
ENCODING 169
SWIDTH 600 0
DWIDTH 10 0
BBX 9 10 1 0
BITMAP
3900
E680
E080
8080
8700
8700
4080
4080
2100
1E00
ENDCHAR
STARTCHAR C170
ENCODING 170
SWIDTH 540 0
DWIDTH 9 0
BBX 9 11 1 0
BITMAP
0200
3B80
4600
C200
C200
0200
3A00
4600
C200
C200
0200
ENDCHAR
STARTCHAR C171
ENCODING 171
SWIDTH 660 0
DWIDTH 11 0
BBX 11 11 1 0
BITMAP
0400
7FE0
8480
C480
C480
0480
0480
0E80
0D80
0080
0080
ENDCHAR
STARTCHAR C172
ENCODING 172
SWIDTH 540 0
DWIDTH 9 0
BBX 11 10 0 0
BITMAP
FFE0
0F00
5080
7080
5700
4700
2080
2080
1080
0F00
ENDCHAR
STARTCHAR C173
ENCODING 173
SWIDTH 540 0
DWIDTH 9 0
BBX 10 11 0 -1
BITMAP
FFC0
0E00
7100
7700
4600
4100
2100
1F00
0F00
0D00
0300
ENDCHAR
STARTCHAR C174
ENCODING 174
SWIDTH 600 0
DWIDTH 10 0
BBX 10 11 1 0
BITMAP
0100
69C0
D500
D500
0900
3100
7100
0D00
0300
0100
0100
ENDCHAR
STARTCHAR C175
ENCODING 175
SWIDTH 600 0
DWIDTH 10 0
BBX 11 10 0 0
BITMAP
FFE0
4700
4680
2080
1080
0F00
3D00
3B00
3900
0100
ENDCHAR
STARTCHAR C176
ENCODING 176
SWIDTH 600 0
DWIDTH 10 0
BBX 11 10 0 0
BITMAP
FFE0
4700
4680
2080
2080
1180
0F00
0D00
0300
0100
ENDCHAR
STARTCHAR C177
ENCODING 177
SWIDTH 720 0
DWIDTH 12 0
BBX 13 10 0 0
BITMAP
FFF8
4F20
4EA0
20A0
10A0
0F20
07A0
0760
0020
0020
ENDCHAR
STARTCHAR C178
ENCODING 178
SWIDTH 660 0
DWIDTH 11 0
BBX 12 10 0 0
BITMAP
FFF0
0380
0440
0840
4E40
4640
4040
4040
3F40
00C0
ENDCHAR
STARTCHAR C179
ENCODING 179
SWIDTH 780 0
DWIDTH 13 0
BBX 14 10 0 0
BITMAP
FFFC
0300
04B0
08B8
4C88
4CF0
4080
4080
3F80
0080
ENDCHAR
STARTCHAR C180
ENCODING 180
SWIDTH 840 0
DWIDTH 14 0
BBX 16 12 0 -1
BITMAP
0004
FFF7
420C
438C
4E44
5444
6404
4404
0404
0404
0404
0004
ENDCHAR
STARTCHAR C181
ENCODING 181
SWIDTH 840 0
DWIDTH 14 0
BBX 15 10 0 0
BITMAP
FFFE
4208
4208
4DC8
5488
6508
4588
0468
0418
0408
ENDCHAR
STARTCHAR C182
ENCODING 182
SWIDTH 600 0
DWIDTH 10 0
BBX 11 10 0 0
BITMAP
FFE0
4800
5800
6980
4A80
0D00
0900
0100
0100
0100
ENDCHAR
STARTCHAR C183
ENCODING 183
SWIDTH 600 0
DWIDTH 10 0
BBX 11 10 0 0
BITMAP
FFE0
4000
4400
5A00
6380
4E80
3280
0A80
0680
0280
ENDCHAR
STARTCHAR C184
ENCODING 184
SWIDTH 540 0
DWIDTH 9 0
BBX 10 10 0 0
BITMAP
FFC0
4000
4200
4D00
6100
4F00
1900
0500
0300
0100
ENDCHAR
STARTCHAR C185
ENCODING 185
SWIDTH 600 0
DWIDTH 10 0
BBX 11 10 0 0
BITMAP
FFE0
4400
5C00
6400
4800
5900
5E80
2080
1080
0F00
ENDCHAR
STARTCHAR C186
ENCODING 186
SWIDTH 600 0
DWIDTH 10 0
BBX 11 10 0 0
BITMAP
FFE0
4400
5C00
6400
4800
1900
5E80
4080
2380
1C80
ENDCHAR
STARTCHAR C187
ENCODING 187
SWIDTH 540 0
DWIDTH 9 0
BBX 10 10 0 0
BITMAP
FFC0
4100
4D00
5500
6500
4500
0500
1D00
1F00
0100
ENDCHAR
STARTCHAR C188
ENCODING 188
SWIDTH 480 0
DWIDTH 8 0
BBX 8 12 1 -1
BITMAP
20
67
5C
34
C4
34
0C
04
F4
CC
04
04
ENDCHAR
STARTCHAR C189
ENCODING 189
SWIDTH 900 0
DWIDTH 15 0
BBX 15 11 1 0
BITMAP
6000
63FE
4608
3A38
22C8
4308
C308
32C8
0A28
0618
0208
ENDCHAR
STARTCHAR C190
ENCODING 190
SWIDTH 780 0
DWIDTH 13 0
BBX 14 15 0 0
BITMAP
1000
0C00
03E0
0010
0008
FFFC
0200
7A00
6630
6230
0210
0220
0220
0240
0180
ENDCHAR
STARTCHAR C191
ENCODING 191
SWIDTH 600 0
DWIDTH 10 0
BBX 12 10 0 0
BITMAP
FFF0
7400
EC00
E480
4740
4040
4040
2040
1080
0F00
ENDCHAR
STARTCHAR C192
ENCODING 192
SWIDTH 600 0
DWIDTH 10 0
BBX 11 10 0 0
BITMAP
FFE0
0080
3880
7480
4300
2780
2740
1040
0840
0780
ENDCHAR
STARTCHAR C193
ENCODING 193
SWIDTH 600 0
DWIDTH 10 0
BBX 11 11 0 -1
BITMAP
FFE0
0100
7100
6E00
0F00
3880
3F00
2700
2080
1080
0F00
ENDCHAR
STARTCHAR C194
ENCODING 194
SWIDTH 600 0
DWIDTH 10 0
BBX 11 12 0 -2
BITMAP
FFE0
0080
3880
7700
4780
2740
1040
0840
0780
0680
0180
0080
ENDCHAR
STARTCHAR C195
ENCODING 195
SWIDTH 600 0
DWIDTH 10 0
BBX 11 11 0 -1
BITMAP
FFE0
0080
3880
3700
0480
0880
4C80
4C80
4080
3F80
0080
ENDCHAR
STARTCHAR C196
ENCODING 196
SWIDTH 600 0
DWIDTH 10 0
BBX 11 11 0 -1
BITMAP
FFE0
0100
7100
6F00
0C80
1880
0080
1F00
0600
0100
0080
ENDCHAR
STARTCHAR C197
ENCODING 197
SWIDTH 660 0
DWIDTH 11 0
BBX 12 10 0 0
BITMAP
FFF0
0400
F400
ECC0
E540
0640
0440
0040
0040
0040
ENDCHAR
STARTCHAR C198
ENCODING 198
SWIDTH 600 0
DWIDTH 10 0
BBX 11 10 0 0
BITMAP
FFE0
0200
7A00
6600
0380
0E80
3280
0A80
0680
0280
ENDCHAR
STARTCHAR C199
ENCODING 199
SWIDTH 540 0
DWIDTH 9 0
BBX 10 10 0 0
BITMAP
FFC0
0100
7D00
6300
6100
0100
7D00
6300
6100
0100
ENDCHAR
STARTCHAR C200
ENCODING 200
SWIDTH 540 0
DWIDTH 9 0
BBX 10 10 0 0
BITMAP
FFC0
0100
7D00
6300
6100
0300
0D00
0D00
0300
0100
ENDCHAR
STARTCHAR C201
ENCODING 201
SWIDTH 660 0
DWIDTH 11 0
BBX 12 10 0 0
BITMAP
FFF0
3A40
6640
6240
0240
0240
0740
06C0
0040
0040
ENDCHAR
STARTCHAR C202
ENCODING 202
SWIDTH 720 0
DWIDTH 12 0
BBX 13 10 0 0
BITMAP
FFF8
0420
0220
7A20
67A0
0660
2420
1820
0020
0020
ENDCHAR
STARTCHAR C203
ENCODING 203
SWIDTH 780 0
DWIDTH 13 0
BBX 13 15 1 0
BITMAP
2000
1800
07C0
0020
0010
77F8
8C00
5C00
6460
0460
0420
0440
0440
0480
0300
ENDCHAR
STARTCHAR C204
ENCODING 204
SWIDTH 660 0
DWIDTH 11 0
BBX 11 11 1 0
BITMAP
0100
7DE0
C700
2900
B100
A300
4700
4680
2080
1080
0F00
ENDCHAR
STARTCHAR C205
ENCODING 205
SWIDTH 600 0
DWIDTH 10 0
BBX 10 11 1 0
BITMAP
0100
79C0
C700
2B00
3100
6100
0100
3D00
3300
3100
0100
ENDCHAR
STARTCHAR C206
ENCODING 206
SWIDTH 600 0
DWIDTH 10 0
BBX 10 12 1 -1
BITMAP
0100
79C0
C700
2900
3100
4100
3900
C500
4700
3900
2100
0100
ENDCHAR
STARTCHAR C207
ENCODING 207
SWIDTH 600 0
DWIDTH 10 0
BBX 10 11 1 0
BITMAP
0100
79C0
C700
2B00
3100
6100
3100
4F00
6100
6100
0100
ENDCHAR
STARTCHAR C208
ENCODING 208
SWIDTH 720 0
DWIDTH 12 0
BBX 13 10 0 0
BITMAP
FFF8
0420
7E20
6A20
33A0
0260
2420
1820
0020
0020
ENDCHAR
STARTCHAR C209
ENCODING 209
SWIDTH 660 0
DWIDTH 11 0
BBX 12 11 0 -1
BITMAP
FFF0
19C0
0920
1120
19E0
05C0
3300
4F00
6100
6100
0100
ENDCHAR
STARTCHAR C210
ENCODING 210
SWIDTH 660 0
DWIDTH 11 0
BBX 13 10 0 0
BITMAP
FFF8
1800
6FE0
9820
8B00
8C80
4080
3080
0F00
0020
ENDCHAR
STARTCHAR C211
ENCODING 211
SWIDTH 660 0
DWIDTH 11 0
BBX 12 10 0 0
BITMAP
FFF0
0C00
3400
64C0
1540
0E40
0440
0040
0040
0040
ENDCHAR
STARTCHAR C212
ENCODING 212
SWIDTH 660 0
DWIDTH 11 0
BBX 12 10 0 0
BITMAP
FFF0
0700
3900
41C0
2740
1940
3140
0D40
0340
0140
ENDCHAR
STARTCHAR C213
ENCODING 213
SWIDTH 540 0
DWIDTH 9 0
BBX 10 10 0 0
BITMAP
FFC0
0700
3900
4100
2700
1900
3100
0D00
0300
0100
ENDCHAR
STARTCHAR C214
ENCODING 214
SWIDTH 540 0
DWIDTH 9 0
BBX 10 10 0 0
BITMAP
FFC0
0700
1900
3100
0D00
0300
3F00
6500
6100
0100
ENDCHAR
STARTCHAR C215
ENCODING 215
SWIDTH 720 0
DWIDTH 12 0
BBX 13 10 0 0
BITMAP
FFF8
0000
0040
2CA0
4F20
4420
4020
2020
1FE0
0020
ENDCHAR
STARTCHAR C216
ENCODING 216
SWIDTH 600 0
DWIDTH 10 0
BBX 11 11 0 -1
BITMAP
FFE0
5900
5E80
2080
1080
0F80
3880
4780
7480
3080
0080
ENDCHAR
STARTCHAR C217
ENCODING 217
SWIDTH 540 0
DWIDTH 9 0
BBX 10 10 0 0
BITMAP
FFC0
2080
7080
6980
0700
0100
7D00
7300
7100
0100
ENDCHAR
STARTCHAR C218
ENCODING 218
SWIDTH 1020 0
DWIDTH 17 0
BBX 18 11 0 0
BITMAP
000100
FE79C0
618500
714B00
6E5100
006100
000100
000100
000100
000100
000100
ENDCHAR
STARTCHAR C219
ENCODING 219
SWIDTH 960 0
DWIDTH 16 0
BBX 17 10 0 0
BITMAP
FFFF80
610C00
710A00
6F8900
008900
010F00
038E00
004800
003800
001800
ENDCHAR
STARTCHAR C220
ENCODING 220
SWIDTH 540 0
DWIDTH 9 0
BBX 10 10 0 0
BITMAP
FFC0
2080
7080
6880
0700
0700
1900
0500
0300
0100
ENDCHAR
STARTCHAR C221
ENCODING 221
SWIDTH 660 0
DWIDTH 11 0
BBX 12 10 0 0
BITMAP
FFF0
1040
7840
7440
4F80
4D80
4E40
2040
1080
0F00
ENDCHAR
STARTCHAR C222
ENCODING 222
SWIDTH 600 0
DWIDTH 10 0
BBX 11 10 0 0
BITMAP
FFE0
1080
7080
6880
1F00
5A80
5C80
4080
3F80
0080
ENDCHAR
STARTCHAR C223
ENCODING 223
SWIDTH 720 0
DWIDTH 12 0
BBX 13 10 0 0
BITMAP
FFF8
20A0
70A0
68A0
07A0
00A0
03A0
03E0
0020
0020
ENDCHAR
STARTCHAR C224
ENCODING 224
SWIDTH 600 0
DWIDTH 10 0
BBX 11 10 0 0
BITMAP
FFE0
1080
7080
6880
0780
3880
4780
7480
3080
0080
ENDCHAR
STARTCHAR C225
ENCODING 225
SWIDTH 660 0
DWIDTH 11 0
BBX 12 10 0 0
BITMAP
FFF0
0100
3F00
6900
6380
0D40
3940
05C0
03C0
0100
ENDCHAR
STARTCHAR C226
ENCODING 226
SWIDTH 600 0
DWIDTH 10 0
BBX 11 10 0 0
BITMAP
FFE0
0080
3B80
6480
6080
1E80
3180
2C80
0480
0880
ENDCHAR
STARTCHAR C227
ENCODING 227
SWIDTH 600 0
DWIDTH 10 0
BBX 11 12 0 -2
BITMAP
FFE0
3F00
4500
6100
6F00
5980
5580
4780
2B80
2040
1040
0F80
ENDCHAR
STARTCHAR C228
ENCODING 228
SWIDTH 780 0
DWIDTH 13 0
BBX 14 15 0 0
BITMAP
1000
0C00
03E0
0010
0008
FFFC
0200
3E00
6A30
6230
0210
0220
0220
0240
0180
ENDCHAR
STARTCHAR C229
ENCODING 229
SWIDTH 720 0
DWIDTH 12 0
BBX 13 10 0 0
BITMAP
FFF8
3600
6A00
6240
03C0
1020
1020
1020
0840
0780
ENDCHAR
STARTCHAR C230
ENCODING 230
SWIDTH 600 0
DWIDTH 10 0
BBX 11 10 0 0
BITMAP
FFE0
3B80
4480
7080
3080
3C80
6380
1580
1880
3080
ENDCHAR
STARTCHAR C231
ENCODING 231
SWIDTH 600 0
DWIDTH 10 0
BBX 11 10 0 0
BITMAP
FFE0
0080
3B80
4580
6080
6180
0680
0C80
0380
0080
ENDCHAR
STARTCHAR C232
ENCODING 232
SWIDTH 720 0
DWIDTH 12 0
BBX 13 10 0 0
BITMAP
FFF8
00A0
3EA0
65A0
60A0
00A0
03A0
03E0
03A0
0020
ENDCHAR
STARTCHAR C233
ENCODING 233
SWIDTH 600 0
DWIDTH 10 0
BBX 11 10 0 0
BITMAP
FFE0
0080
3B80
6480
6080
3880
4780
6480
6080
0080
ENDCHAR
STARTCHAR C234
ENCODING 234
SWIDTH 840 0
DWIDTH 14 0
BBX 15 11 0 0
BITMAP
0100
EDFE
3B00
7D80
6D70
0108
0108
0108
0110
0120
00C0
ENDCHAR
STARTCHAR C235
ENCODING 235
SWIDTH 900 0
DWIDTH 15 0
BBX 16 11 0 0
BITMAP
0080
EEFF
1980
3CF8
3CA4
00A4
00C8
0070
0020
0010
0008
ENDCHAR
STARTCHAR C236
ENCODING 236
SWIDTH 600 0
DWIDTH 10 0
BBX 11 11 0 0
BITMAP
0080
E6E0
1980
3C80
3C80
0080
0080
1E80
1980
1880
0080
ENDCHAR
STARTCHAR C237
ENCODING 237
SWIDTH 720 0
DWIDTH 12 0
BBX 13 11 0 0
BITMAP
0080
EEF8
39A0
7CA0
7CA0
00A0
00A0
03A0
03E0
03A0
0020
ENDCHAR
STARTCHAR C238
ENCODING 238
SWIDTH 600 0
DWIDTH 10 0
BBX 11 11 0 0
BITMAP
0080
E6E0
1980
3C80
3C80
0080
1880
2780
3080
3080
0080
ENDCHAR
STARTCHAR C239
ENCODING 239
SWIDTH 600 0
DWIDTH 10 0
BBX 11 11 0 0
BITMAP
0080
E6E0
1980
3C80
3C80
0080
0180
0680
0C80
0380
0080
ENDCHAR
STARTCHAR C240
ENCODING 240
SWIDTH 600 0
DWIDTH 10 0
BBX 11 10 0 0
BITMAP
FFE0
2200
5A00
4700
3A80
2280
6380
1B80
0600
0600
ENDCHAR
STARTCHAR C241
ENCODING 241
SWIDTH 840 0
DWIDTH 14 0
BBX 15 11 0 -1
BITMAP
FFFE
3200
4A00
4780
3C40
2678
2658
2058
2040
1FC0
0040
ENDCHAR
STARTCHAR C242
ENCODING 242
SWIDTH 540 0
DWIDTH 9 0
BBX 10 15 0 -1
BITMAP
C000
3E00
0100
0080
FFC0
2200
5200
4A00
4C00
3B00
2300
2100
2100
1200
0C00
ENDCHAR
STARTCHAR C243
ENCODING 243
SWIDTH 600 0
DWIDTH 10 0
BBX 11 16 0 0
BITMAP
0400
0800
0800
0800
0800
0800
FFE0
2600
5500
4D00
3880
0880
1080
2080
2100
1E00
ENDCHAR
STARTCHAR C244
ENCODING 244
SWIDTH 780 0
DWIDTH 13 0
BBX 12 10 0 0
BITMAP
FF60
3190
0910
1530
2330
6110
1990
0560
0300
0300
ENDCHAR
STARTCHAR C245
ENCODING 245
SWIDTH 900 0
DWIDTH 15 0
BBX 16 11 0 0
BITMAP
0004
FDE7
2714
54AC
48C4
3084
0004
0004
0004
0004
0004
ENDCHAR
STARTCHAR C246
ENCODING 246
SWIDTH 840 0
DWIDTH 14 0
BBX 15 10 0 0
BITMAP
FFFE
2430
5428
4E24
3124
023C
0638
01A0
0060
0020
ENDCHAR
STARTCHAR C247
ENCODING 247
SWIDTH 600 0
DWIDTH 10 0
BBX 11 10 0 0
BITMAP
FFE0
2280
5A80
4480
3C80
1E80
1D80
1C80
0080
0080
ENDCHAR
STARTCHAR C248
ENCODING 248
SWIDTH 720 0
DWIDTH 12 0
BBX 14 10 0 0
BITMAP
FFFC
0840
1440
63C0
01E0
0650
0E50
0170
00F0
0040
ENDCHAR
STARTCHAR C249
ENCODING 249
SWIDTH 840 0
DWIDTH 14 0
BBX 15 11 0 -1
BITMAP
FFFE
0C40
4A40
3380
0440
2678
2658
2058
2040
1FC0
0040
ENDCHAR
STARTCHAR C250
ENCODING 250
SWIDTH 720 0
DWIDTH 12 0
BBX 14 12 0 -2
BITMAP
FFFC
0840
1440
63C0
00E0
0350
0670
0170
1DC0
3A40
3840
0040
ENDCHAR
STARTCHAR C251
ENCODING 251
SWIDTH 780 0
DWIDTH 13 0
BBX 14 11 0 0
BITMAP
0010
FF1C
1910
1910
6790
0750
0750
0690
0110
00D0
0030
ENDCHAR
STARTCHAR C252
ENCODING 252
SWIDTH 840 0
DWIDTH 14 0
BBX 15 15 0 0
BITMAP
1000
0C00
03F0
0008
0004
FFFE
1100
0900
0F18
1118
6108
0110
0110
0120
00C0
ENDCHAR
STARTCHAR C253
ENCODING 253
SWIDTH 660 0
DWIDTH 11 0
BBX 12 10 0 0
BITMAP
FFF0
0C20
0A20
71C0
4380
2340
2040
1040
0840
0780
ENDCHAR
STARTCHAR C254
ENCODING 254
SWIDTH 600 0
DWIDTH 10 0
BBX 11 11 0 -1
BITMAP
FFE0
1880
1480
6300
0F00
3880
3F00
2700
2080
1080
0F00
ENDCHAR
STARTCHAR C255
ENCODING 255
SWIDTH 660 0
DWIDTH 11 0
BBX 12 11 0 -1
BITMAP
FFF0
0C40
4A40
3380
0440
0E40
4E40
4040
2040
1FC0
0040
ENDCHAR
ENDFONT
