STARTFONT 2.1
COMMENT This font image translated from Metafont
COMMENT Input file was ``bnsl10''
COMMENT DPI was ``150'', usermag ``1000'', blackness ``3''
COMMENT shrink was 1
FONT -*-bengali-medium-o-*-*-*-150-*-*-*-*-*-fontspecific
SIZE 10 150 150
FONTBOUNDINGBOX 41 26 -12 -6
STARTPROPERTIES 4
FONT_ASCENT 20
FONT_DESCENT 4
COPYRIGHT "GNU General Public License"
_XMBDFED_INFO "Edited with xmbdfed 4.5."
ENDPROPERTIES
CHARS 249
STARTCHAR C001
ENCODING 1
SWIDTH 480 0
DWIDTH 10 0
BBX 11 21 3 -2
BITMAP
8000
8000
7F00
0080
0040
0040
FFE0
1000
3E00
6100
0100
0100
0200
8C00
7000
2000
1000
0800
0400
0200
0200
ENDCHAR
STARTCHAR C002
ENCODING 2
SWIDTH 576 0
DWIDTH 12 0
BBX 14 19 2 0
BITMAP
2000
2000
1FE0
0010
0008
0008
7FFC
1000
3C00
3230
32E0
0340
0640
0880
3080
C080
0080
0080
0100
ENDCHAR
STARTCHAR C003
ENCODING 3
SWIDTH 576 0
DWIDTH 12 0
BBX 13 18 3 1
BITMAP
8000
8000
7FC0
0020
0010
0010
FFF8
0400
8400
8400
84C0
8B40
8440
8040
8040
4080
4300
3C00
ENDCHAR
STARTCHAR C004
ENCODING 4
SWIDTH 624 0
DWIDTH 13 0
BBX 14 18 3 1
BITMAP
4000
4000
3FC0
0030
0008
0008
FFFC
0100
A200
A200
A260
A2A0
A320
A020
6020
5040
3180
1E00
ENDCHAR
STARTCHAR C005
ENCODING 5
SWIDTH 720 0
DWIDTH 15 0
BBX 13 13 4 0
BITMAP
E688
E988
7790
1910
2110
4110
8120
6220
1320
0AA0
0A40
0440
0400
ENDCHAR
STARTCHAR C006
ENCODING 6
SWIDTH 624 0
DWIDTH 13 0
BBX 13 13 2 0
BITMAP
0030
00C8
0108
0210
2710
4710
8610
8020
8020
8020
7FC0
0040
0040
ENDCHAR
STARTCHAR C007
ENCODING 7
SWIDTH 768 0
DWIDTH 16 0
BBX 15 20 3 0
BITMAP
0100
0200
0200
0200
01E0
001C
0002
0062
0192
0212
0414
4E38
8E20
8C20
8040
8040
8040
7F40
0080
0080
ENDCHAR
STARTCHAR C008
ENCODING 8
SWIDTH 576 0
DWIDTH 12 0
BBX 11 12 3 1
BITMAP
03C0
0C20
9820
9840
8380
8700
8680
8080
8080
4100
4200
3C00
ENDCHAR
STARTCHAR C014
ENCODING 14
SWIDTH 288 0
DWIDTH 6 0
BBX 9 13 1 0
BITMAP
3F80
0400
0800
0800
0800
1000
1000
1000
1000
1000
2000
2000
C000
ENDCHAR
STARTCHAR C015
ENCODING 15
SWIDTH 0 0
DWIDTH 0 0
BBX 11 4 -12 -2
BITMAP
8020
8020
7FE0
0040
ENDCHAR
STARTCHAR C016
ENCODING 16
SWIDTH 576 0
DWIDTH 12 0
BBX 13 14 3 -1
BITMAP
FFF8
0840
1440
1440
E380
0F00
1880
0080
0080
2100
1E00
0400
0200
0100
ENDCHAR
STARTCHAR C017
ENCODING 17
SWIDTH 624 0
DWIDTH 13 0
BBX 14 13 3 0
BITMAP
FFFC
0C10
0A10
1210
E1E0
0020
0040
0040
7E40
F140
E080
0080
0080
ENDCHAR
STARTCHAR C018
ENCODING 18
SWIDTH 1152 0
DWIDTH 24 0
BBX 25 14 3 0
BITMAP
00000200
FFE3E380
0C2C1200
0C3C3C00
12224C00
61C38400
00060400
000C0800
00000800
00000800
00000800
00001000
00001000
00001000
ENDCHAR
STARTCHAR C019
ENCODING 19
SWIDTH 1152 0
DWIDTH 24 0
BBX 25 14 3 0
BITMAP
00000200
FFE3E380
0C2C1200
0C3C3C00
12224C00
61C38400
00060400
000C0800
00076800
00089800
001C9800
001C1000
00181000
00001000
ENDCHAR
STARTCHAR C020
ENCODING 20
SWIDTH 1008 0
DWIDTH 21 0
BBX 22 13 3 0
BITMAP
FFFFFC
0C2000
0C20C0
122120
61D120
001120
0021E0
0042C0
00C2C0
002200
001200
000C00
000400
ENDCHAR
STARTCHAR C021
ENCODING 21
SWIDTH 624 0
DWIDTH 13 0
BBX 14 13 3 0
BITMAP
FFFC
0C10
0A10
1210
E1E0
0020
01C0
0C40
3040
0C40
0280
0180
0180
ENDCHAR
STARTCHAR C022
ENCODING 22
SWIDTH 768 0
DWIDTH 16 0
BBX 17 13 3 0
BITMAP
FFFF80
0C1200
0A1400
121400
E1E400
004400
004800
01C800
03A800
031800
001000
001000
001000
ENDCHAR
STARTCHAR C023
ENCODING 23
SWIDTH 624 0
DWIDTH 13 0
BBX 14 13 3 0
BITMAP
FFFC
0C10
0A10
1210
E1E0
0020
0040
3B40
44C0
E4C0
E080
C080
0080
ENDCHAR
STARTCHAR C024
ENCODING 24
SWIDTH 480 0
DWIDTH 10 0
BBX 12 15 2 -2
BITMAP
7FF0
0F00
1880
3080
0080
0100
3E00
1800
0400
7A00
8700
C400
C400
0400
0400
ENDCHAR
STARTCHAR C025
ENCODING 25
SWIDTH 768 0
DWIDTH 16 0
BBX 17 13 3 0
BITMAP
FFFF80
004000
01D800
049C00
109C00
608400
808800
617000
110000
090000
350000
320000
020000
ENDCHAR
STARTCHAR C026
ENCODING 26
SWIDTH 720 0
DWIDTH 15 0
BBX 16 13 3 0
BITMAP
FFFF
0040
01C0
0470
10C8
6088
8090
6090
1110
0920
3520
3320
0220
ENDCHAR
STARTCHAR C027
ENCODING 27
SWIDTH 576 0
DWIDTH 12 0
BBX 13 15 3 -2
BITMAP
FFF8
1800
24C0
6540
6240
6040
0080
0300
FC00
2000
1800
0400
0200
0100
0080
ENDCHAR
STARTCHAR C028
ENCODING 28
SWIDTH 672 0
DWIDTH 14 0
BBX 15 15 3 -2
BITMAP
FFFE
0800
1F00
30E0
0090
0090
0120
8620
7820
2040
1040
0C40
0240
0200
0100
ENDCHAR
STARTCHAR C029
ENCODING 29
SWIDTH 720 0
DWIDTH 15 0
BBX 12 13 3 0
BITMAP
0FB0
1070
7C70
8210
8210
8460
88E0
80D0
4010
4010
2020
10C0
0F00
ENDCHAR
STARTCHAR C030
ENCODING 30
SWIDTH 720 0
DWIDTH 15 0
BBX 12 13 3 0
BITMAP
71B0
0E70
5E70
BF10
BB10
8060
80E0
80D0
4010
4010
2020
10C0
0F00
ENDCHAR
STARTCHAR C031
ENCODING 31
SWIDTH 624 0
DWIDTH 13 0
BBX 14 13 3 0
BITMAP
FFFC
1000
3CC0
6320
0260
02E0
04C0
F800
2000
1000
0800
0400
0400
ENDCHAR
STARTCHAR C032
ENCODING 32
SWIDTH 384 0
DWIDTH 8 0
BBX 0 0 0 0
BITMAP
ENDCHAR
STARTCHAR C033
ENCODING 33
SWIDTH 576 0
DWIDTH 12 0
BBX 6 17 7 -2
BITMAP
0C
0C
0C
08
18
18
18
18
10
30
30
30
20
00
00
E0
E0
ENDCHAR
STARTCHAR C034
ENCODING 34
SWIDTH 432 0
DWIDTH 9 0
BBX 8 8 4 10
BITMAP
33
77
77
77
12
22
44
88
ENDCHAR
STARTCHAR C035
ENCODING 35
SWIDTH 528 0
DWIDTH 11 0
BBX 10 16 2 -3
BITMAP
0240
0280
0480
0480
0900
0900
7FC0
1200
1400
FF80
2400
4800
4800
5000
9000
A000
ENDCHAR
STARTCHAR C036
ENCODING 36
SWIDTH 624 0
DWIDTH 13 0
BBX 13 19 1 -2
BITMAP
0020
0040
0040
0080
0080
0100
0100
0200
0400
04F8
0800
0800
1000
1000
2000
2000
4000
8000
8000
ENDCHAR
STARTCHAR C037
ENCODING 37
SWIDTH 720 0
DWIDTH 15 0
BBX 15 20 2 -2
BITMAP
0600
0B06
11FC
1108
2110
2110
2220
2240
2480
1900
0130
0248
0488
0888
0908
1108
2110
4110
8120
80C0
ENDCHAR
STARTCHAR C038
ENCODING 38
SWIDTH 480 0
DWIDTH 10 0
BBX 11 15 3 -1
BITMAP
1C80
32E0
6280
0300
0500
7900
1100
0A00
0600
0600
3A00
E400
1400
0C00
0C00
ENDCHAR
STARTCHAR C039
ENCODING 39
SWIDTH 288 0
DWIDTH 6 0
BBX 4 7 5 10
BITMAP
70
F0
F0
20
20
40
80
ENDCHAR
STARTCHAR C040
ENCODING 40
SWIDTH 288 0
DWIDTH 6 0
BBX 8 21 2 -4
BITMAP
01
02
04
0C
18
18
30
30
60
60
60
C0
C0
C0
C0
C0
C0
C0
40
40
20
ENDCHAR
STARTCHAR C041
ENCODING 41
SWIDTH 288 0
DWIDTH 6 0
BBX 7 21 0 -4
BITMAP
04
04
04
06
06
06
06
06
06
06
0E
0C
0C
0C
18
18
30
20
60
C0
80
ENDCHAR
STARTCHAR C042
ENCODING 42
SWIDTH 480 0
DWIDTH 10 0
BBX 8 10 4 7
BITMAP
04
08
49
2E
18
38
54
92
10
20
ENDCHAR
STARTCHAR C043
ENCODING 43
SWIDTH 672 0
DWIDTH 14 0
BBX 13 13 2 0
BITMAP
0080
0100
0100
0100
0100
0200
FFF8
0200
0200
0400
0400
0400
0400
ENDCHAR
STARTCHAR C044
ENCODING 44
SWIDTH 336 0
DWIDTH 7 0
BBX 3 7 3 -4
BITMAP
60
E0
E0
20
40
80
80
ENDCHAR
STARTCHAR C045
ENCODING 45
SWIDTH 336 0
DWIDTH 7 0
BBX 7 2 1 5
BITMAP
7E
FE
ENDCHAR
STARTCHAR C046
ENCODING 46
SWIDTH 480 0
DWIDTH 10 0
BBX 4 13 8 0
BITMAP
10
20
20
20
20
40
40
40
40
80
80
80
80
ENDCHAR
STARTCHAR C047
ENCODING 47
SWIDTH 288 0
DWIDTH 6 0
BBX 9 16 0 -3
BITMAP
0080
0100
0100
0200
0200
0400
0400
0800
1000
1000
2000
2000
4000
4000
8000
8000
ENDCHAR
STARTCHAR C048
ENCODING 48
SWIDTH 528 0
DWIDTH 11 0
BBX 10 9 2 2
BITMAP
0F00
3080
4040
8040
8040
8040
8080
4300
3C00
ENDCHAR
STARTCHAR C049
ENCODING 49
SWIDTH 528 0
DWIDTH 11 0
BBX 7 12 4 1
BITMAP
40
80
80
40
30
08
04
02
02
02
74
F8
ENDCHAR
STARTCHAR C050
ENCODING 50
SWIDTH 528 0
DWIDTH 11 0
BBX 8 14 3 -1
BITMAP
20
20
18
06
01
01
02
FC
40
20
10
08
04
02
ENDCHAR
STARTCHAR C051
ENCODING 51
SWIDTH 528 0
DWIDTH 11 0
BBX 9 10 3 1
BITMAP
8000
8E00
9F00
9E80
9C80
8080
8080
4100
4200
3C00
ENDCHAR
STARTCHAR C052
ENCODING 52
SWIDTH 528 0
DWIDTH 11 0
BBX 10 13 2 0
BITMAP
0F80
1040
2040
2040
2080
1300
0C00
3200
4100
8100
8100
8200
7C00
ENDCHAR
STARTCHAR C053
ENCODING 53
SWIDTH 528 0
DWIDTH 11 0
BBX 11 13 2 0
BITMAP
0600
0A00
1100
20E0
4080
4100
8200
8200
8400
8400
8400
4400
3E00
ENDCHAR
STARTCHAR C054
ENCODING 54
SWIDTH 528 0
DWIDTH 11 0
BBX 9 11 3 1
BITMAP
0800
8800
8800
8880
8B80
8C80
8080
8080
8100
4200
3C00
ENDCHAR
STARTCHAR C055
ENCODING 55
SWIDTH 528 0
DWIDTH 11 0
BBX 7 13 4 0
BITMAP
1C
22
42
82
86
7C
04
04
04
08
08
08
08
ENDCHAR
STARTCHAR C056
ENCODING 56
SWIDTH 528 0
DWIDTH 11 0
BBX 11 12 2 1
BITMAP
2000
2000
2000
2000
4020
7FC0
4200
4200
8200
8400
8800
F000
ENDCHAR
STARTCHAR C057
ENCODING 57
SWIDTH 528 0
DWIDTH 11 0
BBX 9 13 2 0
BITMAP
2000
2000
1000
1000
0800
0600
0100
0080
3880
4480
C480
C500
C600
ENDCHAR
STARTCHAR C058
ENCODING 58
SWIDTH 384 0
DWIDTH 8 0
BBX 5 10 4 1
BITMAP
18
38
30
00
00
00
00
60
E0
C0
ENDCHAR
STARTCHAR C059
ENCODING 59
SWIDTH 336 0
DWIDTH 7 0
BBX 4 11 3 -4
BITMAP
30
70
60
00
60
E0
E0
20
40
80
80
ENDCHAR
STARTCHAR C060
ENCODING 60
SWIDTH 768 0
DWIDTH 16 0
BBX 9 13 8 0
BITMAP
1080
1080
1080
2080
2100
2100
2100
4100
4200
4200
4200
8200
8400
ENDCHAR
STARTCHAR C061
ENCODING 61
SWIDTH 720 0
DWIDTH 15 0
BBX 14 6 2 3
BITMAP
7FFC
0000
0000
0000
0000
FFF8
ENDCHAR
STARTCHAR C062
ENCODING 62
SWIDTH 480 0
DWIDTH 10 0
BBX 11 15 3 -2
BITMAP
FFE0
1E00
3100
6100
0100
0200
7C00
3000
0800
0400
1E00
E800
2800
1800
0800
ENDCHAR
STARTCHAR C063
ENCODING 63
SWIDTH 816 0
DWIDTH 17 0
BBX 8 16 11 -1
BITMAP
3E
41
E1
E1
C2
02
0C
10
20
20
20
40
00
00
C0
C0
ENDCHAR
STARTCHAR C064
ENCODING 64
SWIDTH 672 0
DWIDTH 14 0
BBX 15 14 3 -1
BITMAP
FFFE
0200
2200
FA00
E670
0590
0620
0420
00E0
0340
0640
0140
00C0
0080
ENDCHAR
STARTCHAR C065
ENCODING 65
SWIDTH 288 0
DWIDTH 6 0
BBX 7 14 3 0
BITMAP
10
DE
60
20
20
20
40
40
40
40
80
80
80
80
ENDCHAR
STARTCHAR C066
ENCODING 66
SWIDTH 528 0
DWIDTH 11 0
BBX 8 13 3 0
BITMAP
0E
31
51
8E
80
80
80
40
30
0C
02
02
02
ENDCHAR
STARTCHAR C067
ENCODING 67
SWIDTH 528 0
DWIDTH 11 0
BBX 12 15 3 -2
BITMAP
FFF0
4000
6000
5F00
8880
9080
E080
0100
0600
F800
1000
0C00
0200
0200
0100
ENDCHAR
STARTCHAR C068
ENCODING 68
SWIDTH 576 0
DWIDTH 12 0
BBX 13 12 3 1
BITMAP
FFF8
0400
8400
8400
84C0
8B40
8440
8040
8040
4080
4300
3C00
ENDCHAR
STARTCHAR C069
ENCODING 69
SWIDTH 336 0
DWIDTH 7 0
BBX 9 20 2 -1
BITMAP
8000
8000
7C00
0200
0100
0100
7F80
0400
0800
1000
1000
2000
2000
4000
4000
4000
4000
4C00
2C00
1800
ENDCHAR
STARTCHAR C070
ENCODING 70
SWIDTH 528 0
DWIDTH 11 0
BBX 12 13 3 0
BITMAP
FFF0
2040
1080
0880
1480
2280
4100
C100
3100
0900
0600
0600
0200
ENDCHAR
STARTCHAR C071
ENCODING 71
SWIDTH 576 0
DWIDTH 12 0
BBX 13 13 3 0
BITMAP
FFF8
4020
4040
4040
3C40
1840
2080
E080
1880
0480
0300
0300
0100
ENDCHAR
STARTCHAR C072
ENCODING 72
SWIDTH 336 0
DWIDTH 7 0
BBX 7 12 2 1
BITMAP
1C
22
22
1C
00
00
00
30
48
88
90
60
ENDCHAR
STARTCHAR C073
ENCODING 73
SWIDTH 240 0
DWIDTH 5 0
BBX 14 20 -5 0
BITMAP
3F80
4040
8020
8010
7C10
0210
0110
007C
0020
0020
0020
0020
0040
0040
0040
0040
0080
0080
0080
0080
ENDCHAR
STARTCHAR C074
ENCODING 74
SWIDTH 672 0
DWIDTH 14 0
BBX 15 14 3 0
BITMAP
0008
FF8E
0088
0390
0C90
3110
4110
C120
2120
1320
0AA0
0A40
0640
0400
ENDCHAR
STARTCHAR C075
ENCODING 75
SWIDTH 624 0
DWIDTH 13 0
BBX 14 14 3 0
BITMAP
0010
031C
6C90
F0A0
E0A0
0120
0620
3840
1840
0440
0240
0180
0180
0080
ENDCHAR
STARTCHAR C076
ENCODING 76
SWIDTH 768 0
DWIDTH 16 0
BBX 17 13 3 0
BITMAP
FFFF80
202000
782000
E7F800
C42400
044400
044800
184800
3E4800
319000
009000
009000
008000
ENDCHAR
STARTCHAR C077
ENCODING 77
SWIDTH 384 0
DWIDTH 8 0
BBX 5 11 4 2
BITMAP
30
48
48
30
00
00
80
C0
40
20
20
ENDCHAR
STARTCHAR C078
ENCODING 78
SWIDTH 528 0
DWIDTH 11 0
BBX 12 14 3 0
BITMAP
0040
3E70
4140
8180
8080
B080
7080
0100
0100
0100
0100
0200
0200
0200
ENDCHAR
STARTCHAR C079
ENCODING 79
SWIDTH 240 0
DWIDTH 5 0
BBX 14 19 -5 0
BITMAP
8000
8000
7F80
0060
0010
0010
007C
0020
0020
0020
0020
0040
0040
0040
0040
0080
0080
0080
0080
ENDCHAR
STARTCHAR C080
ENCODING 80
SWIDTH 816 0
DWIDTH 17 0
BBX 16 14 3 0
BITMAP
0040
3C4E
6251
62A1
02C1
048E
188E
E182
1182
0944
0538
0600
0200
0200
ENDCHAR
STARTCHAR C081
ENCODING 81
SWIDTH 912 0
DWIDTH 19 0
BBX 17 13 3 0
BITMAP
006000
019000
021700
041880
4E3080
8E2680
8C2700
806700
806100
806200
7F5C00
008000
008000
ENDCHAR
STARTCHAR C082
ENCODING 82
SWIDTH 576 0
DWIDTH 12 0
BBX 13 16 3 -3
BITMAP
FFF8
0400
8400
8400
84C0
8B40
8440
8040
8040
4080
4300
3C00
0000
1800
3800
3000
ENDCHAR
STARTCHAR C083
ENCODING 83
SWIDTH 576 0
DWIDTH 12 0
BBX 14 14 2 0
BITMAP
0010
639C
1450
3C60
7E20
FE20
EE20
0040
0040
0040
0040
0080
0080
0080
ENDCHAR
STARTCHAR C084
ENCODING 84
SWIDTH 480 0
DWIDTH 10 0
BBX 12 19 2 0
BITMAP
4000
4000
3F80
0040
0020
0020
7FF0
1000
2000
2000
2000
4380
4380
4100
8200
8400
8800
B000
4000
ENDCHAR
STARTCHAR C085
ENCODING 85
SWIDTH 0 0
DWIDTH 0 0
BBX 8 7 -6 -6
BITMAP
38
40
80
80
7C
02
01
ENDCHAR
STARTCHAR C086
ENCODING 86
SWIDTH 480 0
DWIDTH 10 0
BBX 12 16 2 -3
BITMAP
7FF0
1000
2000
2000
2000
4380
4380
4100
8200
8400
8800
B000
4000
6000
E000
C000
ENDCHAR
STARTCHAR C087
ENCODING 87
SWIDTH 0 0
DWIDTH 0 0
BBX 4 4 -5 -4
BITMAP
60
80
40
30
ENDCHAR
STARTCHAR C088
ENCODING 88
SWIDTH 480 0
DWIDTH 10 0
BBX 12 13 2 0
BITMAP
7FF0
1000
2000
2000
2000
4380
4380
4100
8200
8400
8800
B000
4000
ENDCHAR
STARTCHAR C089
ENCODING 89
SWIDTH 528 0
DWIDTH 11 0
BBX 12 13 3 0
BITMAP
FFF0
2040
1080
0880
1080
2080
4100
C100
3100
0900
0600
0600
0200
ENDCHAR
STARTCHAR C090
ENCODING 90
SWIDTH 480 0
DWIDTH 10 0
BBX 12 19 2 1
BITMAP
0200
0400
0400
0400
0400
0200
0200
7FF0
0300
0300
0480
0480
0880
1080
2100
C100
8200
8400
7800
ENDCHAR
STARTCHAR C091
ENCODING 91
SWIDTH 192 0
DWIDTH 4 0
BBX 9 22 0 -4
BITMAP
0780
0780
0600
0C00
0C00
0C00
0C00
1800
1800
1800
1800
3000
3000
3000
3000
6000
6000
6000
6000
C000
F000
F000
ENDCHAR
STARTCHAR C092
ENCODING 92
SWIDTH 432 0
DWIDTH 9 0
BBX 7 7 4 10
BITMAP
12
24
44
88
EE
FE
CC
ENDCHAR
STARTCHAR C093
ENCODING 93
SWIDTH 192 0
DWIDTH 4 0
BBX 8 22 -1 -4
BITMAP
07
07
0F
03
02
06
06
06
04
0C
0C
0C
18
18
18
18
30
30
30
30
E0
E0
ENDCHAR
STARTCHAR C094
ENCODING 94
SWIDTH 0 0
DWIDTH 0 0
BBX 10 5 0 14
BITMAP
00C0
0300
0C00
3000
C000
ENDCHAR
STARTCHAR C095
ENCODING 95
SWIDTH 0 0
DWIDTH 0 0
BBX 3 3 -2 -5
BITMAP
80
40
20
ENDCHAR
STARTCHAR C096
ENCODING 96
SWIDTH 288 0
DWIDTH 6 0
BBX 4 7 4 10
BITMAP
10
20
40
80
E0
E0
C0
ENDCHAR
STARTCHAR C097
ENCODING 97
SWIDTH 816 0
DWIDTH 17 0
BBX 18 13 3 0
BITMAP
FFFFC0
040100
478200
4E4200
4C2200
402200
402400
204400
206400
10A400
0F1800
001800
000800
ENDCHAR
STARTCHAR C098
ENCODING 98
SWIDTH 528 0
DWIDTH 11 0
BBX 12 13 3 0
BITMAP
FFF0
0040
0380
0C80
3080
4080
8100
6100
1100
0900
0600
0600
0200
ENDCHAR
STARTCHAR C099
ENCODING 99
SWIDTH 480 0
DWIDTH 10 0
BBX 12 13 2 0
BITMAP
7FF0
1000
3000
2800
2600
4180
4100
4100
8200
8400
8800
B000
4000
ENDCHAR
STARTCHAR C100
ENCODING 100
SWIDTH 480 0
DWIDTH 10 0
BBX 11 13 3 0
BITMAP
FFE0
4000
4000
4300
8D00
9200
E400
8400
0400
0800
0800
0800
0800
ENDCHAR
STARTCHAR C101
ENCODING 101
SWIDTH 336 0
DWIDTH 7 0
BBX 8 14 3 -1
BITMAP
FF
08
10
20
20
40
40
80
80
80
80
98
58
30
ENDCHAR
STARTCHAR C102
ENCODING 102
SWIDTH 672 0
DWIDTH 14 0
BBX 15 13 3 0
BITMAP
FFFE
3000
08E0
0890
1890
2170
4160
E160
1100
0A00
0600
0600
0200
ENDCHAR
STARTCHAR C103
ENCODING 103
SWIDTH 576 0
DWIDTH 12 0
BBX 13 14 3 0
BITMAP
0020
1E38
2120
40C0
F840
8440
0440
0880
1080
2080
0080
0100
0100
0100
ENDCHAR
STARTCHAR C104
ENCODING 104
SWIDTH 480 0
DWIDTH 10 0
BBX 11 15 3 -2
BITMAP
FFE0
1000
3E00
6100
0100
0100
0200
8C00
7000
2000
1000
0800
0400
0200
0200
ENDCHAR
STARTCHAR C105
ENCODING 105
SWIDTH 288 0
DWIDTH 6 0
BBX 15 20 3 0
BITMAP
03C0
0C30
1008
2004
2002
2002
2000
FE00
1000
2000
2000
2000
2000
4000
4000
4000
4000
8000
8000
8000
ENDCHAR
STARTCHAR C106
ENCODING 106
SWIDTH 720 0
DWIDTH 15 0
BBX 16 13 3 0
BITMAP
FFFF
0C00
9208
A1F8
A010
A310
9C90
40A0
40A0
2120
1E20
0020
0020
ENDCHAR
STARTCHAR C107
ENCODING 107
SWIDTH 720 0
DWIDTH 15 0
BBX 16 13 3 0
BITMAP
FFFF
0040
01F0
0498
1088
6088
8108
6170
1170
0900
0600
0600
0200
ENDCHAR
STARTCHAR C108
ENCODING 108
SWIDTH 624 0
DWIDTH 13 0
BBX 14 13 3 0
BITMAP
FFFC
0010
0020
3DA0
4260
8260
8240
B040
7040
0040
0080
0080
0080
ENDCHAR
STARTCHAR C109
ENCODING 109
SWIDTH 528 0
DWIDTH 11 0
BBX 12 13 3 0
BITMAP
FFF0
4040
4080
2080
2080
1080
1100
3100
7900
6500
0200
0200
0200
ENDCHAR
STARTCHAR C110
ENCODING 110
SWIDTH 528 0
DWIDTH 11 0
BBX 12 13 3 0
BITMAP
FFF0
0040
0080
0080
0080
7880
E500
C300
0300
0300
0200
0200
0200
ENDCHAR
STARTCHAR C111
ENCODING 111
SWIDTH 672 0
DWIDTH 14 0
BBX 13 19 3 1
BITMAP
0100
0200
0200
0200
01C0
0030
0008
03C8
0C28
9830
9860
81C0
8380
8380
8040
4040
4080
2100
1E00
ENDCHAR
STARTCHAR C112
ENCODING 112
SWIDTH 576 0
DWIDTH 12 0
BBX 13 14 3 0
BITMAP
0020
1E38
6120
E1C0
12C0
1C40
1040
2080
0080
0080
0080
0100
0100
0100
ENDCHAR
STARTCHAR C113
ENCODING 113
SWIDTH 624 0
DWIDTH 13 0
BBX 11 13 3 1
BITMAP
01C0
2220
14C0
8F00
8400
8840
89C0
8E40
8040
4040
4080
2100
1E00
ENDCHAR
STARTCHAR C114
ENCODING 114
SWIDTH 528 0
DWIDTH 11 0
BBX 12 13 3 0
BITMAP
FFF0
0040
0380
0C80
3080
4080
8100
6100
1100
0900
0600
E600
E200
ENDCHAR
STARTCHAR C115
ENCODING 115
SWIDTH 576 0
DWIDTH 12 0
BBX 13 13 3 0
BITMAP
FFF8
1020
0840
0840
0F40
0940
0880
9080
6080
0080
0100
0100
0100
ENDCHAR
STARTCHAR C116
ENCODING 116
SWIDTH 576 0
DWIDTH 12 0
BBX 13 12 3 1
BITMAP
FFF8
8000
8000
8700
8E80
8C40
8040
8040
4080
4080
2100
1E00
ENDCHAR
STARTCHAR C117
ENCODING 117
SWIDTH 0 0
DWIDTH 0 0
BBX 9 6 -7 -6
BITMAP
7400
8800
8C00
7200
0100
0080
ENDCHAR
STARTCHAR C118
ENCODING 118
SWIDTH 624 0
DWIDTH 13 0
BBX 14 12 3 1
BITMAP
FFFC
0000
8000
8E00
9E40
9CA0
8F20
8020
4020
4040
2180
1E00
ENDCHAR
STARTCHAR C119
ENCODING 119
SWIDTH 0 0
DWIDTH 0 0
BBX 7 5 -1 15
BITMAP
38
BA
82
84
78
ENDCHAR
STARTCHAR C120
ENCODING 120
SWIDTH 528 0
DWIDTH 11 0
BBX 12 14 3 0
BITMAP
1800
3870
2040
2180
1C80
1080
4080
8100
6100
1100
0900
0600
0600
0200
ENDCHAR
STARTCHAR C121
ENCODING 121
SWIDTH 528 0
DWIDTH 11 0
BBX 12 13 3 0
BITMAP
FFF0
2040
1080
0880
1080
2080
4100
C100
3100
0900
0600
6600
6200
ENDCHAR
STARTCHAR C122
ENCODING 122
SWIDTH 576 0
DWIDTH 12 0
BBX 12 14 4 0
BITMAP
0040
3870
C440
C480
0480
0880
3080
C100
3100
0900
0500
0200
0200
0200
ENDCHAR
STARTCHAR C123
ENCODING 123
SWIDTH 576 0
DWIDTH 12 0
BBX 13 1 1 6
BITMAP
FFF8
ENDCHAR
STARTCHAR C124
ENCODING 124
SWIDTH 1104 0
DWIDTH 23 0
BBX 24 1 1 6
BITMAP
FFFFFF
ENDCHAR
STARTCHAR C125
ENCODING 125
SWIDTH 480 0
DWIDTH 10 0
BBX 13 15 1 -2
BITMAP
3FF8
0780
0C40
1840
0040
0080
1F00
0C00
0200
0100
7780
E900
E100
6100
0200
ENDCHAR
STARTCHAR C126
ENCODING 126
SWIDTH 624 0
DWIDTH 13 0
BBX 12 5 2 4
BITMAP
1800
7C00
4630
83E0
01C0
ENDCHAR
STARTCHAR C127
ENCODING 127
SWIDTH 960 0
DWIDTH 20 0
BBX 21 17 3 -3
BITMAP
000020
FFFF38
0220A0
0440C0
0470C0
048840
074840
844880
805080
804080
808080
430100
3C0100
000100
180000
180000
180000
ENDCHAR
STARTCHAR C128
ENCODING 128
SWIDTH 720 0
DWIDTH 15 0
BBX 16 13 3 0
BITMAP
FFFF
00E0
0750
1888
60B8
43F8
2CA0
3120
7120
09E0
05E0
0200
0200
ENDCHAR
STARTCHAR C129
ENCODING 129
SWIDTH 528 0
DWIDTH 11 0
BBX 12 19 3 0
BITMAP
4000
3000
0F80
0040
0020
0020
FFF0
0700
1C80
6480
C780
2700
1800
0800
1E00
2600
4600
4400
3800
ENDCHAR
STARTCHAR C130
ENCODING 130
SWIDTH 768 0
DWIDTH 16 0
BBX 17 12 3 1
BITMAP
FFFF80
078000
084000
907800
B0C400
B31C00
873C00
86B800
808000
408000
410000
3E0000
ENDCHAR
STARTCHAR C131
ENCODING 131
SWIDTH 720 0
DWIDTH 15 0
BBX 16 13 3 0
BITMAP
FFFF
00E0
0750
1888
6088
43B8
2CB0
3100
7100
0900
0500
0200
0200
ENDCHAR
STARTCHAR C132
ENCODING 132
SWIDTH 672 0
DWIDTH 14 0
BBX 15 13 3 0
BITMAP
FFFE
0708
1A90
6290
E590
1590
0C20
0C20
0F20
1EA0
1C40
0040
0040
ENDCHAR
STARTCHAR C133
ENCODING 133
SWIDTH 816 0
DWIDTH 17 0
BBX 19 13 2 0
BITMAP
7FFFE0
00E000
011000
021E00
041100
472700
472F00
862E00
802000
804000
404000
3FC000
004000
ENDCHAR
STARTCHAR C134
ENCODING 134
SWIDTH 624 0
DWIDTH 13 0
BBX 16 13 1 0
BITMAP
3FFF
0070
01A8
0648
0E78
0178
00C0
0080
3B80
4580
E480
E100
0100
ENDCHAR
STARTCHAR C135
ENCODING 135
SWIDTH 816 0
DWIDTH 17 0
BBX 18 13 3 0
BITMAP
FFFFC0
222000
7A2000
E5FC00
C44200
044200
044E00
185C00
3E9800
318000
018000
018000
010000
ENDCHAR
STARTCHAR C136
ENCODING 136
SWIDTH 768 0
DWIDTH 16 0
BBX 17 15 3 -2
BITMAP
FFFF80
224000
7A4000
E5F800
C44400
049C00
18B800
3CB000
328000
010000
7D0000
F30000
E30000
020000
020000
ENDCHAR
STARTCHAR C137
ENCODING 137
SWIDTH 864 0
DWIDTH 18 0
BBX 19 16 3 -3
BITMAP
FFFFE0
222080
7A4100
E5F900
C44500
045D00
1C9E00
3E9A00
318200
018200
038400
076400
061400
000C00
000800
000800
ENDCHAR
STARTCHAR C138
ENCODING 138
SWIDTH 672 0
DWIDTH 14 0
BBX 15 13 3 0
BITMAP
FFFE
0308
1E90
6290
C390
2590
1420
0FA0
8C60
9820
6040
0040
0040
ENDCHAR
STARTCHAR C139
ENCODING 139
SWIDTH 624 0
DWIDTH 13 0
BBX 13 14 4 0
BITMAP
0080
3CF8
4300
E300
1100
1100
2200
0380
0E80
3280
6480
1500
0D00
0D00
ENDCHAR
STARTCHAR C140
ENCODING 140
SWIDTH 576 0
DWIDTH 12 0
BBX 13 14 3 0
BITMAP
0020
0F38
30A0
70C0
0840
0840
0840
1080
0080
7C80
E280
C100
0100
0100
ENDCHAR
STARTCHAR C141
ENCODING 141
SWIDTH 576 0
DWIDTH 12 0
BBX 12 14 4 0
BITMAP
0040
1E70
6140
E180
1080
1080
1080
2100
0700
1900
3100
0A00
0600
0600
ENDCHAR
STARTCHAR C142
ENCODING 142
SWIDTH 720 0
DWIDTH 15 0
BBX 16 14 3 0
BITMAP
0020
1F3F
60C4
F0C8
0848
0848
1888
0090
0090
0390
07D0
0720
0020
0020
ENDCHAR
STARTCHAR C143
ENCODING 143
SWIDTH 576 0
DWIDTH 12 0
BBX 14 14 2 0
BITMAP
0010
079C
1850
3860
0420
0420
0420
0840
0040
7B40
84C0
E080
E080
0080
ENDCHAR
STARTCHAR C144
ENCODING 144
SWIDTH 528 0
DWIDTH 11 0
BBX 12 14 3 -1
BITMAP
FFF0
4040
4080
3C80
1880
2080
6100
1900
0500
7B00
E600
C600
0200
0600
ENDCHAR
STARTCHAR C145
ENCODING 145
SWIDTH 576 0
DWIDTH 12 0
BBX 13 13 3 0
BITMAP
FFF8
0110
78E0
E400
C200
0300
1E80
6480
C480
2780
1780
0800
0800
ENDCHAR
STARTCHAR C146
ENCODING 146
SWIDTH 1200 0
DWIDTH 25 0
BBX 25 14 4 0
BITMAP
03000000
44FFFF80
A9224000
9E7A4000
90E5F800
93C44400
9D048400
81049C00
8218B800
443CB000
38330000
00030000
00010000
00030000
ENDCHAR
STARTCHAR C147
ENCODING 147
SWIDTH 816 0
DWIDTH 17 0
BBX 18 14 3 0
BITMAP
01C100
F241C0
4F8100
440200
48C200
494200
4E6200
406400
20A400
1F4400
018400
004800
002800
001800
ENDCHAR
STARTCHAR C148
ENCODING 148
SWIDTH 576 0
DWIDTH 12 0
BBX 14 13 2 0
BITMAP
7FFC
1110
3CE0
3220
32E0
0340
0640
0840
3080
C080
0080
0080
0100
ENDCHAR
STARTCHAR C149
ENCODING 149
SWIDTH 912 0
DWIDTH 19 0
BBX 19 14 4 0
BITMAP
030000
44FFE0
A98080
9F0100
910100
93F100
9D2100
814200
83C200
442200
381200
000C00
000C00
000400
ENDCHAR
STARTCHAR C150
ENCODING 150
SWIDTH 624 0
DWIDTH 13 0
BBX 13 14 4 0
BITMAP
0700
49F8
BE20
9040
A340
A540
B940
8180
4280
3C80
1C80
3B00
3100
0100
ENDCHAR
STARTCHAR C151
ENCODING 151
SWIDTH 768 0
DWIDTH 16 0
BBX 17 13 3 0
BITMAP
FFFF80
610000
610000
598000
466000
461C00
8A0800
920800
A41000
C42000
044000
058000
060000
ENDCHAR
STARTCHAR C152
ENCODING 152
SWIDTH 768 0
DWIDTH 16 0
BBX 17 13 3 0
BITMAP
FFFF80
610000
618000
597800
462400
464400
8B8800
903000
A3C000
C08000
004000
002000
002000
ENDCHAR
STARTCHAR C153
ENCODING 153
SWIDTH 720 0
DWIDTH 15 0
BBX 16 15 3 -2
BITMAP
FFFF
4100
6300
5EF0
4648
8688
8B30
B3C0
C100
0080
0040
01E0
0640
0180
0080
ENDCHAR
STARTCHAR C154
ENCODING 154
SWIDTH 624 0
DWIDTH 13 0
BBX 15 13 2 0
BITMAP
7FFE
1000
1E00
2200
2200
2E60
3390
12F0
BAE0
9E20
8520
84C0
7C00
ENDCHAR
STARTCHAR C155
ENCODING 155
SWIDTH 960 0
DWIDTH 20 0
BBX 21 13 3 0
BITMAP
FFFFF8
140000
A3F000
A03000
9E4800
828780
428880
3E7500
020500
020600
010A00
00F200
000200
ENDCHAR
STARTCHAR C156
ENCODING 156
SWIDTH 960 0
DWIDTH 20 0
BBX 21 16 3 -3
BITMAP
FFFFF8
140000
A3F000
A03000
9E4800
828780
428880
3E7480
020500
020500
010900
00F700
001A00
003200
000E00
000200
ENDCHAR
STARTCHAR C157
ENCODING 157
SWIDTH 1200 0
DWIDTH 25 0
BBX 26 14 3 0
BITMAP
00000100
FFFFF1C0
06001100
0A003200
91F0D200
90231200
912C2200
8EB82400
80C42400
80C22400
41415400
3E415800
0080D800
0080C800
ENDCHAR
STARTCHAR C158
ENCODING 158
SWIDTH 768 0
DWIDTH 16 0
BBX 17 11 3 2
BITMAP
FFFF80
0E0000
111800
A12400
A14400
A19800
9E9800
808800
808800
417000
3E0000
ENDCHAR
STARTCHAR C159
ENCODING 159
SWIDTH 720 0
DWIDTH 15 0
BBX 16 15 3 -2
BITMAP
FFFF
0C00
1200
A198
A070
A210
9D20
8120
8120
4240
3DC0
0640
0C40
0340
00C0
ENDCHAR
STARTCHAR C161
ENCODING 161
SWIDTH 576 0
DWIDTH 12 0
BBX 12 17 2 -3
BITMAP
0060
1D90
3270
3260
0620
1A20
61C0
8600
8900
7100
0600
F800
7000
0C00
0200
0100
0080
ENDCHAR
STARTCHAR C162
ENCODING 162
SWIDTH 672 0
DWIDTH 14 0
BBX 13 14 3 0
BITMAP
0070
1988
3638
7430
6A10
1210
A1E0
A040
9F40
8140
8180
4280
3C80
0080
ENDCHAR
STARTCHAR C163
ENCODING 163
SWIDTH 624 0
DWIDTH 13 0
BBX 12 13 3 0
BITMAP
0760
0990
5960
9B60
8320
7EC0
0600
1D00
6500
C500
2500
1A00
0A00
ENDCHAR
STARTCHAR C164
ENCODING 164
SWIDTH 576 0
DWIDTH 12 0
BBX 14 21 2 -2
BITMAP
2000
1800
07C0
0030
0008
0008
7FFC
0800
0800
1000
10C0
10E0
10C0
1040
2080
2100
2700
9900
8100
4200
3C00
ENDCHAR
STARTCHAR C165
ENCODING 165
SWIDTH 480 0
DWIDTH 10 0
BBX 11 21 3 -2
BITMAP
4000
6000
1F00
0080
0040
0040
FFE0
2000
4000
4000
4700
4700
4200
8400
8800
9000
6400
1C00
6800
1800
0800
ENDCHAR
STARTCHAR C166
ENCODING 166
SWIDTH 912 0
DWIDTH 19 0
BBX 20 12 3 1
BITMAP
FFFFF0
080800
080800
0F1000
891100
811680
421880
3E0080
010080
010100
008600
007800
ENDCHAR
STARTCHAR C167
ENCODING 167
SWIDTH 768 0
DWIDTH 16 0
BBX 16 19 4 0
BITMAP
0800
0600
01F0
000C
0002
0002
3BFF
4600
C200
C200
C600
0438
0430
0410
0420
0840
0880
0900
0600
ENDCHAR
STARTCHAR C168
ENCODING 168
SWIDTH 624 0
DWIDTH 13 0
BBX 9 19 4 1
BITMAP
0100
0100
0200
0200
0200
0200
3A00
4600
E300
E300
0480
0480
0880
1080
2100
C100
8200
8400
7800
ENDCHAR
STARTCHAR C169
ENCODING 169
SWIDTH 624 0
DWIDTH 13 0
BBX 11 13 3 0
BITMAP
1C60
32A0
B120
8020
8040
8180
8380
8340
8040
4040
4080
2100
1E00
ENDCHAR
STARTCHAR C170
ENCODING 170
SWIDTH 528 0
DWIDTH 11 0
BBX 13 14 2 0
BITMAP
0020
0F38
10A0
3840
3840
3040
0040
1E80
2180
4180
E080
E100
0100
0100
ENDCHAR
STARTCHAR C171
ENCODING 171
SWIDTH 624 0
DWIDTH 13 0
BBX 13 14 4 0
BITMAP
0100
39F8
4620
C240
C240
C240
0440
0480
0C80
1E80
1980
0100
0100
0100
ENDCHAR
STARTCHAR C172
ENCODING 172
SWIDTH 576 0
DWIDTH 12 0
BBX 13 12 3 1
BITMAP
FFF8
0380
0C40
5040
B080
B300
8700
8680
8080
4080
4100
3E00
ENDCHAR
STARTCHAR C173
ENCODING 173
SWIDTH 528 0
DWIDTH 11 0
BBX 12 15 3 -2
BITMAP
FFF0
0F00
1080
B080
B700
8E00
8D00
8100
4100
4200
3E00
3200
0C00
0400
0400
ENDCHAR
STARTCHAR C174
ENCODING 174
SWIDTH 624 0
DWIDTH 13 0
BBX 13 14 4 0
BITMAP
0020
7238
CD20
C940
0240
0440
3040
E080
1880
0480
0280
0100
0100
0100
ENDCHAR
STARTCHAR C175
ENCODING 175
SWIDTH 576 0
DWIDTH 12 0
BBX 13 13 3 0
BITMAP
FFF8
0380
4740
4640
2040
2040
1080
0F00
7900
E500
C300
0200
0200
ENDCHAR
STARTCHAR C176
ENCODING 176
SWIDTH 576 0
DWIDTH 12 0
BBX 13 13 3 0
BITMAP
FFF8
0380
4740
4640
2040
2040
1080
0F00
0700
1900
0500
0200
0200
ENDCHAR
STARTCHAR C177
ENCODING 177
SWIDTH 720 0
DWIDTH 15 0
BBX 16 13 3 0
BITMAP
FFFF
03C4
4728
4628
2028
2028
1050
0F90
0790
0E50
0C20
0020
0020
ENDCHAR
STARTCHAR C178
ENCODING 178
SWIDTH 672 0
DWIDTH 14 0
BBX 15 13 3 0
BITMAP
FFFE
01E0
0210
0410
0810
4B20
8F20
8620
8020
8040
4040
3FC0
0040
ENDCHAR
STARTCHAR C179
ENCODING 179
SWIDTH 816 0
DWIDTH 17 0
BBX 19 13 2 0
BITMAP
7FFFE0
00E000
011300
021780
041680
472080
472100
863E00
802000
804000
404000
3FC000
004000
ENDCHAR
STARTCHAR C180
ENCODING 180
SWIDTH 864 0
DWIDTH 18 0
BBX 20 14 2 0
BITMAP
000040
7F9E70
206140
208180
21E080
471080
4A1080
522100
620100
C40100
040100
040200
040200
080200
ENDCHAR
STARTCHAR C181
ENCODING 181
SWIDTH 816 0
DWIDTH 17 0
BBX 19 13 2 0
BITMAP
7FFFE0
204080
208100
218100
477900
4A2100
524200
65C200
C42200
041200
080C00
080C00
080400
ENDCHAR
STARTCHAR C182
ENCODING 182
SWIDTH 576 0
DWIDTH 12 0
BBX 13 13 3 0
BITMAP
FFF8
4000
4C00
B840
C880
8B80
1480
1900
1100
0100
0200
0200
0200
ENDCHAR
STARTCHAR C183
ENCODING 183
SWIDTH 624 0
DWIDTH 13 0
BBX 14 13 3 0
BITMAP
FFFC
4000
4000
4700
9900
E1C0
8740
1A40
6240
1280
0A80
0480
0480
ENDCHAR
STARTCHAR C184
ENCODING 184
SWIDTH 528 0
DWIDTH 11 0
BBX 12 13 3 0
BITMAP
FFF0
4000
4000
4300
9C80
E080
8700
1900
7100
0900
0600
0200
0200
ENDCHAR
STARTCHAR C185
ENCODING 185
SWIDTH 624 0
DWIDTH 13 0
BBX 14 13 3 0
BITMAP
FFFC
2000
4600
5A00
6400
4400
1800
B880
BF40
8040
8080
4300
3C00
ENDCHAR
STARTCHAR C186
ENCODING 186
SWIDTH 624 0
DWIDTH 13 0
BBX 14 13 3 0
BITMAP
FFFC
2000
4600
5A00
6400
4400
1880
B940
BE40
8880
8080
7F80
0080
ENDCHAR
STARTCHAR C187
ENCODING 187
SWIDTH 576 0
DWIDTH 12 0
BBX 13 13 3 0
BITMAP
FFF8
4020
4040
8640
9A40
E440
8480
0480
0880
1C80
3B00
3100
0100
ENDCHAR
STARTCHAR C188
ENCODING 188
SWIDTH 480 0
DWIDTH 10 0
BBX 13 15 1 -1
BITMAP
0600
0E38
08E0
0740
0C40
1840
0440
0280
0280
0180
7D80
F300
E300
0100
0300
ENDCHAR
STARTCHAR C189
ENCODING 189
SWIDTH 912 0
DWIDTH 19 0
BBX 20 14 3 0
BITMAP
180000
387FF0
204040
238180
1C8680
109880
60E080
C1C100
313100
090900
050500
060600
020200
020200
ENDCHAR
STARTCHAR C190
ENCODING 190
SWIDTH 768 0
DWIDTH 16 0
BBX 17 19 3 0
BITMAP
040000
030000
00F800
000600
000100
000100
FFFF80
010000
010000
790000
E70000
C61C00
021800
020800
021000
042000
044000
048000
030000
ENDCHAR
STARTCHAR C191
ENCODING 191
SWIDTH 624 0
DWIDTH 13 0
BBX 14 12 3 1
BITMAP
FFFC
0200
7A00
E600
C640
05A0
8620
8020
8020
4040
2180
1E00
ENDCHAR
STARTCHAR C192
ENCODING 192
SWIDTH 624 0
DWIDTH 13 0
BBX 14 13 3 0
BITMAP
FFFC
0010
0010
1810
BE20
B1C0
8380
4740
4640
4040
2040
1080
0F00
ENDCHAR
STARTCHAR C193
ENCODING 193
SWIDTH 576 0
DWIDTH 12 0
BBX 13 15 3 -2
BITMAP
FFF8
0080
7080
6900
6600
0F00
1080
B080
B700
8E00
8D00
8100
8100
4200
3C00
ENDCHAR
STARTCHAR C194
ENCODING 194
SWIDTH 576 0
DWIDTH 12 0
BBX 13 15 3 -2
BITMAP
FFF8
0020
1820
BC40
B380
8380
4740
4640
2040
1080
0F00
0700
1A00
0600
0200
ENDCHAR
STARTCHAR C195
ENCODING 195
SWIDTH 624 0
DWIDTH 13 0
BBX 15 14 2 -1
BITMAP
7FFE
0008
0E08
1D10
18E0
01C0
0220
4620
4E20
8640
8040
8040
7F40
0080
ENDCHAR
STARTCHAR C196
ENCODING 196
SWIDTH 576 0
DWIDTH 12 0
BBX 13 14 3 -1
BITMAP
FFF8
0080
7080
6900
6600
0F00
1880
0080
0080
2100
1E00
0400
0200
0100
ENDCHAR
STARTCHAR C197
ENCODING 197
SWIDTH 672 0
DWIDTH 14 0
BBX 16 13 2 0
BITMAP
7FFF
0100
0100
790C
F518
E268
0290
0310
0210
0020
0020
0020
0020
ENDCHAR
STARTCHAR C198
ENCODING 198
SWIDTH 624 0
DWIDTH 13 0
BBX 14 13 3 0
BITMAP
FFFC
0080
7C80
F280
F100
E180
0740
1940
6240
1280
0A80
0680
0480
ENDCHAR
STARTCHAR C199
ENCODING 199
SWIDTH 528 0
DWIDTH 11 0
BBX 13 13 2 0
BITMAP
7FF8
0020
0040
3E40
7140
60C0
0080
0080
7C80
E280
C100
0100
0100
ENDCHAR
STARTCHAR C200
ENCODING 200
SWIDTH 528 0
DWIDTH 11 0
BBX 12 13 3 0
BITMAP
FFF0
0040
0080
7C80
E280
C180
0100
0700
1900
3900
0600
0200
0200
ENDCHAR
STARTCHAR C201
ENCODING 201
SWIDTH 624 0
DWIDTH 13 0
BBX 14 13 3 0
BITMAP
FFFC
0090
7920
E520
C320
0320
0240
0240
0640
0F40
0C80
0080
0080
ENDCHAR
STARTCHAR C202
ENCODING 202
SWIDTH 720 0
DWIDTH 15 0
BBX 16 13 3 0
BITMAP
FFFF
0404
0208
0208
FA08
C7C8
0630
0430
4810
3010
0020
0020
0020
ENDCHAR
STARTCHAR C203
ENCODING 203
SWIDTH 816 0
DWIDTH 17 0
BBX 18 19 3 0
BITMAP
020000
018000
007C00
000300
000080
000080
00FFC0
3C8000
C68000
298000
310000
410E00
010C00
010400
020800
021000
022000
024000
018000
ENDCHAR
STARTCHAR C204
ENCODING 204
SWIDTH 624 0
DWIDTH 13 0
BBX 14 14 3 0
BITMAP
0020
1F3C
60A0
1360
1440
9840
A040
83C0
4740
4640
4040
2040
1080
0F00
ENDCHAR
STARTCHAR C205
ENCODING 205
SWIDTH 576 0
DWIDTH 12 0
BBX 12 14 4 0
BITMAP
0040
3E70
C140
2780
2880
3080
6080
0100
0100
7900
E500
C200
0200
0200
ENDCHAR
STARTCHAR C206
ENCODING 206
SWIDTH 576 0
DWIDTH 12 0
BBX 14 14 2 0
BITMAP
0010
0F9C
3050
09E0
0A20
0C20
1020
0040
1E40
6140
E340
2C80
3080
6080
ENDCHAR
STARTCHAR C207
ENCODING 207
SWIDTH 576 0
DWIDTH 12 0
BBX 13 14 3 0
BITMAP
0020
1F38
60A0
13C0
1440
1840
3040
0080
3680
4980
E980
E100
C100
0100
ENDCHAR
STARTCHAR C208
ENCODING 208
SWIDTH 720 0
DWIDTH 15 0
BBX 16 13 3 0
BITMAP
FFFF
0404
0208
7A08
EE08
33C8
4230
0430
4810
3010
0020
0020
0020
ENDCHAR
STARTCHAR C209
ENCODING 209
SWIDTH 672 0
DWIDTH 14 0
BBX 16 14 2 -1
BITMAP
7FFF
0400
0230
0448
0848
1C48
0270
01B0
0180
7680
E980
E100
C100
0100
ENDCHAR
STARTCHAR C210
ENCODING 210
SWIDTH 672 0
DWIDTH 14 0
BBX 16 13 2 0
BITMAP
7FFF
0600
1A08
35F8
4C08
8710
8490
40B0
40A0
2120
1E20
0020
0020
ENDCHAR
STARTCHAR C211
ENCODING 211
SWIDTH 624 0
DWIDTH 13 0
BBX 14 13 3 0
BITMAP
FFFC
0200
1C00
6430
C460
25A0
1A40
0C40
0840
0080
0080
0080
0080
ENDCHAR
STARTCHAR C212
ENCODING 212
SWIDTH 624 0
DWIDTH 13 0
BBX 14 13 3 0
BITMAP
FFFC
0380
0C80
3100
C1C0
4720
3940
6240
6240
1280
0A80
0480
0480
ENDCHAR
STARTCHAR C213
ENCODING 213
SWIDTH 528 0
DWIDTH 11 0
BBX 12 13 3 0
BITMAP
FFF0
01C0
0E80
3080
C080
4780
3900
6100
C100
3100
0A00
0600
0600
ENDCHAR
STARTCHAR C214
ENCODING 214
SWIDTH 528 0
DWIDTH 11 0
BBX 13 13 2 0
BITMAP
7FF8
0060
03C0
1C40
3040
0C40
0280
0180
7680
8980
E100
E100
0100
ENDCHAR
STARTCHAR C215
ENCODING 215
SWIDTH 720 0
DWIDTH 15 0
BBX 16 13 3 0
BITMAP
FFFF
0000
0000
0010
4668
4E88
8F10
8010
8010
8010
4020
3FE0
0020
ENDCHAR
STARTCHAR C216
ENCODING 216
SWIDTH 576 0
DWIDTH 12 0
BBX 14 14 2 -1
BITMAP
7FFC
2600
2EE0
2F20
2020
1020
1040
0FC0
0080
7B80
E580
E080
C100
0100
ENDCHAR
STARTCHAR C217
ENCODING 217
SWIDTH 576 0
DWIDTH 12 0
BBX 14 13 2 0
BITMAP
7FFC
0810
3810
7C10
6220
01E0
0040
0040
7E40
F140
E080
0080
0080
ENDCHAR
STARTCHAR C218
ENCODING 218
SWIDTH 1008 0
DWIDTH 21 0
BBX 22 14 3 0
BITMAP
000010
FF9F1C
10E090
70E1E0
E91260
C61C20
001020
002040
000040
000040
000040
000080
000080
000080
ENDCHAR
STARTCHAR C219
ENCODING 219
SWIDTH 960 0
DWIDTH 20 0
BBX 21 13 3 0
BITMAP
FFFFF8
104000
704380
E8C240
C72240
002240
00C5C0
010580
030580
00C400
002800
001800
001800
ENDCHAR
STARTCHAR C220
ENCODING 220
SWIDTH 576 0
DWIDTH 12 0
BBX 13 13 3 0
BITMAP
FFF8
1020
7020
F820
C440
03C0
0380
0C80
3080
0880
0500
0300
0300
ENDCHAR
STARTCHAR C221
ENCODING 221
SWIDTH 624 0
DWIDTH 13 0
BBX 14 13 3 0
BITMAP
FFFC
1020
3020
7820
6440
0380
9880
B940
BE40
8040
8080
4100
3E00
ENDCHAR
STARTCHAR C222
ENCODING 222
SWIDTH 624 0
DWIDTH 13 0
BBX 15 13 2 0
BITMAP
7FFE
0810
1810
3C10
3220
01C0
0C40
5DA0
9E20
8040
8040
7FC0
0040
ENDCHAR
STARTCHAR C223
ENCODING 223
SWIDTH 720 0
DWIDTH 15 0
BBX 16 13 3 0
BITMAP
FFFF
1024
7028
F828
C448
0388
0090
0190
03D0
0330
0020
0020
0020
ENDCHAR
STARTCHAR C224
ENCODING 224
SWIDTH 576 0
DWIDTH 12 0
BBX 14 13 2 0
BITMAP
7FFC
0810
3810
7C10
6220
01E0
0040
3B40
44C0
E4C0
E080
6080
0080
ENDCHAR
STARTCHAR C225
ENCODING 225
SWIDTH 624 0
DWIDTH 13 0
BBX 14 13 3 0
BITMAP
FFFC
0080
3680
4900
E900
E100
C780
1A40
6240
13C0
0BC0
0400
0400
ENDCHAR
STARTCHAR C226
ENCODING 226
SWIDTH 576 0
DWIDTH 12 0
BBX 13 13 3 0
BITMAP
FFF8
0020
3B40
44C0
E440
E040
7C80
4280
8180
E180
1100
1100
2100
ENDCHAR
STARTCHAR C227
ENCODING 227
SWIDTH 576 0
DWIDTH 12 0
BBX 13 15 3 -2
BITMAP
FFF8
0040
3B40
4480
E080
E080
1E80
B980
8980
8B80
B700
8680
4080
2100
1E00
ENDCHAR
STARTCHAR C228
ENCODING 228
SWIDTH 816 0
DWIDTH 17 0
BBX 18 19 3 0
BITMAP
020000
018000
007C00
000300
000080
000080
FFFFC0
008000
378000
498000
E90000
E10E00
C30C00
030400
020800
021000
022000
024000
018000
ENDCHAR
STARTCHAR C229
ENCODING 229
SWIDTH 720 0
DWIDTH 15 0
BBX 16 12 3 1
BITMAP
FFFF
3B80
4580
E580
E110
0168
2188
2008
2008
2010
1060
0F80
ENDCHAR
STARTCHAR C230
ENCODING 230
SWIDTH 576 0
DWIDTH 12 0
BBX 14 13 2 0
BITMAP
7FFC
0E10
11E0
3920
3820
3020
0040
3E40
C140
26C0
2880
3080
4080
ENDCHAR
STARTCHAR C231
ENCODING 231
SWIDTH 576 0
DWIDTH 12 0
BBX 13 13 3 0
BITMAP
FFF8
0020
0040
3B40
44C0
E4C0
E080
C380
0C80
1880
0500
0300
0300
ENDCHAR
STARTCHAR C232
ENCODING 232
SWIDTH 720 0
DWIDTH 15 0
BBX 16 13 3 0
BITMAP
FFFF
0044
3B48
44C8
E4C8
E088
6090
0090
0390
07D0
0720
0020
0020
ENDCHAR
STARTCHAR C233
ENCODING 233
SWIDTH 624 0
DWIDTH 13 0
BBX 15 13 2 0
BITMAP
7FFE
0008
1ED0
2130
7110
7010
3020
3DA0
4260
E260
E040
6040
0040
ENDCHAR
STARTCHAR C234
ENCODING 234
SWIDTH 864 0
DWIDTH 18 0
BBX 19 14 3 0
BITMAP
004000
E77FE0
18C000
3CC000
7EA000
7E9800
008700
008200
008200
010400
010800
011000
016000
018000
ENDCHAR
STARTCHAR C235
ENCODING 235
SWIDTH 864 0
DWIDTH 18 0
BBX 19 14 3 0
BITMAP
002000
F33FE0
0CC000
3C6000
7E5E00
7EC900
009100
00E200
000C00
007000
002000
001000
000800
000800
ENDCHAR
STARTCHAR C236
ENCODING 236
SWIDTH 576 0
DWIDTH 12 0
BBX 13 14 3 0
BITMAP
0020
F338
0CA0
3C40
7E40
7E40
0040
0080
0080
3C80
7280
6100
0100
0100
ENDCHAR
STARTCHAR C237
ENCODING 237
SWIDTH 720 0
DWIDTH 15 0
BBX 16 14 3 0
BITMAP
0020
F33F
0CC4
3C48
7E48
7E48
0088
0090
0090
0390
07D0
0720
0020
0020
ENDCHAR
STARTCHAR C238
ENCODING 238
SWIDTH 576 0
DWIDTH 12 0
BBX 13 14 3 0
BITMAP
0020
F338
0CA0
3C40
7E40
7E40
0040
0080
3680
4980
E980
E100
C100
0100
ENDCHAR
STARTCHAR C239
ENCODING 239
SWIDTH 576 0
DWIDTH 12 0
BBX 13 14 3 0
BITMAP
0020
F338
0CA0
3C40
7E40
7E40
0040
0080
0380
0C80
1880
0500
0300
0300
ENDCHAR
STARTCHAR C240
ENCODING 240
SWIDTH 576 0
DWIDTH 12 0
BBX 14 13 2 0
BITMAP
7FFC
1880
2880
4500
4780
3D40
3240
E240
12C0
0AC0
0C00
0400
0400
ENDCHAR
STARTCHAR C241
ENCODING 241
SWIDTH 816 0
DWIDTH 17 0
BBX 18 14 3 -1
BITMAP
FFFFC0
188000
288000
490000
47C000
3A2000
043C00
4E6C00
8E5C00
805800
804000
808000
7F8000
008000
ENDCHAR
STARTCHAR C242
ENCODING 242
SWIDTH 528 0
DWIDTH 11 0
BBX 12 19 3 0
BITMAP
4000
3000
0F80
0040
0020
0020
FFF0
3100
5100
8A00
8C00
9800
7000
4700
8700
8200
8200
8400
7800
ENDCHAR
STARTCHAR C243
ENCODING 243
SWIDTH 624 0
DWIDTH 13 0
BBX 14 19 3 1
BITMAP
0080
0080
0100
0100
0100
0100
0100
FFFC
3180
5180
8A40
8E40
9C40
6840
1080
6080
4100
4200
3C00
ENDCHAR
STARTCHAR C244
ENCODING 244
SWIDTH 816 0
DWIDTH 17 0
BBX 16 13 3 0
BITMAP
FFCE
1051
08A1
08C1
1C8E
228E
4182
C182
3144
0938
0600
0600
0200
ENDCHAR
STARTCHAR C245
ENCODING 245
SWIDTH 864 0
DWIDTH 18 0
BBX 19 14 3 0
BITMAP
000080
FE78E0
338480
538700
8C5B00
886100
F0C100
018200
000200
000200
000200
000400
000400
000400
ENDCHAR
STARTCHAR C246
ENCODING 246
SWIDTH 816 0
DWIDTH 17 0
BBX 18 13 3 0
BITMAP
FFFFC0
310000
510C00
8A1200
8D1200
711200
021E00
042C00
0C2C00
022000
012000
00C000
004000
ENDCHAR
STARTCHAR C247
ENCODING 247
SWIDTH 576 0
DWIDTH 12 0
BBX 13 13 3 0
BITMAP
FFF8
3120
5140
8A40
8C40
7440
0480
1C80
3A80
3180
0100
0100
0100
ENDCHAR
STARTCHAR C248
ENCODING 248
SWIDTH 768 0
DWIDTH 16 0
BBX 17 13 3 0
BITMAP
FFFF80
061000
0A1000
111000
60E000
00F000
032800
044800
0C4800
027800
017800
008000
008000
ENDCHAR
STARTCHAR C249
ENCODING 249
SWIDTH 816 0
DWIDTH 17 0
BBX 18 14 3 -1
BITMAP
FFFFC0
061000
061000
491000
71E000
022000
043C00
4E6C00
8E5C00
8C5800
804000
808000
7F8000
008000
ENDCHAR
STARTCHAR C250
ENCODING 250
SWIDTH 768 0
DWIDTH 16 0
BBX 17 16 3 -3
BITMAP
FFFF80
061000
0A1000
111000
60E000
007000
01A800
064800
0E7800
017800
38C000
478000
E48000
E08000
C08000
010000
ENDCHAR
STARTCHAR C251
ENCODING 251
SWIDTH 816 0
DWIDTH 17 0
BBX 18 14 3 0
BITMAP
000100
FFC1C0
0C4100
144200
144200
63C200
00A200
072400
062400
004400
018400
018800
006800
001800
ENDCHAR
STARTCHAR C252
ENCODING 252
SWIDTH 816 0
DWIDTH 17 0
BBX 18 19 3 0
BITMAP
020000
018000
007C00
000300
000080
000080
FFFFC0
084000
088000
088000
0E8000
098C00
B10C00
C10800
010800
031000
022000
024000
018000
ENDCHAR
STARTCHAR C253
ENCODING 253
SWIDTH 672 0
DWIDTH 14 0
BBX 15 13 3 0
BITMAP
FFFE
0608
0508
0908
F0F0
81C0
43A0
4320
4020
2020
2040
1080
0F00
ENDCHAR
STARTCHAR C254
ENCODING 254
SWIDTH 576 0
DWIDTH 12 0
BBX 13 15 3 -2
BITMAP
FFF8
0840
1440
1440
E380
0F00
1080
B080
B700
8E00
8D00
8100
8100
4200
3C00
ENDCHAR
STARTCHAR C255
ENCODING 255
SWIDTH 624 0
DWIDTH 13 0
BBX 15 14 2 -1
BITMAP
7FFE
0610
0610
2910
31E0
0220
0420
4620
8E40
8640
8040
8040
7F40
0080
ENDCHAR
ENDFONT
