#define help1_width 40
#define help1_height 40
static char help1_bits[] = {
 0x00,0x00,0x00,0x00,0x00,0x00,0x00,0x00,0x00,0x00,0x00,0x00,0x00,0x00,0x00,
 0x00,0x00,0x00,0x00,0x00,0x80,0xff,0xff,0xff,0x01,0x80,0xff,0xff,0xff,0x01,
 0x80,0x01,0x00,0x80,0x01,0x80,0x01,0x00,0x80,0x01,0x80,0x01,0x00,0x80,0x01,
 0x80,0x01,0x00,0x80,0x01,0x80,0x01,0x00,0x80,0x01,0x80,0x01,0x7e,0x80,0x01,
 0x80,0x01,0xff,0x80,0x01,0x80,0x91,0xf7,0x81,0x01,0x80,0x81,0xe7,0x81,0x01,
 0x80,0x81,0xe7,0x83,0x01,0x80,0x01,0xf3,0x81,0x01,0x80,0x01,0xf8,0x81,0x01,
 0x80,0x01,0xf8,0x80,0x01,0x80,0x05,0x7c,0x80,0x01,0x80,0x01,0x3c,0x80,0x01,
 0x80,0x01,0x1c,0x82,0x01,0x80,0x11,0x1c,0x80,0x01,0x80,0x01,0x00,0x80,0x01,
 0x80,0x01,0x1c,0x80,0x01,0x80,0x01,0x3e,0x80,0x01,0x80,0x01,0x3e,0x82,0x01,
 0x80,0x09,0x3e,0x80,0x01,0x80,0x01,0x1c,0x80,0x01,0x80,0x01,0x00,0x80,0x01,
 0x80,0x01,0x00,0x80,0x01,0x80,0x21,0x00,0x82,0x01,0x80,0x01,0x00,0x80,0x01,
 0x80,0x01,0x11,0x80,0x01,0x80,0xff,0xff,0xff,0x01,0x80,0xff,0xff,0xff,0x01,
 0x00,0x00,0x00,0x00,0x00,0x00,0x00,0x00,0x00,0x00,0x00,0x00,0x00,0x00,0x00,
 0x00,0x00,0x00,0x00,0x00};
