#define new1_width 40
#define new1_height 40
static char new1_bits[] = {
 0x00,0x00,0x00,0x00,0x00,0x00,0x00,0x00,0x00,0x00,0x00,0x00,0x00,0x00,0x00,
 0x00,0x00,0x00,0x00,0x00,0xc0,0xff,0xff,0x01,0x00,0xc0,0xff,0xff,0x03,0x00,
 0xc0,0x00,0xc0,0x07,0x00,0xc0,0x00,0xc0,0x0e,0x00,0xc0,0x00,0xc0,0x1c,0x00,
 0xc0,0x00,0xc0,0x38,0x00,0xc0,0x00,0xc0,0x70,0x00,0xc0,0x00,0xc0,0xe0,0x00,
 0xc0,0x00,0xc0,0xc0,0x01,0xc0,0x00,0xc0,0xff,0x03,0xc0,0x00,0xc0,0xff,0x03,
 0xc0,0x00,0x00,0x00,0x03,0xc0,0x00,0x00,0x00,0x03,0xc0,0x00,0x00,0x00,0x03,
 0xc0,0x00,0x00,0x00,0x03,0xc0,0x00,0x00,0x00,0x03,0xc0,0x00,0x00,0x00,0x03,
 0xc0,0x00,0x00,0x00,0x03,0xc0,0x00,0x00,0x00,0x03,0xc0,0x00,0x00,0x00,0x03,
 0xc0,0x00,0x00,0x00,0x03,0xc0,0x00,0x00,0x00,0x03,0xc0,0x00,0x00,0x00,0x03,
 0xc0,0x00,0x00,0x00,0x03,0xc0,0x00,0x00,0x00,0x03,0xc0,0x00,0x00,0x00,0x03,
 0xc0,0x00,0x00,0x00,0x03,0xc0,0x00,0x00,0x00,0x03,0xc0,0x00,0x00,0x00,0x03,
 0xc0,0x00,0x00,0x00,0x03,0xc0,0xff,0xff,0xff,0x03,0xc0,0xff,0xff,0xff,0x03,
 0x00,0x00,0x00,0x00,0x00,0x00,0x00,0x00,0x00,0x00,0x00,0x00,0x00,0x00,0x00,
 0x00,0x00,0x00,0x00,0x00};
