#define option3_width 40
#define option3_height 40
static char option3_bits[] = {
 0x00,0x00,0x00,0x00,0x00,0x00,0x00,0x00,0x00,0x00,0x00,0x00,0x00,0x00,0x00,
 0x00,0x00,0x00,0x00,0x00,0x00,0x00,0x00,0x00,0x00,0x00,0x00,0x00,0x00,0x00,
 0x00,0x00,0x00,0x00,0x00,0x00,0x00,0x00,0x00,0x00,0xf8,0xff,0xff,0xff,0x1f,
 0xf8,0xff,0xff,0xff,0x1f,0x18,0x00,0x00,0x00,0x18,0x98,0x7b,0x0f,0xef,0x19,
 0x98,0x52,0x0a,0x29,0x19,0x18,0x00,0x00,0x29,0x19,0x18,0x00,0x00,0x29,0x19,
 0x18,0x00,0x00,0x29,0x19,0x18,0x00,0x00,0x29,0x19,0x18,0xfe,0x1d,0xef,0x19,
 0x18,0xfe,0x1d,0x00,0x18,0x18,0x00,0x00,0x00,0x18,0x18,0xde,0x0e,0x00,0x18,
 0x18,0xde,0x0e,0x00,0x18,0x18,0x00,0x00,0x00,0x18,0x18,0xfe,0xfe,0xfb,0x18,
 0x18,0xfe,0xfe,0xfb,0x18,0x18,0x00,0x00,0x00,0x18,0x18,0xbe,0x3b,0x00,0x18,
 0x18,0xbe,0x3b,0x00,0x18,0x18,0x00,0x00,0x00,0x18,0x18,0x00,0x00,0x00,0x18,
 0xf8,0xff,0xff,0xff,0x1f,0xf8,0xff,0xff,0xff,0x1f,0x00,0x00,0x00,0x00,0x00,
 0x00,0x00,0x00,0x00,0x00,0x00,0x00,0x00,0x00,0x00,0x00,0x00,0x00,0x00,0x00,
 0x00,0x00,0x00,0x00,0x00,0x00,0x00,0x00,0x00,0x00,0x00,0x00,0x00,0x00,0x00,
 0x00,0x00,0x00,0x00,0x00};
